  0
SECTION
  2
HEADER
  9
$ACADVER
  1
AC1009
  9
$DWGCODEPAGE
  3
ansi_1252
  9
$INSBASE
 10
0.0
 20
0.0
 30
0.0
  9
$EXTMIN
 10
110.0975722390244
 20
-99.8220733755644
 30
0.0
  9
$EXTMAX
 10
155.8074855064927
 20
-53.29714577313944
 30
0.0
  9
$LIMMIN
 10
0.0
 20
0.0
  9
$LIMMAX
 10
12.0
 20
9.0
  9
$ORTHOMODE
 70
     0
  9
$REGENMODE
 70
     1
  9
$FILLMODE
 70
     1
  9
$QTEXTMODE
 70
     0
  9
$MIRRTEXT
 70
     1
  9
$DRAGMODE
 70
     2
  9
$LTSCALE
 40
1.0
  9
$OSMODE
 70
    37
  9
$ATTMODE
 70
     1
  9
$TEXTSIZE
 40
0.2
  9
$TRACEWID
 40
0.05
  9
$TEXTSTYLE
  7
STANDARD
  9
$CLAYER
  8
DEFAULT
  9
$CELTYPE
  6
BYLAYER
  9
$CECOLOR
 62
   256
  9
$DIMSCALE
 40
1.0
  9
$DIMASZ
 40
0.18
  9
$DIMEXO
 40
0.0625
  9
$DIMDLI
 40
0.38
  9
$DIMRND
 40
0.0
  9
$DIMDLE
 40
0.0
  9
$DIMEXE
 40
0.18
  9
$DIMTP
 40
0.0
  9
$DIMTM
 40
0.0
  9
$DIMTXT
 40
0.18
  9
$DIMCEN
 40
0.09
  9
$DIMTSZ
 40
0.0
  9
$DIMTOL
 70
     0
  9
$DIMLIM
 70
     0
  9
$DIMTIH
 70
     1
  9
$DIMTOH
 70
     1
  9
$DIMSE1
 70
     0
  9
$DIMSE2
 70
     0
  9
$DIMTAD
 70
     0
  9
$DIMZIN
 70
     0
  9
$DIMBLK
  1

  9
$DIMASO
 70
     1
  9
$DIMSHO
 70
     1
  9
$DIMPOST
  1

  9
$DIMAPOST
  1

  9
$DIMALT
 70
     0
  9
$DIMALTD
 70
     2
  9
$DIMALTF
 40
25.4
  9
$DIMLFAC
 40
1.0
  9
$DIMTOFL
 70
     0
  9
$DIMTVP
 40
0.0
  9
$DIMTIX
 70
     0
  9
$DIMSOXD
 70
     0
  9
$DIMSAH
 70
     0
  9
$DIMBLK1
  1

  9
$DIMBLK2
  1

  9
$DIMSTYLE
  2
STANDARD
  9
$DIMCLRD
 70
     0
  9
$DIMCLRE
 70
     0
  9
$DIMCLRT
 70
     0
  9
$DIMTFAC
 40
1.0
  9
$DIMGAP
 40
0.09
  9
$LUNITS
 70
     2
  9
$LUPREC
 70
     2
  9
$SKETCHINC
 40
0.1
  9
$FILLETRAD
 40
0.5
  9
$AUNITS
 70
     0
  9
$AUPREC
 70
     0
  9
$MENU
  1
.
  9
$ELEVATION
 40
0.0
  9
$PELEVATION
 40
0.0
  9
$THICKNESS
 40
0.0
  9
$LIMCHECK
 70
     0
  9
$CHAMFERA
 40
0.0
  9
$CHAMFERB
 40
0.0
  9
$SKPOLY
 70
     0
  9
$TDCREATE
 40
2458062.543825532
  9
$TDUPDATE
 40
2458062.543839248
  9
$TDINDWG
 40
0.0000000116
  9
$TDUSRTIMER
 40
0.0000000116
  9
$USRTIMER
 70
     1
  9
$ANGBASE
 50
0.0
  9
$ANGDIR
 70
     0
  9
$PDMODE
 70
     0
  9
$PDSIZE
 40
0.0
  9
$PLINEWID
 40
0.0
  9
$COORDS
 70
     1
  9
$SPLFRAME
 70
     0
  9
$SPLINETYPE
 70
     6
  9
$SPLINESEGS
 70
     8
  9
$ATTDIA
 70
     0
  9
$ATTREQ
 70
     1
  9
$HANDLING
 70
     1
  9
$HANDSEED
  5
DE
  9
$SURFTAB1
 70
     6
  9
$SURFTAB2
 70
     6
  9
$SURFTYPE
 70
     6
  9
$SURFU
 70
     6
  9
$SURFV
 70
     6
  9
$UCSNAME
  2

  9
$UCSORG
 10
0.0
 20
0.0
 30
0.0
  9
$UCSXDIR
 10
1.0
 20
0.0
 30
0.0
  9
$UCSYDIR
 10
0.0
 20
1.0
 30
0.0
  9
$PUCSNAME
  2

  9
$PUCSORG
 10
0.0
 20
0.0
 30
0.0
  9
$PUCSXDIR
 10
1.0
 20
0.0
 30
0.0
  9
$PUCSYDIR
 10
0.0
 20
1.0
 30
0.0
  9
$USERI1
 70
     0
  9
$USERI2
 70
     0
  9
$USERI3
 70
     0
  9
$USERI4
 70
     0
  9
$USERI5
 70
     0
  9
$USERR1
 40
0.0
  9
$USERR2
 40
0.0
  9
$USERR3
 40
0.0
  9
$USERR4
 40
0.0
  9
$USERR5
 40
0.0
  9
$WORLDVIEW
 70
     1
  9
$SHADEDGE
 70
     3
  9
$SHADEDIF
 70
    70
  9
$TILEMODE
 70
     1
  9
$MAXACTVP
 70
    64
  9
$PLIMCHECK
 70
     0
  9
$PEXTMIN
 10
1.000000000000000E+20
 20
1.000000000000000E+20
 30
1.000000000000000E+20
  9
$PEXTMAX
 10
-1.000000000000000E+20
 20
-1.000000000000000E+20
 30
-1.000000000000000E+20
  9
$PLIMMIN
 10
0.0
 20
0.0
  9
$PLIMMAX
 10
12.0
 20
9.0
  9
$UNITMODE
 70
     0
  9
$VISRETAIN
 70
     1
  9
$PLINEGEN
 70
     0
  9
$PSLTSCALE
 70
     1
  0
ENDSEC
  0
SECTION
  2
TABLES
  0
TABLE
  2
VPORT
 70
     1
  0
VPORT
  2
*ACTIVE
 70
     0
 10
0.0
 20
0.0
 11
1.0
 21
1.0
 12
132.9525288727586
 22
-76.55960957435192
 13
0.0
 23
0.0
 14
0.5
 24
0.5
 15
0.5
 25
0.5
 16
0.0
 26
0.0
 36
1.0
 17
0.0
 27
0.0
 37
0.0
 40
47.45542615447345
 41
0.9824822008983801
 42
50.0
 43
0.0
 44
0.0
 50
0.0
 51
0.0
 71
     0
 72
   100
 73
     1
 74
     3
 75
     0
 76
     0
 77
     0
 78
     0
  0
ENDTAB
  0
TABLE
  2
LTYPE
 70
     1
  0
LTYPE
  2
CONTINUOUS
 70
     0
  3
Solid line
 72
    65
 73
     0
 40
0.0
  0
ENDTAB
  0
TABLE
  2
LAYER
 70
     3
  0
LAYER
  2
0
 70
     0
 62
     7
  6
CONTINUOUS
  0
LAYER
  2
CUT-INNER
 70
     0
 62
    30
  6
CONTINUOUS
  0
LAYER
  2
DEFAULT
 70
     0
 62
     7
  6
CONTINUOUS
  0
ENDTAB
  0
TABLE
  2
STYLE
 70
     1
  0
STYLE
  2
STANDARD
 70
     0
 40
0.0
 41
1.0
 50
0.0
 71
     0
 42
0.2
  3
txt
  4

  0
ENDTAB
  0
TABLE
  2
VIEW
 70
     0
  0
ENDTAB
  0
TABLE
  2
UCS
 70
     0
  0
ENDTAB
  0
TABLE
  2
APPID
 70
     1
  0
APPID
  2
ACAD
 70
     0
  0
ENDTAB
  0
TABLE
  2
DIMSTYLE
 70
     1
  0
DIMSTYLE
  2
STANDARD
 70
     0
  3

  4

  5

  6

  7

 40
1.0
 41
0.18
 42
0.0625
 43
0.38
 44
0.18
 45
0.0
 46
0.0
 47
0.0
 48
0.0
140
0.18
141
0.09
142
0.0
143
25.4
144
1.0
145
0.0
146
1.0
147
0.09
 71
     0
 72
     0
 73
     1
 74
     1
 75
     0
 76
     0
 77
     0
 78
     0
170
     0
171
     2
172
     0
173
     0
174
     0
175
     0
176
     0
177
     0
178
     0
  0
ENDTAB
  0
ENDSEC
  0
SECTION
  2
BLOCKS
  0
BLOCK
  8
0
  2
$MODEL_SPACE
 70
     0
 10
0.0
 20
0.0
 30
0.0
  3
$MODEL_SPACE
  1

  0
ENDBLK
  5
21
  8
0
  0
BLOCK
 67
     1
  8
0
  2
$PAPER_SPACE
 70
     0
 10
0.0
 20
0.0
 30
0.0
  3
$PAPER_SPACE
  1

  0
ENDBLK
  5
1D
 67
     1
  8
0
  0
ENDSEC
  0
SECTION
  2
ENTITIES
  0
LINE
  5
6F
  8
CUT-INNER
 10
132.4498060145687
 20
-71.77570293165476
 30
0.0
 11
133.5921265226448
 21
-69.79714577313985
 31
0.0
  0
LINE
  5
70
  8
CUT-INNER
 10
133.5921265226448
 20
-69.79714577313985
 30
0.0
 11
132.4498060145687
 21
-67.81858861462445
 31
0.0
  0
LINE
  5
71
  8
CUT-INNER
 10
132.4498060145687
 20
-67.81858861462445
 30
0.0
 11
130.1651649984167
 21
-67.81858861462445
 31
0.0
  0
LINE
  5
72
  8
CUT-INNER
 10
130.1651649984167
 20
-67.81858861462445
 30
0.0
 11
129.0228444903408
 21
-69.79714577313985
 31
0.0
  0
LINE
  5
73
  8
CUT-INNER
 10
129.0228444903408
 20
-69.79714577313985
 30
0.0
 11
130.1651649984167
 21
-71.77570293165476
 31
0.0
  0
LINE
  5
74
  8
CUT-INNER
 10
130.1651649984167
 20
-71.77570293165476
 30
0.0
 11
132.4498060145687
 21
-71.77570293165476
 31
0.0
  0
LINE
  5
76
  8
DEFAULT
 10
127.8074855064927
 20
-53.29714577313944
 30
0.0
 11
127.8074855064927
 21
-73.09714577313946
 31
0.0
  0
LINE
  5
77
  8
DEFAULT
 10
127.8074855064927
 20
-73.09714577313946
 30
0.0
 11
155.8074855064927
 21
-73.09714577313946
 31
0.0
  0
LINE
  5
78
  8
DEFAULT
 10
155.8074855064927
 20
-73.09714577313946
 30
0.0
 11
155.8074855064927
 21
-53.29714577313944
 31
0.0
  0
LINE
  5
79
  8
DEFAULT
 10
155.8074855064927
 20
-53.29714577313944
 30
0.0
 11
127.8074855064927
 21
-53.29714577313944
 31
0.0
  0
LINE
  5
7A
  8
CUT-INNER
 10
153.4498060145688
 20
-71.77570293165485
 30
0.0
 11
154.5921265226447
 21
-69.79714577313996
 31
0.0
  0
LINE
  5
7B
  8
CUT-INNER
 10
154.5921265226447
 20
-69.79714577313996
 30
0.0
 11
153.4498060145688
 21
-67.81858861462456
 31
0.0
  0
LINE
  5
7C
  8
CUT-INNER
 10
153.4498060145688
 20
-67.81858861462456
 30
0.0
 11
151.1651649984167
 21
-67.81858861462456
 31
0.0
  0
LINE
  5
7D
  8
CUT-INNER
 10
151.1651649984167
 20
-67.81858861462456
 30
0.0
 11
150.0228444903407
 21
-69.79714577313996
 31
0.0
  0
LINE
  5
7E
  8
CUT-INNER
 10
150.0228444903407
 20
-69.79714577313996
 30
0.0
 11
151.1651649984167
 21
-71.77570293165485
 31
0.0
  0
LINE
  5
7F
  8
CUT-INNER
 10
151.1651649984167
 20
-71.77570293165485
 30
0.0
 11
153.4498060145688
 21
-71.77570293165485
 31
0.0
  0
LINE
  5
80
  8
CUT-INNER
 10
150.3289283479767
 20
-58.43946628121466
 30
0.0
 11
152.3074855064917
 21
-59.58178678929064
 31
0.0
  0
LINE
  5
81
  8
CUT-INNER
 10
152.3074855064917
 20
-59.58178678929064
 30
0.0
 11
154.2860426650078
 21
-58.43946628121466
 31
0.0
  0
LINE
  5
82
  8
CUT-INNER
 10
154.2860426650078
 20
-58.43946628121466
 30
0.0
 11
154.2860426650078
 21
-56.15482526506354
 31
0.0
  0
LINE
  5
83
  8
CUT-INNER
 10
154.2860426650078
 20
-56.15482526506354
 30
0.0
 11
152.3074855064917
 21
-55.01250475698745
 31
0.0
  0
LINE
  5
84
  8
CUT-INNER
 10
152.3074855064917
 20
-55.01250475698745
 30
0.0
 11
150.3289283479767
 21
-56.15482526506354
 31
0.0
  0
LINE
  5
85
  8
CUT-INNER
 10
150.3289283479767
 20
-56.15482526506354
 30
0.0
 11
150.3289283479767
 21
-58.43946628121466
 31
0.0
  0
LINE
  5
86
  8
CUT-INNER
 10
129.3289283479776
 20
-58.43946628121474
 30
0.0
 11
131.3074855064927
 21
-59.58178678929075
 31
0.0
  0
LINE
  5
87
  8
CUT-INNER
 10
131.3074855064927
 20
-59.58178678929075
 30
0.0
 11
133.2860426650078
 21
-58.43946628121474
 31
0.0
  0
LINE
  5
88
  8
CUT-INNER
 10
133.2860426650078
 20
-58.43946628121474
 30
0.0
 11
133.2860426650078
 21
-56.15482526506366
 31
0.0
  0
LINE
  5
89
  8
CUT-INNER
 10
133.2860426650078
 20
-56.15482526506366
 30
0.0
 11
131.3074855064927
 21
-55.01250475698753
 31
0.0
  0
LINE
  5
8A
  8
CUT-INNER
 10
131.3074855064927
 20
-55.01250475698753
 30
0.0
 11
129.3289283479776
 21
-56.15482526506366
 31
0.0
  0
LINE
  5
8B
  8
CUT-INNER
 10
129.3289283479776
 20
-56.15482526506366
 30
0.0
 11
129.3289283479776
 21
-58.43946628121474
 31
0.0
  0
LINE
  5
8C
  8
DEFAULT
 10
153.1754712783494
 20
-91.45390862582758
 30
0.0
 11
153.1754712783494
 21
-98.9053514673123
 31
0.0
  0
LINE
  5
8D
  8
DEFAULT
 10
153.1754712783494
 20
-98.9053514673123
 30
0.0
 11
127.1754712783494
 21
-98.9053514673127
 31
0.0
  0
LINE
  5
8E
  8
DEFAULT
 10
127.1754712783494
 20
-98.9053514673127
 30
0.0
 11
127.1754712783494
 21
-81.10535146731229
 31
0.0
  0
LINE
  5
8F
  8
DEFAULT
 10
127.1754712783494
 20
-81.10535146731229
 30
0.0
 11
153.1754712783494
 21
-81.1053514673128
 31
0.0
  0
LINE
  5
90
  8
DEFAULT
 10
153.1754712783494
 20
-81.1053514673128
 30
0.0
 11
153.1754712783494
 21
-88.45390862582758
 31
0.0
  0
LINE
  5
91
  8
DEFAULT
 10
153.1754712783494
 20
-88.45390862582758
 30
0.0
 11
150.1754712783494
 21
-88.45390862582758
 31
0.0
  0
LINE
  5
92
  8
DEFAULT
 10
150.1754712783494
 20
-88.45390862582758
 30
0.0
 11
150.1754712783494
 21
-91.45390862582758
 31
0.0
  0
LINE
  5
93
  8
DEFAULT
 10
150.1754712783494
 20
-91.45390862582758
 30
0.0
 11
153.1754712783494
 21
-91.45390862582758
 31
0.0
  0
LINE
  5
94
  8
DEFAULT
 10
152.8446422406631
 20
-96.6053514673128
 30
0.0
 11
151.7600567595063
 21
-94.72679430879737
 31
0.0
  0
LINE
  5
95
  8
DEFAULT
 10
151.7600567595063
 20
-94.72679430879737
 30
0.0
 11
149.5908857971921
 21
-94.72679430879737
 31
0.0
  0
LINE
  5
96
  8
DEFAULT
 10
149.5908857971921
 20
-94.72679430879737
 30
0.0
 11
148.5063003160352
 21
-96.6053514673128
 31
0.0
  0
LINE
  5
97
  8
DEFAULT
 10
148.5063003160352
 20
-96.6053514673128
 30
0.0
 11
149.5908857971921
 21
-98.48390862582767
 31
0.0
  0
LINE
  5
98
  8
DEFAULT
 10
149.5908857971921
 20
-98.48390862582767
 30
0.0
 11
151.7600567595063
 21
-98.48390862582767
 31
0.0
  0
LINE
  5
99
  8
DEFAULT
 10
151.7600567595063
 20
-98.48390862582767
 30
0.0
 11
152.8446422406631
 21
-96.6053514673128
 31
0.0
  0
LINE
  5
9A
  8
DEFAULT
 10
127.5063003160352
 20
-96.6053514673124
 30
0.0
 11
128.5908857971921
 21
-98.48390862582767
 31
0.0
  0
LINE
  5
9B
  8
DEFAULT
 10
128.5908857971921
 20
-98.48390862582767
 30
0.0
 11
130.7600567595063
 21
-98.48390862582767
 31
0.0
  0
LINE
  5
9C
  8
DEFAULT
 10
130.7600567595063
 20
-98.48390862582767
 30
0.0
 11
131.8446422406631
 21
-96.6053514673124
 31
0.0
  0
LINE
  5
9D
  8
DEFAULT
 10
131.8446422406631
 20
-96.6053514673124
 30
0.0
 11
130.7600567595063
 21
-94.72679430879737
 31
0.0
  0
LINE
  5
9E
  8
DEFAULT
 10
130.7600567595063
 20
-94.72679430879737
 30
0.0
 11
128.5908857971921
 21
-94.72679430879737
 31
0.0
  0
LINE
  5
9F
  8
DEFAULT
 10
128.5908857971921
 20
-94.72679430879737
 30
0.0
 11
127.5063003160352
 21
-96.6053514673124
 31
0.0
  0
LINE
  5
A0
  8
DEFAULT
 10
150.675471278348
 20
-86.2745224296255
 30
0.0
 11
152.5540284368643
 21
-85.18993694846847
 31
0.0
  0
LINE
  5
A1
  8
DEFAULT
 10
152.5540284368643
 20
-85.18993694846847
 30
0.0
 11
152.5540284368643
 21
-83.02076598615531
 31
0.0
  0
LINE
  5
A2
  8
DEFAULT
 10
152.5540284368643
 20
-83.02076598615531
 30
0.0
 11
150.675471278348
 21
-81.93618050499822
 31
0.0
  0
LINE
  5
A3
  8
DEFAULT
 10
150.675471278348
 20
-81.93618050499822
 30
0.0
 11
148.7969141198331
 21
-83.02076598615531
 31
0.0
  0
LINE
  5
A4
  8
DEFAULT
 10
148.7969141198331
 20
-83.02076598615531
 30
0.0
 11
148.7969141198331
 21
-85.18993694846847
 31
0.0
  0
LINE
  5
A5
  8
DEFAULT
 10
148.7969141198331
 20
-85.18993694846847
 30
0.0
 11
150.675471278348
 21
-86.2745224296255
 31
0.0
  0
LINE
  5
A6
  8
DEFAULT
 10
129.6754712783494
 20
-86.27452242962556
 30
0.0
 11
131.5540284368643
 21
-85.18993694846858
 31
0.0
  0
LINE
  5
A7
  8
DEFAULT
 10
131.5540284368643
 20
-85.18993694846858
 30
0.0
 11
131.5540284368643
 21
-83.02076598615542
 31
0.0
  0
LINE
  5
A8
  8
DEFAULT
 10
131.5540284368643
 20
-83.02076598615542
 30
0.0
 11
129.6754712783494
 21
-81.93618050499833
 31
0.0
  0
LINE
  5
A9
  8
DEFAULT
 10
129.6754712783494
 20
-81.93618050499833
 30
0.0
 11
127.796914119834
 21
-83.02076598615542
 31
0.0
  0
LINE
  5
AA
  8
DEFAULT
 10
127.796914119834
 20
-83.02076598615542
 30
0.0
 11
127.796914119834
 21
-85.18993694846858
 31
0.0
  0
LINE
  5
AB
  8
DEFAULT
 10
127.796914119834
 20
-85.18993694846858
 30
0.0
 11
129.6754712783494
 21
-86.27452242962556
 31
0.0
  0
LINE
  5
AC
  8
DEFAULT
 10
122.0995520489219
 20
-65.7735358172065
 30
0.0
 11
122.0975722390235
 21
-61.93206797833642
 31
0.0
  0
LINE
  5
AD
  8
DEFAULT
 10
122.0975722390235
 20
-61.93206797833642
 30
0.0
 11
121.9720284656678
 21
-61.93206797833642
 31
0.0
  0
LINE
  5
AE
  8
DEFAULT
 10
121.9720284656678
 20
-61.93206797833642
 30
0.0
 11
121.1021677929634
 21
-63.2259468411844
 31
0.0
  0
LINE
  5
AF
  8
DEFAULT
 10
121.1021677929634
 20
-63.2259468411844
 30
0.0
 11
119.9530951486709
 21
-64.27970779371572
 31
0.0
  0
LINE
  5
B0
  8
DEFAULT
 10
119.9530951486709
 20
-64.27970779371572
 30
0.0
 11
118.6658993295587
 21
-64.99196386287349
 31
0.0
  0
LINE
  5
B1
  8
DEFAULT
 10
118.6658993295587
 20
-64.99196386287349
 30
0.0
 11
118.6658993295587
 21
-66.13570991011193
 31
0.0
  0
LINE
  5
B2
  8
DEFAULT
 10
118.6658993295587
 20
-66.13570991011193
 30
0.0
 11
118.3652710099877
 21
-66.99712017302181
 31
0.0
  0
LINE
  5
B3
  8
DEFAULT
 10
118.3652710099877
 20
-66.99712017302181
 30
0.0
 11
117.7849157535757
 21
-67.70224354870288
 31
0.0
  0
LINE
  5
B4
  8
DEFAULT
 10
117.7849157535757
 20
-67.70224354870288
 30
0.0
 11
116.9966376338507
 21
-68.16336063164772
 31
0.0
  0
LINE
  5
B5
  8
DEFAULT
 10
116.9966376338507
 20
-68.16336063164772
 30
0.0
 11
116.3652142510914
 21
-68.27593374521979
 31
0.0
  0
LINE
  5
B6
  8
DEFAULT
 10
116.3652142510914
 20
-68.27593374521979
 30
0.0
 11
116.0975722392018
 21
-68.27593374520802
 31
0.0
  0
LINE
  5
B7
  8
DEFAULT
 10
116.0975722392018
 20
-68.27593374520802
 30
0.0
 11
115.8299302273135
 21
-68.27593374520762
 31
0.0
  0
LINE
  5
B8
  8
DEFAULT
 10
115.8299302273135
 20
-68.27593374520762
 30
0.0
 11
115.1985068446907
 21
-68.16336063164772
 31
0.0
  0
LINE
  5
B9
  8
DEFAULT
 10
115.1985068446907
 20
-68.16336063164772
 30
0.0
 11
114.4102287249657
 21
-67.70224354870288
 31
0.0
  0
LINE
  5
BA
  8
DEFAULT
 10
114.4102287249657
 20
-67.70224354870288
 30
0.0
 11
113.8298734685536
 21
-66.99712017302181
 31
0.0
  0
LINE
  5
BB
  8
DEFAULT
 10
113.8298734685536
 20
-66.99712017302181
 30
0.0
 11
113.5292451489818
 21
-66.13570991011193
 31
0.0
  0
LINE
  5
BC
  8
DEFAULT
 10
113.5292451489818
 20
-66.13570991011193
 30
0.0
 11
113.5292451489818
 21
-64.99196386287349
 31
0.0
  0
LINE
  5
BD
  8
DEFAULT
 10
113.5292451489818
 20
-64.99196386287349
 30
0.0
 11
112.2420493298696
 21
-64.27970779371572
 31
0.0
  0
LINE
  5
BE
  8
DEFAULT
 10
112.2420493298696
 20
-64.27970779371572
 30
0.0
 11
111.0929766855775
 21
-63.2259468411844
 31
0.0
  0
LINE
  5
BF
  8
DEFAULT
 10
111.0929766855775
 20
-63.2259468411844
 30
0.0
 11
110.2231160128727
 21
-61.93206797833642
 31
0.0
  0
LINE
  5
C0
  8
DEFAULT
 10
110.2231160128727
 20
-61.93206797833642
 30
0.0
 11
110.0975722390244
 21
-61.93206797833642
 31
0.0
  0
LINE
  5
C1
  8
DEFAULT
 10
110.0975722390244
 20
-61.93206797833642
 30
0.0
 11
110.0975722390244
 21
-76.22207337556438
 31
0.0
  0
LINE
  5
C2
  8
DEFAULT
 10
110.0975722390244
 20
-76.22207337556438
 30
0.0
 11
122.0975722390235
 21
-76.22207337556438
 31
0.0
  0
LINE
  5
C3
  8
DEFAULT
 10
122.0975722390235
 20
-76.22207337556438
 30
0.0
 11
122.0975722390235
 21
-73.5220733755641
 31
0.0
  0
LINE
  5
C4
  8
DEFAULT
 10
122.0975722390235
 20
-73.5220733755641
 30
0.0
 11
119.3103733556718
 21
-73.5220733755641
 31
0.0
  0
LINE
  5
C5
  8
DEFAULT
 10
119.3103733556718
 20
-73.5220733755641
 30
0.0
 11
119.3103733556718
 21
-72.9220733755642
 31
0.0
  0
LINE
  5
C6
  8
DEFAULT
 10
119.3103733556718
 20
-72.9220733755642
 30
0.0
 11
122.0975722390235
 21
-72.9220733755642
 31
0.0
  0
LINE
  5
C7
  8
DEFAULT
 10
122.0975722390235
 20
-72.9220733755642
 30
0.0
 11
122.0975722390235
 21
-68.97351621704951
 31
0.0
  0
LINE
  5
C8
  8
DEFAULT
 10
122.0975722390235
 20
-68.97351621704951
 30
0.0
 11
124.0975722390235
 21
-68.97351621704951
 31
0.0
  0
LINE
  5
C9
  8
DEFAULT
 10
124.0975722390235
 20
-68.97351621704951
 30
0.0
 11
124.0995520489219
 21
-65.7735358172065
 31
0.0
  0
LINE
  5
CA
  8
DEFAULT
 10
124.0995520489219
 20
-65.7735358172065
 30
0.0
 11
122.0995520489219
 21
-65.7735358172065
 31
0.0
  0
LINE
  5
CB
  8
DEFAULT
 10
110.0975722390244
 20
-99.8220733755644
 30
0.0
 11
122.0975722390244
 21
-99.8220733755644
 31
0.0
  0
LINE
  5
CC
  8
DEFAULT
 10
122.0975722390244
 20
-99.8220733755644
 30
0.0
 11
122.0975722390244
 21
-92.22207337556438
 31
0.0
  0
LINE
  5
CD
  8
DEFAULT
 10
122.0975722390244
 20
-92.22207337556438
 30
0.0
 11
110.0975722390244
 21
-92.22207337556438
 31
0.0
  0
LINE
  5
CE
  8
DEFAULT
 10
110.0975722390244
 20
-92.22207337556438
 30
0.0
 11
110.0975722390244
 21
-99.8220733755644
 31
0.0
  0
LINE
  5
CF
  8
DEFAULT
 10
110.0975722390244
 20
-76.22207337556438
 30
0.0
 11
122.0975722390244
 21
-76.22207337556438
 31
0.0
  0
LINE
  5
D0
  8
DEFAULT
 10
122.0975722390244
 20
-76.22207337556438
 30
0.0
 11
122.0975722390244
 21
-92.22207337556438
 31
0.0
  0
LINE
  5
D1
  8
DEFAULT
 10
122.0975722390244
 20
-92.22207337556438
 30
0.0
 11
118.0975722390244
 21
-92.22207337556438
 31
0.0
  0
LINE
  5
D2
  8
DEFAULT
 10
118.0975722390244
 20
-92.22207337556438
 30
0.0
 11
118.0975722390244
 21
-80.22207337556438
 31
0.0
  0
LINE
  5
D3
  8
DEFAULT
 10
118.0975722390244
 20
-80.22207337556438
 30
0.0
 11
114.0975722390244
 21
-80.22207337556438
 31
0.0
  0
LINE
  5
D4
  8
DEFAULT
 10
114.0975722390244
 20
-80.22207337556438
 30
0.0
 11
114.0975722390244
 21
-92.22207337556438
 31
0.0
  0
LINE
  5
D5
  8
DEFAULT
 10
114.0975722390244
 20
-92.22207337556438
 30
0.0
 11
110.0975722390244
 21
-92.22207337556438
 31
0.0
  0
LINE
  5
D6
  8
DEFAULT
 10
110.0975722390244
 20
-92.22207337556438
 30
0.0
 11
110.0975722390244
 21
-76.22207337556438
 31
0.0
  0
ENDSEC
  0
EOF
