  0
SECTION
  2
HEADER
  9
$ACADVER
  1
AC1009
  9
$DWGCODEPAGE
  3
ansi_1252
  9
$INSBASE
 10
0.0
 20
0.0
 30
0.0
  9
$EXTMIN
 10
-3704.044447052092
 20
-361.0085938044144
 30
0.0
  9
$EXTMAX
 10
-3655.616591744031
 20
-323.8118225491327
 30
0.0
  9
$LIMMIN
 10
0.0
 20
0.0
  9
$LIMMAX
 10
12.0
 20
9.0
  9
$ORTHOMODE
 70
     0
  9
$REGENMODE
 70
     1
  9
$FILLMODE
 70
     1
  9
$QTEXTMODE
 70
     0
  9
$MIRRTEXT
 70
     1
  9
$DRAGMODE
 70
     2
  9
$LTSCALE
 40
1.0
  9
$OSMODE
 70
    37
  9
$ATTMODE
 70
     1
  9
$TEXTSIZE
 40
0.2
  9
$TRACEWID
 40
0.05
  9
$TEXTSTYLE
  7
STANDARD
  9
$CLAYER
  8
DEFAULT
  9
$CELTYPE
  6
BYLAYER
  9
$CECOLOR
 62
   256
  9
$DIMSCALE
 40
1.0
  9
$DIMASZ
 40
0.18
  9
$DIMEXO
 40
0.0625
  9
$DIMDLI
 40
0.38
  9
$DIMRND
 40
0.0
  9
$DIMDLE
 40
0.0
  9
$DIMEXE
 40
0.18
  9
$DIMTP
 40
0.0
  9
$DIMTM
 40
0.0
  9
$DIMTXT
 40
0.18
  9
$DIMCEN
 40
0.09
  9
$DIMTSZ
 40
0.0
  9
$DIMTOL
 70
     0
  9
$DIMLIM
 70
     0
  9
$DIMTIH
 70
     1
  9
$DIMTOH
 70
     1
  9
$DIMSE1
 70
     0
  9
$DIMSE2
 70
     0
  9
$DIMTAD
 70
     0
  9
$DIMZIN
 70
     0
  9
$DIMBLK
  1

  9
$DIMASO
 70
     1
  9
$DIMSHO
 70
     1
  9
$DIMPOST
  1

  9
$DIMAPOST
  1

  9
$DIMALT
 70
     0
  9
$DIMALTD
 70
     2
  9
$DIMALTF
 40
25.4
  9
$DIMLFAC
 40
1.0
  9
$DIMTOFL
 70
     0
  9
$DIMTVP
 40
0.0
  9
$DIMTIX
 70
     0
  9
$DIMSOXD
 70
     0
  9
$DIMSAH
 70
     0
  9
$DIMBLK1
  1

  9
$DIMBLK2
  1

  9
$DIMSTYLE
  2
STANDARD
  9
$DIMCLRD
 70
     0
  9
$DIMCLRE
 70
     0
  9
$DIMCLRT
 70
     0
  9
$DIMTFAC
 40
1.0
  9
$DIMGAP
 40
0.09
  9
$LUNITS
 70
     2
  9
$LUPREC
 70
     2
  9
$SKETCHINC
 40
0.1
  9
$FILLETRAD
 40
0.5
  9
$AUNITS
 70
     0
  9
$AUPREC
 70
     0
  9
$MENU
  1
.
  9
$ELEVATION
 40
0.0
  9
$PELEVATION
 40
0.0
  9
$THICKNESS
 40
0.0
  9
$LIMCHECK
 70
     0
  9
$CHAMFERA
 40
0.0
  9
$CHAMFERB
 40
0.0
  9
$SKPOLY
 70
     0
  9
$TDCREATE
 40
2458038.549257199
  9
$TDUPDATE
 40
2458038.549278796
  9
$TDINDWG
 40
0.0000000116
  9
$TDUSRTIMER
 40
0.0000000116
  9
$USRTIMER
 70
     1
  9
$ANGBASE
 50
0.0
  9
$ANGDIR
 70
     0
  9
$PDMODE
 70
     0
  9
$PDSIZE
 40
0.0
  9
$PLINEWID
 40
0.0
  9
$COORDS
 70
     1
  9
$SPLFRAME
 70
     0
  9
$SPLINETYPE
 70
     6
  9
$SPLINESEGS
 70
     8
  9
$ATTDIA
 70
     0
  9
$ATTREQ
 70
     1
  9
$HANDLING
 70
     1
  9
$HANDSEED
  5
E0
  9
$SURFTAB1
 70
     6
  9
$SURFTAB2
 70
     6
  9
$SURFTYPE
 70
     6
  9
$SURFU
 70
     6
  9
$SURFV
 70
     6
  9
$UCSNAME
  2

  9
$UCSORG
 10
0.0
 20
0.0
 30
0.0
  9
$UCSXDIR
 10
1.0
 20
0.0
 30
0.0
  9
$UCSYDIR
 10
0.0
 20
1.0
 30
0.0
  9
$PUCSNAME
  2

  9
$PUCSORG
 10
0.0
 20
0.0
 30
0.0
  9
$PUCSXDIR
 10
1.0
 20
0.0
 30
0.0
  9
$PUCSYDIR
 10
0.0
 20
1.0
 30
0.0
  9
$USERI1
 70
     0
  9
$USERI2
 70
     0
  9
$USERI3
 70
     0
  9
$USERI4
 70
     0
  9
$USERI5
 70
     0
  9
$USERR1
 40
0.0
  9
$USERR2
 40
0.0
  9
$USERR3
 40
0.0
  9
$USERR4
 40
0.0
  9
$USERR5
 40
0.0
  9
$WORLDVIEW
 70
     1
  9
$SHADEDGE
 70
     3
  9
$SHADEDIF
 70
    70
  9
$TILEMODE
 70
     1
  9
$MAXACTVP
 70
    64
  9
$PLIMCHECK
 70
     0
  9
$PEXTMIN
 10
1.000000000000000E+20
 20
1.000000000000000E+20
 30
1.000000000000000E+20
  9
$PEXTMAX
 10
-1.000000000000000E+20
 20
-1.000000000000000E+20
 30
-1.000000000000000E+20
  9
$PLIMMIN
 10
0.0
 20
0.0
  9
$PLIMMAX
 10
12.0
 20
9.0
  9
$UNITMODE
 70
     0
  9
$VISRETAIN
 70
     1
  9
$PLINEGEN
 70
     0
  9
$PSLTSCALE
 70
     1
  0
ENDSEC
  0
SECTION
  2
TABLES
  0
TABLE
  2
VPORT
 70
     1
  0
VPORT
  2
*ACTIVE
 70
     0
 10
0.0
 20
0.0
 11
1.0
 21
1.0
 12
-3679.830519398061
 22
-342.4102081767736
 13
0.0
 23
0.0
 14
0.5
 24
0.5
 15
0.5
 25
0.5
 16
0.0
 26
0.0
 36
1.0
 17
0.0
 27
0.0
 37
0.0
 40
37.94070668038728
 41
1.301937068023987
 42
50.0
 43
0.0
 44
0.0
 50
0.0
 51
0.0
 71
     0
 72
   100
 73
     1
 74
     3
 75
     0
 76
     0
 77
     0
 78
     0
  0
ENDTAB
  0
TABLE
  2
LTYPE
 70
     1
  0
LTYPE
  2
CONTINUOUS
 70
     0
  3
Solid line
 72
    65
 73
     0
 40
0.0
  0
ENDTAB
  0
TABLE
  2
LAYER
 70
     3
  0
LAYER
  2
0
 70
     0
 62
     7
  6
CONTINUOUS
  0
LAYER
  2
DEFAULT
 70
     0
 62
     7
  6
CONTINUOUS
  0
LAYER
  2
CUT-INNER
 70
     0
 62
    30
  6
CONTINUOUS
  0
ENDTAB
  0
TABLE
  2
STYLE
 70
     1
  0
STYLE
  2
STANDARD
 70
     0
 40
0.0
 41
1.0
 50
0.0
 71
     0
 42
0.2
  3
txt
  4

  0
ENDTAB
  0
TABLE
  2
VIEW
 70
     0
  0
ENDTAB
  0
TABLE
  2
UCS
 70
     0
  0
ENDTAB
  0
TABLE
  2
APPID
 70
     1
  0
APPID
  2
ACAD
 70
     0
  0
ENDTAB
  0
TABLE
  2
DIMSTYLE
 70
     1
  0
DIMSTYLE
  2
STANDARD
 70
     0
  3

  4

  5

  6

  7

 40
1.0
 41
0.18
 42
0.0625
 43
0.38
 44
0.18
 45
0.0
 46
0.0
 47
0.0
 48
0.0
140
0.18
141
0.09
142
0.0
143
25.4
144
1.0
145
0.0
146
1.0
147
0.09
 71
     0
 72
     0
 73
     1
 74
     1
 75
     0
 76
     0
 77
     0
 78
     0
170
     0
171
     2
172
     0
173
     0
174
     0
175
     0
176
     0
177
     0
178
     0
  0
ENDTAB
  0
ENDSEC
  0
SECTION
  2
BLOCKS
  0
BLOCK
  8
0
  2
$MODEL_SPACE
 70
     0
 10
0.0
 20
0.0
 30
0.0
  3
$MODEL_SPACE
  1

  0
ENDBLK
  5
21
  8
0
  0
BLOCK
 67
     1
  8
0
  2
$PAPER_SPACE
 70
     0
 10
0.0
 20
0.0
 30
0.0
  3
$PAPER_SPACE
  1

  0
ENDBLK
  5
1D
 67
     1
  8
0
  0
ENDSEC
  0
SECTION
  2
ENTITIES
  0
LINE
  5
6F
  8
DEFAULT
 10
-3687.630485270529
 20
-355.3085938044046
 30
0.0
 11
-3687.630485270532
 21
-357.3085938044165
 31
0.0
  0
LINE
  5
70
  8
DEFAULT
 10
-3687.630485270532
 20
-357.3085938044165
 30
0.0
 11
-3687.371666225429
 21
-357.3426679781283
 31
0.0
  0
LINE
  5
71
  8
DEFAULT
 10
-3687.371666225429
 20
-357.3426679781283
 30
0.0
 11
-3687.130485270531
 21
-357.4425684006324
 31
0.0
  0
LINE
  5
72
  8
DEFAULT
 10
-3687.130485270531
 20
-357.4425684006324
 30
0.0
 11
-3686.923378489345
 21
-357.60148702323
 31
0.0
  0
LINE
  5
73
  8
DEFAULT
 10
-3686.923378489345
 20
-357.60148702323
 30
0.0
 11
-3686.764459866748
 21
-357.8085938044164
 31
0.0
  0
LINE
  5
74
  8
DEFAULT
 10
-3686.764459866748
 20
-357.8085938044164
 30
0.0
 11
-3686.66455944424
 21
-358.0497747593134
 31
0.0
  0
LINE
  5
75
  8
DEFAULT
 10
-3686.66455944424
 20
-358.0497747593134
 30
0.0
 11
-3686.630485270532
 21
-358.3085938044154
 31
0.0
  0
LINE
  5
76
  8
DEFAULT
 10
-3686.630485270532
 20
-358.3085938044154
 30
0.0
 11
-3686.664559444243
 21
-358.5674128495173
 31
0.0
  0
LINE
  5
77
  8
DEFAULT
 10
-3686.664559444243
 20
-358.5674128495173
 30
0.0
 11
-3686.764459866746
 21
-358.8085938044151
 31
0.0
  0
LINE
  5
78
  8
DEFAULT
 10
-3686.764459866746
 20
-358.8085938044151
 30
0.0
 11
-3686.923378489345
 21
-359.0157005856015
 31
0.0
  0
LINE
  5
79
  8
DEFAULT
 10
-3686.923378489345
 20
-359.0157005856015
 30
0.0
 11
-3687.13048527053
 21
-359.1746192081993
 31
0.0
  0
LINE
  5
7A
  8
DEFAULT
 10
-3687.13048527053
 20
-359.1746192081993
 30
0.0
 11
-3687.371666225429
 21
-359.2745196307033
 31
0.0
  0
LINE
  5
7B
  8
DEFAULT
 10
-3687.371666225429
 20
-359.2745196307033
 30
0.0
 11
-3687.630485270531
 21
-359.3085938044142
 31
0.0
  0
LINE
  5
7C
  8
DEFAULT
 10
-3687.630485270531
 20
-359.3085938044142
 30
0.0
 11
-3687.630485270535
 21
-360.1085938044133
 31
0.0
  0
LINE
  5
7D
  8
DEFAULT
 10
-3687.630485270535
 20
-360.1085938044133
 30
0.0
 11
-3686.630485270534
 21
-361.0085938044131
 31
0.0
  0
LINE
  5
7E
  8
DEFAULT
 10
-3686.630485270534
 20
-361.0085938044131
 30
0.0
 11
-3675.630485270527
 21
-361.0085938044144
 31
0.0
  0
LINE
  5
7F
  8
DEFAULT
 10
-3675.630485270527
 20
-361.0085938044144
 30
0.0
 11
-3674.630485270527
 21
-360.1085938044147
 31
0.0
  0
LINE
  5
80
  8
DEFAULT
 10
-3674.630485270527
 20
-360.1085938044147
 30
0.0
 11
-3674.63048527053
 21
-359.3085938044131
 31
0.0
  0
LINE
  5
81
  8
DEFAULT
 10
-3674.63048527053
 20
-359.3085938044131
 30
0.0
 11
-3674.889304315631
 21
-359.2745196307027
 31
0.0
  0
LINE
  5
82
  8
DEFAULT
 10
-3674.889304315631
 20
-359.2745196307027
 30
0.0
 11
-3675.130485270528
 21
-359.1746192081972
 31
0.0
  0
LINE
  5
83
  8
DEFAULT
 10
-3675.130485270528
 20
-359.1746192081972
 30
0.0
 11
-3675.337592051714
 21
-359.0157005856004
 31
0.0
  0
LINE
  5
84
  8
DEFAULT
 10
-3675.337592051714
 20
-359.0157005856004
 30
0.0
 11
-3675.496510674313
 21
-358.8085938044135
 31
0.0
  0
LINE
  5
85
  8
DEFAULT
 10
-3675.496510674313
 20
-358.8085938044135
 30
0.0
 11
-3675.596411096818
 21
-358.5674128495165
 31
0.0
  0
LINE
  5
86
  8
DEFAULT
 10
-3675.596411096818
 20
-358.5674128495165
 30
0.0
 11
-3675.630485270528
 21
-358.3085938044133
 31
0.0
  0
LINE
  5
87
  8
DEFAULT
 10
-3675.630485270528
 20
-358.3085938044133
 30
0.0
 11
-3675.596411096818
 21
-358.0497747593117
 31
0.0
  0
LINE
  5
88
  8
DEFAULT
 10
-3675.596411096818
 20
-358.0497747593117
 30
0.0
 11
-3675.496510674313
 21
-357.8085938044143
 31
0.0
  0
LINE
  5
89
  8
DEFAULT
 10
-3675.496510674313
 20
-357.8085938044143
 30
0.0
 11
-3675.337592051714
 21
-357.601487023229
 31
0.0
  0
LINE
  5
8A
  8
DEFAULT
 10
-3675.337592051714
 20
-357.601487023229
 30
0.0
 11
-3675.130485270528
 21
-357.4425684006315
 31
0.0
  0
LINE
  5
8B
  8
DEFAULT
 10
-3675.130485270528
 20
-357.4425684006315
 30
0.0
 11
-3674.889304315631
 21
-357.3426679781271
 31
0.0
  0
LINE
  5
8C
  8
DEFAULT
 10
-3674.889304315631
 20
-357.3426679781271
 30
0.0
 11
-3674.630485270529
 21
-357.3085938044151
 31
0.0
  0
LINE
  5
8D
  8
DEFAULT
 10
-3674.630485270529
 20
-357.3085938044151
 30
0.0
 11
-3674.630485270529
 21
-355.3085938044141
 31
0.0
  0
LINE
  5
8E
  8
DEFAULT
 10
-3674.630485270529
 20
-355.3085938044141
 30
0.0
 11
-3662.794294086048
 21
-355.3085938044149
 31
0.0
  0
LINE
  5
8F
  8
DEFAULT
 10
-3662.794294086048
 20
-355.3085938044149
 30
0.0
 11
-3658.738887848455
 21
-338.2222125021829
 31
0.0
  0
LINE
  5
90
  8
DEFAULT
 10
-3658.738887848455
 20
-338.2222125021829
 30
0.0
 11
-3656.401759754263
 21
-336.9168041221996
 31
0.0
  0
LINE
  5
91
  8
DEFAULT
 10
-3656.401759754263
 20
-336.9168041221996
 30
0.0
 11
-3655.616591744031
 21
-333.6087063020769
 31
0.0
  0
LINE
  5
92
  8
DEFAULT
 10
-3655.616591744031
 20
-333.6087063020769
 30
0.0
 11
-3659.176277002663
 21
-332.7638246983418
 31
0.0
  0
LINE
  5
93
  8
DEFAULT
 10
-3659.176277002663
 20
-332.7638246983418
 30
0.0
 11
-3658.529668166996
 21
-330.0395090658977
 31
0.0
  0
LINE
  5
94
  8
DEFAULT
 10
-3658.529668166996
 20
-330.0395090658977
 30
0.0
 11
-3658.773622514031
 21
-329.9465863884458
 31
0.0
  0
LINE
  5
95
  8
DEFAULT
 10
-3658.773622514031
 20
-329.9465863884458
 30
0.0
 11
-3658.98521415962
 21
-329.7936899432983
 31
0.0
  0
LINE
  5
96
  8
DEFAULT
 10
-3658.98521415962
 20
-329.7936899432983
 30
0.0
 11
-3659.150023482788
 21
-329.5912393705198
 31
0.0
  0
LINE
  5
97
  8
DEFAULT
 10
-3659.150023482788
 20
-329.5912393705198
 30
0.0
 11
-3659.256819000523
 21
-329.3530313420793
 31
0.0
  0
LINE
  5
98
  8
DEFAULT
 10
-3659.256819000523
 20
-329.3530313420793
 30
0.0
 11
-3659.298322774779
 21
-329.095299341458
 31
0.0
  0
LINE
  5
99
  8
DEFAULT
 10
-3659.298322774779
 20
-329.095299341458
 30
0.0
 11
-3659.271706391929
 21
-328.8356073785761
 31
0.0
  0
LINE
  5
9A
  8
DEFAULT
 10
-3659.271706391929
 20
-328.8356073785761
 30
0.0
 11
-3659.178783714477
 21
-328.5916530315425
 31
0.0
  0
LINE
  5
9B
  8
DEFAULT
 10
-3659.178783714477
 20
-328.5916530315425
 30
0.0
 11
-3659.025887269329
 21
-328.380061385953
 31
0.0
  0
LINE
  5
9C
  8
DEFAULT
 10
-3659.025887269329
 20
-328.380061385953
 30
0.0
 11
-3658.823436696552
 21
-328.2152520627839
 31
0.0
  0
LINE
  5
9D
  8
DEFAULT
 10
-3658.823436696552
 20
-328.2152520627839
 30
0.0
 11
-3658.58522866811
 21
-328.1084565450496
 31
0.0
  0
LINE
  5
9E
  8
DEFAULT
 10
-3658.58522866811
 20
-328.1084565450496
 30
0.0
 11
-3658.327496667491
 21
-328.0669527707936
 31
0.0
  0
LINE
  5
9F
  8
DEFAULT
 10
-3658.327496667491
 20
-328.0669527707936
 30
0.0
 11
-3658.067804704608
 21
-328.0935691536455
 31
0.0
  0
LINE
  5
A0
  8
DEFAULT
 10
-3658.067804704608
 20
-328.0935691536455
 30
0.0
 11
-3657.83687285993
 21
-327.1205992244489
 31
0.0
  0
LINE
  5
A1
  8
DEFAULT
 10
-3657.83687285993
 20
-327.1205992244489
 30
0.0
 11
-3658.671283739367
 21
-326.3058854899217
 31
0.0
  0
LINE
  5
A2
  8
DEFAULT
 10
-3658.671283739367
 20
-326.3058854899217
 30
0.0
 11
-3669.179358533567
 21
-323.8118225491327
 31
0.0
  0
LINE
  5
A3
  8
DEFAULT
 10
-3669.179358533567
 20
-323.8118225491327
 30
0.0
 11
-3670.290887549008
 21
-324.1646727480576
 31
0.0
  0
LINE
  5
A4
  8
DEFAULT
 10
-3670.290887549008
 20
-324.1646727480576
 30
0.0
 11
-3670.521819320468
 21
-325.1376426946302
 31
0.0
  0
LINE
  5
A5
  8
DEFAULT
 10
-3670.521819320468
 20
-325.1376426946302
 30
0.0
 11
-3670.277864976932
 21
-325.2305653812601
 31
0.0
  0
LINE
  5
A6
  8
DEFAULT
 10
-3670.277864976932
 20
-325.2305653812601
 30
0.0
 11
-3670.066273337095
 21
-325.3834618343681
 31
0.0
  0
LINE
  5
A7
  8
DEFAULT
 10
-3670.066273337095
 20
-325.3834618343681
 30
0.0
 11
-3669.901464021542
 21
-325.5859124133453
 31
0.0
  0
LINE
  5
A8
  8
DEFAULT
 10
-3669.901464021542
 20
-325.5859124133453
 30
0.0
 11
-3669.794668512767
 21
-325.824120445804
 31
0.0
  0
LINE
  5
A9
  8
DEFAULT
 10
-3669.794668512767
 20
-325.824120445804
 30
0.0
 11
-3669.753164748209
 21
-326.0818524479881
 31
0.0
  0
LINE
  5
AA
  8
DEFAULT
 10
-3669.753164748209
 20
-326.0818524479881
 30
0.0
 11
-3669.779781140831
 21
-326.3415444098676
 31
0.0
  0
LINE
  5
AB
  8
DEFAULT
 10
-3669.779781140831
 20
-326.3415444098676
 30
0.0
 11
-3669.87270382746
 21
-326.5854987534063
 31
0.0
  0
LINE
  5
AC
  8
DEFAULT
 10
-3669.87270382746
 20
-326.5854987534063
 30
0.0
 11
-3670.025600280567
 21
-326.7970903932434
 31
0.0
  0
LINE
  5
AD
  8
DEFAULT
 10
-3670.025600280567
 20
-326.7970903932434
 30
0.0
 11
-3670.228050859546
 21
-326.9618997087946
 31
0.0
  0
LINE
  5
AE
  8
DEFAULT
 10
-3670.228050859546
 20
-326.9618997087946
 30
0.0
 11
-3670.466258892005
 21
-327.0686952175674
 31
0.0
  0
LINE
  5
AF
  8
DEFAULT
 10
-3670.466258892005
 20
-327.0686952175674
 30
0.0
 11
-3670.723990894186
 21
-327.1101989821273
 31
0.0
  0
LINE
  5
B0
  8
DEFAULT
 10
-3670.723990894186
 20
-327.1101989821273
 30
0.0
 11
-3670.983682856067
 21
-327.0835825895056
 31
0.0
  0
LINE
  5
B1
  8
DEFAULT
 10
-3670.983682856067
 20
-327.0835825895056
 30
0.0
 11
-3671.630291805913
 21
-329.8078984423386
 31
0.0
  0
LINE
  5
B2
  8
DEFAULT
 10
-3671.630291805913
 20
-329.8078984423386
 30
0.0
 11
-3695.092444902989
 21
-324.2392199083528
 31
0.0
  0
LINE
  5
B3
  8
DEFAULT
 10
-3695.092444902989
 20
-324.2392199083528
 30
0.0
 11
-3695.554308455769
 21
-326.1851597991544
 31
0.0
  0
LINE
  5
B4
  8
DEFAULT
 10
-3695.554308455769
 20
-326.1851597991544
 30
0.0
 11
-3698.278624088107
 21
-325.538550963513
 31
0.0
  0
LINE
  5
B5
  8
DEFAULT
 10
-3698.278624088107
 20
-325.538550963513
 30
0.0
 11
-3698.371546765557
 21
-325.7825053105477
 31
0.0
  0
LINE
  5
B6
  8
DEFAULT
 10
-3698.371546765557
 20
-325.7825053105477
 30
0.0
 11
-3698.524443210706
 21
-325.9940969561369
 31
0.0
  0
LINE
  5
B7
  8
DEFAULT
 10
-3698.524443210706
 20
-325.9940969561369
 30
0.0
 11
-3698.726893783484
 21
-326.1589062793044
 31
0.0
  0
LINE
  5
B8
  8
DEFAULT
 10
-3698.726893783484
 20
-326.1589062793044
 30
0.0
 11
-3698.965101811923
 21
-326.2657017970416
 31
0.0
  0
LINE
  5
B9
  8
DEFAULT
 10
-3698.965101811923
 20
-326.2657017970416
 30
0.0
 11
-3699.222833812546
 21
-326.3072055712971
 31
0.0
  0
LINE
  5
BA
  8
DEFAULT
 10
-3699.222833812546
 20
-326.3072055712971
 30
0.0
 11
-3699.482525775427
 21
-326.2805891884462
 31
0.0
  0
LINE
  5
BB
  8
DEFAULT
 10
-3699.482525775427
 20
-326.2805891884462
 30
0.0
 11
-3699.72648012246
 21
-326.1876665109934
 31
0.0
  0
LINE
  5
BC
  8
DEFAULT
 10
-3699.72648012246
 20
-326.1876665109934
 30
0.0
 11
-3699.938071768049
 21
-326.0347700658461
 31
0.0
  0
LINE
  5
BD
  8
DEFAULT
 10
-3699.938071768049
 20
-326.0347700658461
 30
0.0
 11
-3700.10288109122
 21
-325.8323194930678
 31
0.0
  0
LINE
  5
BE
  8
DEFAULT
 10
-3700.10288109122
 20
-325.8323194930678
 30
0.0
 11
-3700.209676608955
 21
-325.5941114646267
 31
0.0
  0
LINE
  5
BF
  8
DEFAULT
 10
-3700.209676608955
 20
-325.5941114646267
 30
0.0
 11
-3700.25118038321
 21
-325.3363794640063
 31
0.0
  0
LINE
  5
C0
  8
DEFAULT
 10
-3700.25118038321
 20
-325.3363794640063
 30
0.0
 11
-3700.224564000358
 21
-325.0766875011251
 31
0.0
  0
LINE
  5
C1
  8
DEFAULT
 10
-3700.224564000358
 20
-325.0766875011251
 30
0.0
 11
-3701.197533929555
 21
-324.8457556564471
 31
0.0
  0
LINE
  5
C2
  8
DEFAULT
 10
-3701.197533929555
 20
-324.8457556564471
 30
0.0
 11
-3702.012247664083
 21
-325.6801665358836
 31
0.0
  0
LINE
  5
C3
  8
DEFAULT
 10
-3702.012247664083
 20
-325.6801665358836
 30
0.0
 11
-3704.044447052092
 21
-334.242301439283
 31
0.0
  0
LINE
  5
C4
  8
DEFAULT
 10
-3704.044447052092
 20
-334.242301439283
 30
0.0
 11
-3703.691596853167
 21
-335.3538304547239
 31
0.0
  0
LINE
  5
C5
  8
DEFAULT
 10
-3703.691596853167
 20
-335.3538304547239
 30
0.0
 11
-3702.718626906592
 21
-335.5847622261843
 31
0.0
  0
LINE
  5
C6
  8
DEFAULT
 10
-3702.718626906592
 20
-335.5847622261843
 30
0.0
 11
-3702.625704219962
 21
-335.3408078826465
 31
0.0
  0
LINE
  5
C7
  8
DEFAULT
 10
-3702.625704219962
 20
-335.3408078826465
 30
0.0
 11
-3702.472807766856
 21
-335.1292162428097
 31
0.0
  0
LINE
  5
C8
  8
DEFAULT
 10
-3702.472807766856
 20
-335.1292162428097
 30
0.0
 11
-3702.270357187876
 21
-334.9644069272566
 31
0.0
  0
LINE
  5
C9
  8
DEFAULT
 10
-3702.270357187876
 20
-334.9644069272566
 30
0.0
 11
-3702.032149155418
 21
-334.8576114184831
 31
0.0
  0
LINE
  5
CA
  8
DEFAULT
 10
-3702.032149155418
 20
-334.8576114184831
 30
0.0
 11
-3701.774417153236
 21
-334.8161076539238
 31
0.0
  0
LINE
  5
CB
  8
DEFAULT
 10
-3701.774417153236
 20
-334.8161076539238
 30
0.0
 11
-3701.514725191356
 21
-334.8427240465451
 31
0.0
  0
LINE
  5
CC
  8
DEFAULT
 10
-3701.514725191356
 20
-334.8427240465451
 30
0.0
 11
-3701.270770847816
 21
-334.9356467331756
 31
0.0
  0
LINE
  5
CD
  8
DEFAULT
 10
-3701.270770847816
 20
-334.9356467331756
 30
0.0
 11
-3701.05917920798
 21
-335.0885431862823
 31
0.0
  0
LINE
  5
CE
  8
DEFAULT
 10
-3701.05917920798
 20
-335.0885431862823
 30
0.0
 11
-3700.894369892429
 21
-335.2909937652626
 31
0.0
  0
LINE
  5
CF
  8
DEFAULT
 10
-3700.894369892429
 20
-335.2909937652626
 30
0.0
 11
-3700.787574383655
 21
-335.5292017977189
 31
0.0
  0
LINE
  5
D0
  8
DEFAULT
 10
-3700.787574383655
 20
-335.5292017977189
 30
0.0
 11
-3700.746070619095
 21
-335.7869337999019
 31
0.0
  0
LINE
  5
D1
  8
DEFAULT
 10
-3700.746070619095
 20
-335.7869337999019
 30
0.0
 11
-3700.772687011717
 21
-336.0466257617828
 31
0.0
  0
LINE
  5
D2
  8
DEFAULT
 10
-3700.772687011717
 20
-336.0466257617828
 30
0.0
 11
-3698.048371331333
 21
-336.6932346706971
 31
0.0
  0
LINE
  5
D3
  8
DEFAULT
 10
-3698.048371331333
 20
-336.6932346706971
 30
0.0
 11
-3701.773881104506
 21
-352.389683973267
 31
0.0
  0
LINE
  5
D4
  8
DEFAULT
 10
-3701.773881104506
 20
-352.389683973267
 30
0.0
 11
-3699.466676455011
 21
-355.3085938044053
 31
0.0
  0
LINE
  5
D5
  8
DEFAULT
 10
-3699.466676455011
 20
-355.3085938044053
 30
0.0
 11
-3687.630485270529
 21
-355.3085938044046
 31
0.0
  0
LINE
  5
D6
  8
DEFAULT
 10
-3687.630485270529
 20
-355.3085938044046
 30
0.0
 11
-3692.394303166687
 21
-355.3085938044121
 31
0.0
  0
CIRCLE
  5
D8
  8
CUT-INNER
 10
-3669.062526717597
 20
-350.9729698748224
 30
0.0
 40
1.399999999999884
  0
ENDSEC
  0
EOF
