  0
SECTION
  2
HEADER
  9
$ACADVER
  1
AC1009
  9
$DWGCODEPAGE
  3
ansi_1252
  9
$INSBASE
 10
0.0
 20
0.0
 30
0.0
  9
$EXTMIN
 10
-3787.550194209874
 20
-348.1156509951191
 30
0.0
  9
$EXTMAX
 10
-3709.170193594087
 20
-302.7156503865288
 30
0.0
  9
$LIMMIN
 10
0.0
 20
0.0
  9
$LIMMAX
 10
12.0
 20
9.0
  9
$ORTHOMODE
 70
     0
  9
$REGENMODE
 70
     1
  9
$FILLMODE
 70
     1
  9
$QTEXTMODE
 70
     0
  9
$MIRRTEXT
 70
     1
  9
$DRAGMODE
 70
     2
  9
$LTSCALE
 40
1.0
  9
$OSMODE
 70
    37
  9
$ATTMODE
 70
     1
  9
$TEXTSIZE
 40
0.2
  9
$TRACEWID
 40
0.05
  9
$TEXTSTYLE
  7
STANDARD
  9
$CLAYER
  8
DEFAULT
  9
$CELTYPE
  6
BYLAYER
  9
$CECOLOR
 62
   256
  9
$DIMSCALE
 40
1.0
  9
$DIMASZ
 40
0.18
  9
$DIMEXO
 40
0.0625
  9
$DIMDLI
 40
0.38
  9
$DIMRND
 40
0.0
  9
$DIMDLE
 40
0.0
  9
$DIMEXE
 40
0.18
  9
$DIMTP
 40
0.0
  9
$DIMTM
 40
0.0
  9
$DIMTXT
 40
0.18
  9
$DIMCEN
 40
0.09
  9
$DIMTSZ
 40
0.0
  9
$DIMTOL
 70
     0
  9
$DIMLIM
 70
     0
  9
$DIMTIH
 70
     1
  9
$DIMTOH
 70
     1
  9
$DIMSE1
 70
     0
  9
$DIMSE2
 70
     0
  9
$DIMTAD
 70
     0
  9
$DIMZIN
 70
     0
  9
$DIMBLK
  1

  9
$DIMASO
 70
     1
  9
$DIMSHO
 70
     1
  9
$DIMPOST
  1

  9
$DIMAPOST
  1

  9
$DIMALT
 70
     0
  9
$DIMALTD
 70
     2
  9
$DIMALTF
 40
25.4
  9
$DIMLFAC
 40
1.0
  9
$DIMTOFL
 70
     0
  9
$DIMTVP
 40
0.0
  9
$DIMTIX
 70
     0
  9
$DIMSOXD
 70
     0
  9
$DIMSAH
 70
     0
  9
$DIMBLK1
  1

  9
$DIMBLK2
  1

  9
$DIMSTYLE
  2
STANDARD
  9
$DIMCLRD
 70
     0
  9
$DIMCLRE
 70
     0
  9
$DIMCLRT
 70
     0
  9
$DIMTFAC
 40
1.0
  9
$DIMGAP
 40
0.09
  9
$LUNITS
 70
     2
  9
$LUPREC
 70
     2
  9
$SKETCHINC
 40
0.1
  9
$FILLETRAD
 40
0.5
  9
$AUNITS
 70
     0
  9
$AUPREC
 70
     0
  9
$MENU
  1
.
  9
$ELEVATION
 40
0.0
  9
$PELEVATION
 40
0.0
  9
$THICKNESS
 40
0.0
  9
$LIMCHECK
 70
     0
  9
$CHAMFERA
 40
0.0
  9
$CHAMFERB
 40
0.0
  9
$SKPOLY
 70
     0
  9
$TDCREATE
 40
2458062.542114178
  9
$TDUPDATE
 40
2458062.542129155
  9
$TDINDWG
 40
0.0000000116
  9
$TDUSRTIMER
 40
0.0000000116
  9
$USRTIMER
 70
     1
  9
$ANGBASE
 50
0.0
  9
$ANGDIR
 70
     0
  9
$PDMODE
 70
     0
  9
$PDSIZE
 40
0.0
  9
$PLINEWID
 40
0.0
  9
$COORDS
 70
     1
  9
$SPLFRAME
 70
     0
  9
$SPLINETYPE
 70
     6
  9
$SPLINESEGS
 70
     8
  9
$ATTDIA
 70
     0
  9
$ATTREQ
 70
     1
  9
$HANDLING
 70
     1
  9
$HANDSEED
  5
D3
  9
$SURFTAB1
 70
     6
  9
$SURFTAB2
 70
     6
  9
$SURFTYPE
 70
     6
  9
$SURFU
 70
     6
  9
$SURFV
 70
     6
  9
$UCSNAME
  2

  9
$UCSORG
 10
0.0
 20
0.0
 30
0.0
  9
$UCSXDIR
 10
1.0
 20
0.0
 30
0.0
  9
$UCSYDIR
 10
0.0
 20
1.0
 30
0.0
  9
$PUCSNAME
  2

  9
$PUCSORG
 10
0.0
 20
0.0
 30
0.0
  9
$PUCSXDIR
 10
1.0
 20
0.0
 30
0.0
  9
$PUCSYDIR
 10
0.0
 20
1.0
 30
0.0
  9
$USERI1
 70
     0
  9
$USERI2
 70
     0
  9
$USERI3
 70
     0
  9
$USERI4
 70
     0
  9
$USERI5
 70
     0
  9
$USERR1
 40
0.0
  9
$USERR2
 40
0.0
  9
$USERR3
 40
0.0
  9
$USERR4
 40
0.0
  9
$USERR5
 40
0.0
  9
$WORLDVIEW
 70
     1
  9
$SHADEDGE
 70
     3
  9
$SHADEDIF
 70
    70
  9
$TILEMODE
 70
     1
  9
$MAXACTVP
 70
    64
  9
$PLIMCHECK
 70
     0
  9
$PEXTMIN
 10
1.000000000000000E+20
 20
1.000000000000000E+20
 30
1.000000000000000E+20
  9
$PEXTMAX
 10
-1.000000000000000E+20
 20
-1.000000000000000E+20
 30
-1.000000000000000E+20
  9
$PLIMMIN
 10
0.0
 20
0.0
  9
$PLIMMAX
 10
12.0
 20
9.0
  9
$UNITMODE
 70
     0
  9
$VISRETAIN
 70
     1
  9
$PLINEGEN
 70
     0
  9
$PSLTSCALE
 70
     1
  0
ENDSEC
  0
SECTION
  2
TABLES
  0
TABLE
  2
VPORT
 70
     1
  0
VPORT
  2
*ACTIVE
 70
     0
 10
0.0
 20
0.0
 11
1.0
 21
1.0
 12
-3748.360193901981
 22
-325.415650690824
 13
0.0
 23
0.0
 14
0.5
 24
0.5
 15
0.5
 25
0.5
 16
0.0
 26
0.0
 36
1.0
 17
0.0
 27
0.0
 37
0.0
 40
46.30800062076209
 41
1.726431708482326
 42
50.0
 43
0.0
 44
0.0
 50
0.0
 51
0.0
 71
     0
 72
   100
 73
     1
 74
     3
 75
     0
 76
     0
 77
     0
 78
     0
  0
ENDTAB
  0
TABLE
  2
LTYPE
 70
     1
  0
LTYPE
  2
CONTINUOUS
 70
     0
  3
Solid line
 72
    65
 73
     0
 40
0.0
  0
ENDTAB
  0
TABLE
  2
LAYER
 70
     4
  0
LAYER
  2
0
 70
     0
 62
     7
  6
CONTINUOUS
  0
LAYER
  2
CUT-INNER
 70
     0
 62
    30
  6
CONTINUOUS
  0
LAYER
  2
DEFAULT
 70
     0
 62
     7
  6
CONTINUOUS
  0
LAYER
  2
INNER-INNER
 70
     0
 62
   111
  6
CONTINUOUS
  0
ENDTAB
  0
TABLE
  2
STYLE
 70
     1
  0
STYLE
  2
STANDARD
 70
     0
 40
0.0
 41
1.0
 50
0.0
 71
     0
 42
0.2
  3
txt
  4

  0
ENDTAB
  0
TABLE
  2
VIEW
 70
     0
  0
ENDTAB
  0
TABLE
  2
UCS
 70
     0
  0
ENDTAB
  0
TABLE
  2
APPID
 70
     1
  0
APPID
  2
ACAD
 70
     0
  0
ENDTAB
  0
TABLE
  2
DIMSTYLE
 70
     1
  0
DIMSTYLE
  2
STANDARD
 70
     0
  3

  4

  5

  6

  7

 40
1.0
 41
0.18
 42
0.0625
 43
0.38
 44
0.18
 45
0.0
 46
0.0
 47
0.0
 48
0.0
140
0.18
141
0.09
142
0.0
143
25.4
144
1.0
145
0.0
146
1.0
147
0.09
 71
     0
 72
     0
 73
     1
 74
     1
 75
     0
 76
     0
 77
     0
 78
     0
170
     0
171
     2
172
     0
173
     0
174
     0
175
     0
176
     0
177
     0
178
     0
  0
ENDTAB
  0
ENDSEC
  0
SECTION
  2
BLOCKS
  0
BLOCK
  8
0
  2
$MODEL_SPACE
 70
     0
 10
0.0
 20
0.0
 30
0.0
  3
$MODEL_SPACE
  1

  0
ENDBLK
  5
21
  8
0
  0
BLOCK
 67
     1
  8
0
  2
$PAPER_SPACE
 70
     0
 10
0.0
 20
0.0
 30
0.0
  3
$PAPER_SPACE
  1

  0
ENDBLK
  5
1D
 67
     1
  8
0
  0
ENDSEC
  0
SECTION
  2
ENTITIES
  0
LINE
  5
6F
  8
CUT-INNER
 10
-3739.376006355966
 20
-322.215650386529
 30
0.0
 11
-3739.512496352148
 21
-320.6555625913451
 31
0.0
  0
LINE
  5
70
  8
CUT-INNER
 10
-3739.512496352148
 20
-320.6555625913451
 30
0.0
 11
-3739.917819161234
 21
-319.1428772743752
 31
0.0
  0
LINE
  5
71
  8
CUT-INNER
 10
-3739.917819161234
 20
-319.1428772743752
 30
0.0
 11
-3740.579659254768
 21
-317.72355661352
 31
0.0
  0
LINE
  5
72
  8
CUT-INNER
 10
-3740.579659254768
 20
-317.72355661352
 30
0.0
 11
-3741.477906956418
 21
-316.4407259488483
 31
0.0
  0
LINE
  5
73
  8
CUT-INNER
 10
-3741.477906956418
 20
-316.4407259488483
 30
0.0
 11
-3742.585269464303
 21
-315.333363440963
 31
0.0
  0
LINE
  5
74
  8
CUT-INNER
 10
-3742.585269464303
 20
-315.333363440963
 30
0.0
 11
-3743.868100128974
 21
-314.4351157393135
 31
0.0
  0
LINE
  5
75
  8
CUT-INNER
 10
-3743.868100128974
 20
-314.4351157393135
 30
0.0
 11
-3745.287420789829
 21
-313.7732756457792
 31
0.0
  0
LINE
  5
76
  8
CUT-INNER
 10
-3745.287420789829
 20
-313.7732756457792
 30
0.0
 11
-3746.8001061068
 21
-313.3679528366946
 31
0.0
  0
LINE
  5
77
  8
CUT-INNER
 10
-3746.8001061068
 20
-313.3679528366946
 30
0.0
 11
-3748.360193901984
 21
-313.2314628405109
 31
0.0
  0
LINE
  5
78
  8
CUT-INNER
 10
-3748.360193901984
 20
-313.2314628405109
 30
0.0
 11
-3749.920281697167
 21
-313.3679528366946
 31
0.0
  0
LINE
  5
79
  8
CUT-INNER
 10
-3749.920281697167
 20
-313.3679528366946
 30
0.0
 11
-3751.432967014136
 21
-313.7732756457791
 31
0.0
  0
LINE
  5
7A
  8
CUT-INNER
 10
-3751.432967014136
 20
-313.7732756457791
 30
0.0
 11
-3752.852287674992
 21
-314.4351157393134
 31
0.0
  0
LINE
  5
7B
  8
CUT-INNER
 10
-3752.852287674992
 20
-314.4351157393134
 30
0.0
 11
-3754.135118339664
 21
-315.3333634409631
 31
0.0
  0
LINE
  5
7C
  8
CUT-INNER
 10
-3754.135118339664
 20
-315.3333634409631
 30
0.0
 11
-3755.242480847549
 21
-316.4407259488484
 31
0.0
  0
LINE
  5
7D
  8
CUT-INNER
 10
-3755.242480847549
 20
-316.4407259488484
 30
0.0
 11
-3756.140728549198
 21
-317.7235566135198
 31
0.0
  0
LINE
  5
7E
  8
CUT-INNER
 10
-3756.140728549198
 20
-317.7235566135198
 30
0.0
 11
-3756.802568642733
 21
-319.1428772743751
 31
0.0
  0
LINE
  5
7F
  8
CUT-INNER
 10
-3756.802568642733
 20
-319.1428772743751
 30
0.0
 11
-3757.207891451817
 21
-320.655562591345
 31
0.0
  0
LINE
  5
80
  8
CUT-INNER
 10
-3757.207891451817
 20
-320.655562591345
 30
0.0
 11
-3757.344381448002
 21
-322.2156503865287
 31
0.0
  0
LINE
  5
81
  8
CUT-INNER
 10
-3757.344381448002
 20
-322.2156503865287
 30
0.0
 11
-3757.207891451817
 21
-323.7757381817127
 31
0.0
  0
LINE
  5
82
  8
CUT-INNER
 10
-3757.207891451817
 20
-323.7757381817127
 30
0.0
 11
-3756.802568642733
 21
-325.2884234986826
 31
0.0
  0
LINE
  5
83
  8
CUT-INNER
 10
-3756.802568642733
 20
-325.2884234986826
 30
0.0
 11
-3756.140728549198
 21
-326.7077441595378
 31
0.0
  0
LINE
  5
84
  8
CUT-INNER
 10
-3756.140728549198
 20
-326.7077441595378
 30
0.0
 11
-3755.242480847549
 21
-327.9905748242094
 31
0.0
  0
LINE
  5
85
  8
CUT-INNER
 10
-3755.242480847549
 20
-327.9905748242094
 30
0.0
 11
-3754.135118339664
 21
-329.0979373320947
 31
0.0
  0
LINE
  5
86
  8
CUT-INNER
 10
-3754.135118339664
 20
-329.0979373320947
 30
0.0
 11
-3752.852287674992
 21
-329.9961850337443
 31
0.0
  0
LINE
  5
87
  8
CUT-INNER
 10
-3752.852287674992
 20
-329.9961850337443
 30
0.0
 11
-3751.432967014136
 21
-330.6580251272787
 31
0.0
  0
LINE
  5
88
  8
CUT-INNER
 10
-3751.432967014136
 20
-330.6580251272787
 30
0.0
 11
-3749.920281697167
 21
-331.0633479363632
 31
0.0
  0
LINE
  5
89
  8
CUT-INNER
 10
-3749.920281697167
 20
-331.0633479363632
 30
0.0
 11
-3748.360193901984
 21
-331.199837932547
 31
0.0
  0
LINE
  5
8A
  8
CUT-INNER
 10
-3748.360193901984
 20
-331.199837932547
 30
0.0
 11
-3746.8001061068
 21
-331.0633479363632
 31
0.0
  0
LINE
  5
8B
  8
CUT-INNER
 10
-3746.8001061068
 20
-331.0633479363632
 30
0.0
 11
-3745.287420789829
 21
-330.6580251272787
 31
0.0
  0
LINE
  5
8C
  8
CUT-INNER
 10
-3745.287420789829
 20
-330.6580251272787
 30
0.0
 11
-3743.868100128974
 21
-329.9961850337444
 31
0.0
  0
LINE
  5
8D
  8
CUT-INNER
 10
-3743.868100128974
 20
-329.9961850337444
 30
0.0
 11
-3742.585269464303
 21
-329.0979373320948
 31
0.0
  0
LINE
  5
8E
  8
CUT-INNER
 10
-3742.585269464303
 20
-329.0979373320948
 30
0.0
 11
-3741.477906956418
 21
-327.9905748242094
 31
0.0
  0
LINE
  5
8F
  8
CUT-INNER
 10
-3741.477906956418
 20
-327.9905748242094
 30
0.0
 11
-3740.579659254768
 21
-326.707744159538
 31
0.0
  0
LINE
  5
90
  8
CUT-INNER
 10
-3740.579659254768
 20
-326.707744159538
 30
0.0
 11
-3739.917819161234
 21
-325.2884234986827
 31
0.0
  0
LINE
  5
91
  8
CUT-INNER
 10
-3739.917819161234
 20
-325.2884234986827
 30
0.0
 11
-3739.512496352148
 21
-323.7757381817131
 31
0.0
  0
LINE
  5
92
  8
CUT-INNER
 10
-3739.512496352148
 20
-323.7757381817131
 30
0.0
 11
-3739.376006355966
 21
-322.215650386529
 31
0.0
  0
LINE
  5
93
  8
CUT-INNER
 10
-3785.210195318587
 20
-339.155651123781
 30
0.0
 11
-3783.130195318587
 21
-339.1556510884134
 31
0.0
  0
LINE
  5
94
  8
CUT-INNER
 10
-3783.130195318587
 20
-339.1556510884134
 30
0.0
 11
-3783.13019555752
 21
-324.2756510884129
 31
0.0
  0
LINE
  5
95
  8
CUT-INNER
 10
-3783.13019555752
 20
-324.2756510884129
 30
0.0
 11
-3785.21019555752
 21
-324.2756511237804
 31
0.0
  0
LINE
  5
96
  8
CUT-INNER
 10
-3785.21019555752
 20
-324.2756511237804
 30
0.0
 11
-3785.210195318587
 21
-339.155651123781
 31
0.0
  0
LINE
  5
98
  8
DEFAULT
 10
-3709.170193594087
 20
-320.301683929916
 30
0.0
 11
-3709.170194795723
 21
-341.7156511708102
 31
0.0
  0
LINE
  5
99
  8
DEFAULT
 10
-3709.170194795723
 20
-341.7156511708102
 30
0.0
 11
-3741.960194096749
 21
-341.7156510139314
 31
0.0
  0
LINE
  5
9A
  8
DEFAULT
 10
-3741.960194096749
 20
-341.7156510139314
 30
0.0
 11
-3741.960194149424
 21
-344.5156510139335
 31
0.0
  0
LINE
  5
9B
  8
DEFAULT
 10
-3741.960194149424
 20
-344.5156510139335
 30
0.0
 11
-3742.460194151945
 21
-344.6496256007431
 31
0.0
  0
LINE
  5
9C
  8
DEFAULT
 10
-3742.460194151945
 20
-344.6496256007431
 30
0.0
 11
-3742.826219562613
 21
-345.0156509976419
 31
0.0
  0
LINE
  5
9D
  8
DEFAULT
 10
-3742.826219562613
 20
-345.0156509976419
 30
0.0
 11
-3742.960194168234
 21
-345.5156509951208
 31
0.0
  0
LINE
  5
9E
  8
DEFAULT
 10
-3742.960194168234
 20
-345.5156509951208
 30
0.0
 11
-3742.826219581425
 21
-346.0156509976403
 31
0.0
  0
LINE
  5
9F
  8
DEFAULT
 10
-3742.826219581425
 20
-346.0156509976403
 30
0.0
 11
-3742.460194184525
 21
-346.3816764083095
 31
0.0
  0
LINE
  5
A0
  8
DEFAULT
 10
-3742.460194184525
 20
-346.3816764083095
 30
0.0
 11
-3741.960194187046
 21
-346.5156510139303
 31
0.0
  0
LINE
  5
A1
  8
DEFAULT
 10
-3741.960194187046
 20
-346.5156510139303
 30
0.0
 11
-3741.960194209618
 21
-347.5156510139316
 31
0.0
  0
LINE
  5
A2
  8
DEFAULT
 10
-3741.960194209618
 20
-347.5156510139316
 30
0.0
 11
-3742.960194228431
 21
-348.1156509951191
 31
0.0
  0
LINE
  5
A3
  8
DEFAULT
 10
-3742.960194228431
 20
-348.1156509951191
 30
0.0
 11
-3753.760193572557
 21
-348.1156507919475
 31
0.0
  0
LINE
  5
A4
  8
DEFAULT
 10
-3753.760193572557
 20
-348.1156507919475
 30
0.0
 11
-3754.760193553745
 21
-347.5156507731347
 31
0.0
  0
LINE
  5
A5
  8
DEFAULT
 10
-3754.760193553745
 20
-347.5156507731347
 30
0.0
 11
-3754.760193493546
 21
-346.5156507681782
 31
0.0
  0
LINE
  5
A6
  8
DEFAULT
 10
-3754.760193493546
 20
-346.5156507681782
 30
0.0
 11
-3754.260193458441
 21
-346.3816761675108
 31
0.0
  0
LINE
  5
A7
  8
DEFAULT
 10
-3754.260193458441
 20
-346.3816761675108
 30
0.0
 11
-3753.894168061543
 21
-346.0156507568416
 31
0.0
  0
LINE
  5
A8
  8
DEFAULT
 10
-3753.894168061543
 20
-346.0156507568416
 30
0.0
 11
-3753.760193474734
 21
-345.5156507543221
 31
0.0
  0
LINE
  5
A9
  8
DEFAULT
 10
-3753.760193474734
 20
-345.5156507543221
 30
0.0
 11
-3753.894168080355
 21
-345.0156507568432
 31
0.0
  0
LINE
  5
AA
  8
DEFAULT
 10
-3753.894168080355
 20
-345.0156507568432
 30
0.0
 11
-3754.260193491024
 21
-344.6496253599444
 31
0.0
  0
LINE
  5
AB
  8
DEFAULT
 10
-3754.260193491024
 20
-344.6496253599444
 30
0.0
 11
-3754.760193493542
 21
-344.5156507731347
 31
0.0
  0
LINE
  5
AC
  8
DEFAULT
 10
-3754.760193493542
 20
-344.5156507731347
 30
0.0
 11
-3754.760193493542
 21
-341.7156510139314
 31
0.0
  0
LINE
  5
AD
  8
DEFAULT
 10
-3754.760193493542
 20
-341.7156510139314
 30
0.0
 11
-3787.55019300824
 21
-341.7156511708102
 31
0.0
  0
LINE
  5
AE
  8
DEFAULT
 10
-3787.55019300824
 20
-341.7156511708102
 30
0.0
 11
-3787.550194209874
 21
-320.301683929916
 31
0.0
  0
LINE
  5
AF
  8
DEFAULT
 10
-3787.550194209874
 20
-320.301683929916
 30
0.0
 11
-3758.360193901984
 21
-305.39514231084
 31
0.0
  0
LINE
  5
B0
  8
DEFAULT
 10
-3758.360193901984
 20
-305.39514231084
 30
0.0
 11
-3755.200596768496
 21
-303.9217979708106
 31
0.0
  0
LINE
  5
B1
  8
DEFAULT
 10
-3755.200596768496
 20
-303.9217979708106
 30
0.0
 11
-3751.833157455322
 21
-303.0194953262847
 31
0.0
  0
LINE
  5
B2
  8
DEFAULT
 10
-3751.833157455322
 20
-303.0194953262847
 30
0.0
 11
-3748.360193901984
 21
-302.7156503865288
 31
0.0
  0
LINE
  5
B3
  8
DEFAULT
 10
-3748.360193901984
 20
-302.7156503865288
 30
0.0
 11
-3744.887230348645
 21
-303.0194953262847
 31
0.0
  0
LINE
  5
B4
  8
DEFAULT
 10
-3744.887230348645
 20
-303.0194953262847
 30
0.0
 11
-3741.51979103547
 21
-303.9217979708106
 31
0.0
  0
LINE
  5
B5
  8
DEFAULT
 10
-3741.51979103547
 20
-303.9217979708106
 30
0.0
 11
-3738.360193902013
 21
-305.3951423108275
 31
0.0
  0
LINE
  5
B6
  8
DEFAULT
 10
-3738.360193902013
 20
-305.3951423108275
 30
0.0
 11
-3709.170193594087
 21
-320.301683929916
 31
0.0
  0
LINE
  5
B8
  8
INNER-INNER
 10
-3735.390193425602
 20
-339.7156511730358
 30
0.0
 11
-3732.190193425582
 21
-339.7156511735776
 31
0.0
  0
LINE
  5
B9
  8
INNER-INNER
 10
-3732.190193425582
 20
-339.7156511735776
 30
0.0
 11
-3732.190193423511
 21
-328.7156511735776
 31
0.0
  0
LINE
  5
BA
  8
INNER-INNER
 10
-3732.190193423511
 20
-328.7156511735776
 30
0.0
 11
-3735.390193423531
 21
-328.7156511730358
 31
0.0
  0
LINE
  5
BB
  8
INNER-INNER
 10
-3735.390193423531
 20
-328.7156511730358
 30
0.0
 11
-3735.390193425602
 21
-339.7156511730358
 31
0.0
  0
LINE
  5
BC
  8
INNER-INNER
 10
-3761.33019438362
 20
-339.7156511708102
 30
0.0
 11
-3764.530194383642
 21
-339.7156511708102
 31
0.0
  0
LINE
  5
BD
  8
INNER-INNER
 10
-3764.530194383642
 20
-339.7156511708102
 30
0.0
 11
-3764.530194383642
 21
-328.7156511708102
 31
0.0
  0
LINE
  5
BE
  8
INNER-INNER
 10
-3764.530194383642
 20
-328.7156511708102
 30
0.0
 11
-3761.33019438362
 21
-328.7156511708102
 31
0.0
  0
LINE
  5
BF
  8
INNER-INNER
 10
-3761.33019438362
 20
-328.7156511708102
 30
0.0
 11
-3761.33019438362
 21
-339.7156511708102
 31
0.0
  0
LINE
  5
C0
  8
INNER-INNER
 10
-3774.420195318588
 20
-332.9156509002906
 30
0.0
 11
-3771.920195318588
 21
-332.9156509002906
 31
0.0
  0
LINE
  5
C1
  8
INNER-INNER
 10
-3771.920195318588
 20
-332.9156509002906
 30
0.0
 11
-3771.920195318588
 21
-327.9156509002906
 31
0.0
  0
LINE
  5
C2
  8
INNER-INNER
 10
-3771.920195318588
 20
-327.9156509002906
 30
0.0
 11
-3774.420195318588
 21
-327.9156509002906
 31
0.0
  0
LINE
  5
C3
  8
INNER-INNER
 10
-3774.420195318588
 20
-327.9156509002906
 30
0.0
 11
-3774.420195318588
 21
-332.9156509002906
 31
0.0
  0
LINE
  5
C4
  8
INNER-INNER
 10
-3722.300192485378
 20
-332.9156509002906
 30
0.0
 11
-3724.800192485378
 21
-332.9156509002906
 31
0.0
  0
LINE
  5
C5
  8
INNER-INNER
 10
-3724.800192485378
 20
-332.9156509002906
 30
0.0
 11
-3724.800192485378
 21
-327.9156509002906
 31
0.0
  0
LINE
  5
C6
  8
INNER-INNER
 10
-3724.800192485378
 20
-327.9156509002906
 30
0.0
 11
-3722.300192485378
 21
-327.9156509002906
 31
0.0
  0
LINE
  5
C7
  8
INNER-INNER
 10
-3722.300192485378
 20
-327.9156509002906
 30
0.0
 11
-3722.300192485378
 21
-332.9156509002906
 31
0.0
  0
LINE
  5
C8
  8
CUT-INNER
 10
-3711.510192771835
 20
-324.2756496521113
 30
0.0
 11
-3711.5101925329
 21
-339.1556496521119
 31
0.0
  0
LINE
  5
C9
  8
CUT-INNER
 10
-3711.5101925329
 20
-339.1556496521119
 30
0.0
 11
-3713.590192532899
 21
-339.1556496846459
 31
0.0
  0
LINE
  5
CA
  8
CUT-INNER
 10
-3713.590192532899
 20
-339.1556496846459
 30
0.0
 11
-3713.590192771835
 21
-324.2756496846458
 31
0.0
  0
LINE
  5
CB
  8
CUT-INNER
 10
-3713.590192771835
 20
-324.2756496846458
 30
0.0
 11
-3711.510192771835
 21
-324.2756496521113
 31
0.0
  0
ENDSEC
  0
EOF
