  0
SECTION
  2
HEADER
  9
$ACADVER
  1
AC1009
  9
$DWGCODEPAGE
  3
ansi_1252
  9
$INSBASE
 10
0.0
 20
0.0
 30
0.0
  9
$EXTMIN
 10
-3704.044447052092
 20
-397.1439759908257
 30
0.0
  9
$EXTMAX
 10
-3655.616591744031
 20
-359.9472047355439
 30
0.0
  9
$LIMMIN
 10
0.0
 20
0.0
  9
$LIMMAX
 10
12.0
 20
9.0
  9
$ORTHOMODE
 70
     0
  9
$REGENMODE
 70
     1
  9
$FILLMODE
 70
     1
  9
$QTEXTMODE
 70
     0
  9
$MIRRTEXT
 70
     1
  9
$DRAGMODE
 70
     2
  9
$LTSCALE
 40
1.0
  9
$OSMODE
 70
    37
  9
$ATTMODE
 70
     1
  9
$TEXTSIZE
 40
0.2
  9
$TRACEWID
 40
0.05
  9
$TEXTSTYLE
  7
STANDARD
  9
$CLAYER
  8
DEFAULT
  9
$CELTYPE
  6
BYLAYER
  9
$CECOLOR
 62
   256
  9
$DIMSCALE
 40
1.0
  9
$DIMASZ
 40
0.18
  9
$DIMEXO
 40
0.0625
  9
$DIMDLI
 40
0.38
  9
$DIMRND
 40
0.0
  9
$DIMDLE
 40
0.0
  9
$DIMEXE
 40
0.18
  9
$DIMTP
 40
0.0
  9
$DIMTM
 40
0.0
  9
$DIMTXT
 40
0.18
  9
$DIMCEN
 40
0.09
  9
$DIMTSZ
 40
0.0
  9
$DIMTOL
 70
     0
  9
$DIMLIM
 70
     0
  9
$DIMTIH
 70
     1
  9
$DIMTOH
 70
     1
  9
$DIMSE1
 70
     0
  9
$DIMSE2
 70
     0
  9
$DIMTAD
 70
     0
  9
$DIMZIN
 70
     0
  9
$DIMBLK
  1

  9
$DIMASO
 70
     1
  9
$DIMSHO
 70
     1
  9
$DIMPOST
  1

  9
$DIMAPOST
  1

  9
$DIMALT
 70
     0
  9
$DIMALTD
 70
     2
  9
$DIMALTF
 40
25.4
  9
$DIMLFAC
 40
1.0
  9
$DIMTOFL
 70
     0
  9
$DIMTVP
 40
0.0
  9
$DIMTIX
 70
     0
  9
$DIMSOXD
 70
     0
  9
$DIMSAH
 70
     0
  9
$DIMBLK1
  1

  9
$DIMBLK2
  1

  9
$DIMSTYLE
  2
STANDARD
  9
$DIMCLRD
 70
     0
  9
$DIMCLRE
 70
     0
  9
$DIMCLRT
 70
     0
  9
$DIMTFAC
 40
1.0
  9
$DIMGAP
 40
0.09
  9
$LUNITS
 70
     2
  9
$LUPREC
 70
     2
  9
$SKETCHINC
 40
0.1
  9
$FILLETRAD
 40
0.5
  9
$AUNITS
 70
     0
  9
$AUPREC
 70
     0
  9
$MENU
  1
.
  9
$ELEVATION
 40
0.0
  9
$PELEVATION
 40
0.0
  9
$THICKNESS
 40
0.0
  9
$LIMCHECK
 70
     0
  9
$CHAMFERA
 40
0.0
  9
$CHAMFERB
 40
0.0
  9
$SKPOLY
 70
     0
  9
$TDCREATE
 40
2458062.54246522
  9
$TDUPDATE
 40
2458062.542477766
  9
$TDINDWG
 40
0.0000000116
  9
$TDUSRTIMER
 40
0.0000000116
  9
$USRTIMER
 70
     1
  9
$ANGBASE
 50
0.0
  9
$ANGDIR
 70
     0
  9
$PDMODE
 70
     0
  9
$PDSIZE
 40
0.0
  9
$PLINEWID
 40
0.0
  9
$COORDS
 70
     1
  9
$SPLFRAME
 70
     0
  9
$SPLINETYPE
 70
     6
  9
$SPLINESEGS
 70
     8
  9
$ATTDIA
 70
     0
  9
$ATTREQ
 70
     1
  9
$HANDLING
 70
     1
  9
$HANDSEED
  5
E0
  9
$SURFTAB1
 70
     6
  9
$SURFTAB2
 70
     6
  9
$SURFTYPE
 70
     6
  9
$SURFU
 70
     6
  9
$SURFV
 70
     6
  9
$UCSNAME
  2

  9
$UCSORG
 10
0.0
 20
0.0
 30
0.0
  9
$UCSXDIR
 10
1.0
 20
0.0
 30
0.0
  9
$UCSYDIR
 10
0.0
 20
1.0
 30
0.0
  9
$PUCSNAME
  2

  9
$PUCSORG
 10
0.0
 20
0.0
 30
0.0
  9
$PUCSXDIR
 10
1.0
 20
0.0
 30
0.0
  9
$PUCSYDIR
 10
0.0
 20
1.0
 30
0.0
  9
$USERI1
 70
     0
  9
$USERI2
 70
     0
  9
$USERI3
 70
     0
  9
$USERI4
 70
     0
  9
$USERI5
 70
     0
  9
$USERR1
 40
0.0
  9
$USERR2
 40
0.0
  9
$USERR3
 40
0.0
  9
$USERR4
 40
0.0
  9
$USERR5
 40
0.0
  9
$WORLDVIEW
 70
     1
  9
$SHADEDGE
 70
     3
  9
$SHADEDIF
 70
    70
  9
$TILEMODE
 70
     1
  9
$MAXACTVP
 70
    64
  9
$PLIMCHECK
 70
     0
  9
$PEXTMIN
 10
1.000000000000000E+20
 20
1.000000000000000E+20
 30
1.000000000000000E+20
  9
$PEXTMAX
 10
-1.000000000000000E+20
 20
-1.000000000000000E+20
 30
-1.000000000000000E+20
  9
$PLIMMIN
 10
0.0
 20
0.0
  9
$PLIMMAX
 10
12.0
 20
9.0
  9
$UNITMODE
 70
     0
  9
$VISRETAIN
 70
     1
  9
$PLINEGEN
 70
     0
  9
$PSLTSCALE
 70
     1
  0
ENDSEC
  0
SECTION
  2
TABLES
  0
TABLE
  2
VPORT
 70
     1
  0
VPORT
  2
*ACTIVE
 70
     0
 10
0.0
 20
0.0
 11
1.0
 21
1.0
 12
-3679.830519398061
 22
-378.5455903631848
 13
0.0
 23
0.0
 14
0.5
 24
0.5
 15
0.5
 25
0.5
 16
0.0
 26
0.0
 36
1.0
 17
0.0
 27
0.0
 37
0.0
 40
37.94070668038739
 41
1.301937068023983
 42
50.0
 43
0.0
 44
0.0
 50
0.0
 51
0.0
 71
     0
 72
   100
 73
     1
 74
     3
 75
     0
 76
     0
 77
     0
 78
     0
  0
ENDTAB
  0
TABLE
  2
LTYPE
 70
     1
  0
LTYPE
  2
CONTINUOUS
 70
     0
  3
Solid line
 72
    65
 73
     0
 40
0.0
  0
ENDTAB
  0
TABLE
  2
LAYER
 70
     3
  0
LAYER
  2
0
 70
     0
 62
     7
  6
CONTINUOUS
  0
LAYER
  2
CUT-INNER
 70
     0
 62
    30
  6
CONTINUOUS
  0
LAYER
  2
DEFAULT
 70
     0
 62
     7
  6
CONTINUOUS
  0
ENDTAB
  0
TABLE
  2
STYLE
 70
     1
  0
STYLE
  2
STANDARD
 70
     0
 40
0.0
 41
1.0
 50
0.0
 71
     0
 42
0.2
  3
txt
  4

  0
ENDTAB
  0
TABLE
  2
VIEW
 70
     0
  0
ENDTAB
  0
TABLE
  2
UCS
 70
     0
  0
ENDTAB
  0
TABLE
  2
APPID
 70
     1
  0
APPID
  2
ACAD
 70
     0
  0
ENDTAB
  0
TABLE
  2
DIMSTYLE
 70
     1
  0
DIMSTYLE
  2
STANDARD
 70
     0
  3

  4

  5

  6

  7

 40
1.0
 41
0.18
 42
0.0625
 43
0.38
 44
0.18
 45
0.0
 46
0.0
 47
0.0
 48
0.0
140
0.18
141
0.09
142
0.0
143
25.4
144
1.0
145
0.0
146
1.0
147
0.09
 71
     0
 72
     0
 73
     1
 74
     1
 75
     0
 76
     0
 77
     0
 78
     0
170
     0
171
     2
172
     0
173
     0
174
     0
175
     0
176
     0
177
     0
178
     0
  0
ENDTAB
  0
ENDSEC
  0
SECTION
  2
BLOCKS
  0
BLOCK
  8
0
  2
$MODEL_SPACE
 70
     0
 10
0.0
 20
0.0
 30
0.0
  3
$MODEL_SPACE
  1

  0
ENDBLK
  5
21
  8
0
  0
BLOCK
 67
     1
  8
0
  2
$PAPER_SPACE
 70
     0
 10
0.0
 20
0.0
 30
0.0
  3
$PAPER_SPACE
  1

  0
ENDBLK
  5
1D
 67
     1
  8
0
  0
ENDSEC
  0
SECTION
  2
ENTITIES
  0
CIRCLE
  5
6F
  8
CUT-INNER
 10
-3669.062526717597
 20
-387.1083520612336
 30
0.0
 40
1.399999999999884
  0
LINE
  5
71
  8
DEFAULT
 10
-3692.394303166687
 20
-391.4439759908233
 30
0.0
 11
-3687.630485270529
 21
-391.4439759908158
 31
0.0
  0
LINE
  5
72
  8
DEFAULT
 10
-3687.630485270529
 20
-391.4439759908158
 30
0.0
 11
-3687.630485270532
 21
-393.4439759908277
 31
0.0
  0
LINE
  5
73
  8
DEFAULT
 10
-3687.630485270532
 20
-393.4439759908277
 30
0.0
 11
-3687.371666225429
 21
-393.4780501645395
 31
0.0
  0
LINE
  5
74
  8
DEFAULT
 10
-3687.371666225429
 20
-393.4780501645395
 30
0.0
 11
-3687.130485270531
 21
-393.5779505870436
 31
0.0
  0
LINE
  5
75
  8
DEFAULT
 10
-3687.130485270531
 20
-393.5779505870436
 30
0.0
 11
-3686.923378489345
 21
-393.7368692096413
 31
0.0
  0
LINE
  5
76
  8
DEFAULT
 10
-3686.923378489345
 20
-393.7368692096413
 30
0.0
 11
-3686.764459866748
 21
-393.9439759908276
 31
0.0
  0
LINE
  5
77
  8
DEFAULT
 10
-3686.764459866748
 20
-393.9439759908276
 30
0.0
 11
-3686.66455944424
 21
-394.1851569457246
 31
0.0
  0
LINE
  5
78
  8
DEFAULT
 10
-3686.66455944424
 20
-394.1851569457246
 30
0.0
 11
-3686.630485270532
 21
-394.4439759908266
 31
0.0
  0
LINE
  5
79
  8
DEFAULT
 10
-3686.630485270532
 20
-394.4439759908266
 30
0.0
 11
-3686.664559444243
 21
-394.7027950359285
 31
0.0
  0
LINE
  5
7A
  8
DEFAULT
 10
-3686.664559444243
 20
-394.7027950359285
 30
0.0
 11
-3686.764459866746
 21
-394.9439759908263
 31
0.0
  0
LINE
  5
7B
  8
DEFAULT
 10
-3686.764459866746
 20
-394.9439759908263
 30
0.0
 11
-3686.923378489345
 21
-395.1510827720127
 31
0.0
  0
LINE
  5
7C
  8
DEFAULT
 10
-3686.923378489345
 20
-395.1510827720127
 30
0.0
 11
-3687.13048527053
 21
-395.3100013946105
 31
0.0
  0
LINE
  5
7D
  8
DEFAULT
 10
-3687.13048527053
 20
-395.3100013946105
 30
0.0
 11
-3687.371666225429
 21
-395.4099018171145
 31
0.0
  0
LINE
  5
7E
  8
DEFAULT
 10
-3687.371666225429
 20
-395.4099018171145
 30
0.0
 11
-3687.630485270531
 21
-395.4439759908254
 31
0.0
  0
LINE
  5
7F
  8
DEFAULT
 10
-3687.630485270531
 20
-395.4439759908254
 30
0.0
 11
-3687.630485270535
 21
-396.2439759908245
 31
0.0
  0
LINE
  5
80
  8
DEFAULT
 10
-3687.630485270535
 20
-396.2439759908245
 30
0.0
 11
-3686.630485270534
 21
-397.1439759908243
 31
0.0
  0
LINE
  5
81
  8
DEFAULT
 10
-3686.630485270534
 20
-397.1439759908243
 30
0.0
 11
-3675.630485270527
 21
-397.1439759908257
 31
0.0
  0
LINE
  5
82
  8
DEFAULT
 10
-3675.630485270527
 20
-397.1439759908257
 30
0.0
 11
-3674.630485270527
 21
-396.2439759908259
 31
0.0
  0
LINE
  5
83
  8
DEFAULT
 10
-3674.630485270527
 20
-396.2439759908259
 30
0.0
 11
-3674.63048527053
 21
-395.4439759908243
 31
0.0
  0
LINE
  5
84
  8
DEFAULT
 10
-3674.63048527053
 20
-395.4439759908243
 30
0.0
 11
-3674.889304315631
 21
-395.409901817114
 31
0.0
  0
LINE
  5
85
  8
DEFAULT
 10
-3674.889304315631
 20
-395.409901817114
 30
0.0
 11
-3675.130485270528
 21
-395.3100013946084
 31
0.0
  0
LINE
  5
86
  8
DEFAULT
 10
-3675.130485270528
 20
-395.3100013946084
 30
0.0
 11
-3675.337592051714
 21
-395.1510827720116
 31
0.0
  0
LINE
  5
87
  8
DEFAULT
 10
-3675.337592051714
 20
-395.1510827720116
 30
0.0
 11
-3675.496510674313
 21
-394.9439759908248
 31
0.0
  0
LINE
  5
88
  8
DEFAULT
 10
-3675.496510674313
 20
-394.9439759908248
 30
0.0
 11
-3675.596411096818
 21
-394.7027950359277
 31
0.0
  0
LINE
  5
89
  8
DEFAULT
 10
-3675.596411096818
 20
-394.7027950359277
 30
0.0
 11
-3675.630485270528
 21
-394.4439759908245
 31
0.0
  0
LINE
  5
8A
  8
DEFAULT
 10
-3675.630485270528
 20
-394.4439759908245
 30
0.0
 11
-3675.596411096818
 21
-394.1851569457229
 31
0.0
  0
LINE
  5
8B
  8
DEFAULT
 10
-3675.596411096818
 20
-394.1851569457229
 30
0.0
 11
-3675.496510674313
 21
-393.9439759908255
 31
0.0
  0
LINE
  5
8C
  8
DEFAULT
 10
-3675.496510674313
 20
-393.9439759908255
 30
0.0
 11
-3675.337592051714
 21
-393.7368692096402
 31
0.0
  0
LINE
  5
8D
  8
DEFAULT
 10
-3675.337592051714
 20
-393.7368692096402
 30
0.0
 11
-3675.130485270528
 21
-393.5779505870427
 31
0.0
  0
LINE
  5
8E
  8
DEFAULT
 10
-3675.130485270528
 20
-393.5779505870427
 30
0.0
 11
-3674.889304315631
 21
-393.4780501645383
 31
0.0
  0
LINE
  5
8F
  8
DEFAULT
 10
-3674.889304315631
 20
-393.4780501645383
 30
0.0
 11
-3674.630485270529
 21
-393.4439759908263
 31
0.0
  0
LINE
  5
90
  8
DEFAULT
 10
-3674.630485270529
 20
-393.4439759908263
 30
0.0
 11
-3674.630485270529
 21
-391.4439759908253
 31
0.0
  0
LINE
  5
91
  8
DEFAULT
 10
-3674.630485270529
 20
-391.4439759908253
 30
0.0
 11
-3662.794294086048
 21
-391.4439759908261
 31
0.0
  0
LINE
  5
92
  8
DEFAULT
 10
-3662.794294086048
 20
-391.4439759908261
 30
0.0
 11
-3658.738887848455
 21
-374.3575946885941
 31
0.0
  0
LINE
  5
93
  8
DEFAULT
 10
-3658.738887848455
 20
-374.3575946885941
 30
0.0
 11
-3656.401759754263
 21
-373.0521863086108
 31
0.0
  0
LINE
  5
94
  8
DEFAULT
 10
-3656.401759754263
 20
-373.0521863086108
 30
0.0
 11
-3655.616591744031
 21
-369.7440884884881
 31
0.0
  0
LINE
  5
95
  8
DEFAULT
 10
-3655.616591744031
 20
-369.7440884884881
 30
0.0
 11
-3659.176277002663
 21
-368.899206884753
 31
0.0
  0
LINE
  5
96
  8
DEFAULT
 10
-3659.176277002663
 20
-368.899206884753
 30
0.0
 11
-3658.529668166996
 21
-366.174891252309
 31
0.0
  0
LINE
  5
97
  8
DEFAULT
 10
-3658.529668166996
 20
-366.174891252309
 30
0.0
 11
-3658.773622514031
 21
-366.0819685748571
 31
0.0
  0
LINE
  5
98
  8
DEFAULT
 10
-3658.773622514031
 20
-366.0819685748571
 30
0.0
 11
-3658.98521415962
 21
-365.9290721297095
 31
0.0
  0
LINE
  5
99
  8
DEFAULT
 10
-3658.98521415962
 20
-365.9290721297095
 30
0.0
 11
-3659.150023482788
 21
-365.726621556931
 31
0.0
  0
LINE
  5
9A
  8
DEFAULT
 10
-3659.150023482788
 20
-365.726621556931
 30
0.0
 11
-3659.256819000523
 21
-365.4884135284905
 31
0.0
  0
LINE
  5
9B
  8
DEFAULT
 10
-3659.256819000523
 20
-365.4884135284905
 30
0.0
 11
-3659.298322774779
 21
-365.2306815278692
 31
0.0
  0
LINE
  5
9C
  8
DEFAULT
 10
-3659.298322774779
 20
-365.2306815278692
 30
0.0
 11
-3659.271706391929
 21
-364.9709895649873
 31
0.0
  0
LINE
  5
9D
  8
DEFAULT
 10
-3659.271706391929
 20
-364.9709895649873
 30
0.0
 11
-3659.178783714477
 21
-364.7270352179538
 31
0.0
  0
LINE
  5
9E
  8
DEFAULT
 10
-3659.178783714477
 20
-364.7270352179538
 30
0.0
 11
-3659.025887269329
 21
-364.5154435723642
 31
0.0
  0
LINE
  5
9F
  8
DEFAULT
 10
-3659.025887269329
 20
-364.5154435723642
 30
0.0
 11
-3658.823436696552
 21
-364.3506342491951
 31
0.0
  0
LINE
  5
A0
  8
DEFAULT
 10
-3658.823436696552
 20
-364.3506342491951
 30
0.0
 11
-3658.58522866811
 21
-364.2438387314609
 31
0.0
  0
LINE
  5
A1
  8
DEFAULT
 10
-3658.58522866811
 20
-364.2438387314609
 30
0.0
 11
-3658.327496667491
 21
-364.2023349572049
 31
0.0
  0
LINE
  5
A2
  8
DEFAULT
 10
-3658.327496667491
 20
-364.2023349572049
 30
0.0
 11
-3658.067804704608
 21
-364.2289513400568
 31
0.0
  0
LINE
  5
A3
  8
DEFAULT
 10
-3658.067804704608
 20
-364.2289513400568
 30
0.0
 11
-3657.83687285993
 21
-363.2559814108602
 31
0.0
  0
LINE
  5
A4
  8
DEFAULT
 10
-3657.83687285993
 20
-363.2559814108602
 30
0.0
 11
-3658.671283739367
 21
-362.4412676763329
 31
0.0
  0
LINE
  5
A5
  8
DEFAULT
 10
-3658.671283739367
 20
-362.4412676763329
 30
0.0
 11
-3669.179358533567
 21
-359.9472047355439
 31
0.0
  0
LINE
  5
A6
  8
DEFAULT
 10
-3669.179358533567
 20
-359.9472047355439
 30
0.0
 11
-3670.290887549008
 21
-360.3000549344688
 31
0.0
  0
LINE
  5
A7
  8
DEFAULT
 10
-3670.290887549008
 20
-360.3000549344688
 30
0.0
 11
-3670.521819320468
 21
-361.2730248810414
 31
0.0
  0
LINE
  5
A8
  8
DEFAULT
 10
-3670.521819320468
 20
-361.2730248810414
 30
0.0
 11
-3670.277864976932
 21
-361.3659475676713
 31
0.0
  0
LINE
  5
A9
  8
DEFAULT
 10
-3670.277864976932
 20
-361.3659475676713
 30
0.0
 11
-3670.066273337095
 21
-361.5188440207793
 31
0.0
  0
LINE
  5
AA
  8
DEFAULT
 10
-3670.066273337095
 20
-361.5188440207793
 30
0.0
 11
-3669.901464021542
 21
-361.7212945997565
 31
0.0
  0
LINE
  5
AB
  8
DEFAULT
 10
-3669.901464021542
 20
-361.7212945997565
 30
0.0
 11
-3669.794668512767
 21
-361.9595026322152
 31
0.0
  0
LINE
  5
AC
  8
DEFAULT
 10
-3669.794668512767
 20
-361.9595026322152
 30
0.0
 11
-3669.753164748209
 21
-362.2172346343993
 31
0.0
  0
LINE
  5
AD
  8
DEFAULT
 10
-3669.753164748209
 20
-362.2172346343993
 30
0.0
 11
-3669.779781140831
 21
-362.4769265962788
 31
0.0
  0
LINE
  5
AE
  8
DEFAULT
 10
-3669.779781140831
 20
-362.4769265962788
 30
0.0
 11
-3669.87270382746
 21
-362.7208809398176
 31
0.0
  0
LINE
  5
AF
  8
DEFAULT
 10
-3669.87270382746
 20
-362.7208809398176
 30
0.0
 11
-3670.025600280567
 21
-362.9324725796546
 31
0.0
  0
LINE
  5
B0
  8
DEFAULT
 10
-3670.025600280567
 20
-362.9324725796546
 30
0.0
 11
-3670.228050859546
 21
-363.0972818952059
 31
0.0
  0
LINE
  5
B1
  8
DEFAULT
 10
-3670.228050859546
 20
-363.0972818952059
 30
0.0
 11
-3670.466258892005
 21
-363.2040774039786
 31
0.0
  0
LINE
  5
B2
  8
DEFAULT
 10
-3670.466258892005
 20
-363.2040774039786
 30
0.0
 11
-3670.723990894186
 21
-363.2455811685385
 31
0.0
  0
LINE
  5
B3
  8
DEFAULT
 10
-3670.723990894186
 20
-363.2455811685385
 30
0.0
 11
-3670.983682856067
 21
-363.2189647759168
 31
0.0
  0
LINE
  5
B4
  8
DEFAULT
 10
-3670.983682856067
 20
-363.2189647759168
 30
0.0
 11
-3671.630291805913
 21
-365.9432806287498
 31
0.0
  0
LINE
  5
B5
  8
DEFAULT
 10
-3671.630291805913
 20
-365.9432806287498
 30
0.0
 11
-3695.092444902989
 21
-360.374602094764
 31
0.0
  0
LINE
  5
B6
  8
DEFAULT
 10
-3695.092444902989
 20
-360.374602094764
 30
0.0
 11
-3695.554308455769
 21
-362.3205419855656
 31
0.0
  0
LINE
  5
B7
  8
DEFAULT
 10
-3695.554308455769
 20
-362.3205419855656
 30
0.0
 11
-3698.278624088107
 21
-361.6739331499242
 31
0.0
  0
LINE
  5
B8
  8
DEFAULT
 10
-3698.278624088107
 20
-361.6739331499242
 30
0.0
 11
-3698.371546765557
 21
-361.9178874969589
 31
0.0
  0
LINE
  5
B9
  8
DEFAULT
 10
-3698.371546765557
 20
-361.9178874969589
 30
0.0
 11
-3698.524443210706
 21
-362.1294791425481
 31
0.0
  0
LINE
  5
BA
  8
DEFAULT
 10
-3698.524443210706
 20
-362.1294791425481
 30
0.0
 11
-3698.726893783484
 21
-362.2942884657156
 31
0.0
  0
LINE
  5
BB
  8
DEFAULT
 10
-3698.726893783484
 20
-362.2942884657156
 30
0.0
 11
-3698.965101811923
 21
-362.4010839834528
 31
0.0
  0
LINE
  5
BC
  8
DEFAULT
 10
-3698.965101811923
 20
-362.4010839834528
 30
0.0
 11
-3699.222833812546
 21
-362.4425877577083
 31
0.0
  0
LINE
  5
BD
  8
DEFAULT
 10
-3699.222833812546
 20
-362.4425877577083
 30
0.0
 11
-3699.482525775427
 21
-362.4159713748574
 31
0.0
  0
LINE
  5
BE
  8
DEFAULT
 10
-3699.482525775427
 20
-362.4159713748574
 30
0.0
 11
-3699.72648012246
 21
-362.3230486974047
 31
0.0
  0
LINE
  5
BF
  8
DEFAULT
 10
-3699.72648012246
 20
-362.3230486974047
 30
0.0
 11
-3699.938071768049
 21
-362.1701522522573
 31
0.0
  0
LINE
  5
C0
  8
DEFAULT
 10
-3699.938071768049
 20
-362.1701522522573
 30
0.0
 11
-3700.10288109122
 21
-361.967701679479
 31
0.0
  0
LINE
  5
C1
  8
DEFAULT
 10
-3700.10288109122
 20
-361.967701679479
 30
0.0
 11
-3700.209676608955
 21
-361.7294936510379
 31
0.0
  0
LINE
  5
C2
  8
DEFAULT
 10
-3700.209676608955
 20
-361.7294936510379
 30
0.0
 11
-3700.25118038321
 21
-361.4717616504175
 31
0.0
  0
LINE
  5
C3
  8
DEFAULT
 10
-3700.25118038321
 20
-361.4717616504175
 30
0.0
 11
-3700.224564000358
 21
-361.2120696875363
 31
0.0
  0
LINE
  5
C4
  8
DEFAULT
 10
-3700.224564000358
 20
-361.2120696875363
 30
0.0
 11
-3701.197533929555
 21
-360.9811378428583
 31
0.0
  0
LINE
  5
C5
  8
DEFAULT
 10
-3701.197533929555
 20
-360.9811378428583
 30
0.0
 11
-3702.012247664083
 21
-361.8155487222949
 31
0.0
  0
LINE
  5
C6
  8
DEFAULT
 10
-3702.012247664083
 20
-361.8155487222949
 30
0.0
 11
-3704.044447052092
 21
-370.3776836256943
 31
0.0
  0
LINE
  5
C7
  8
DEFAULT
 10
-3704.044447052092
 20
-370.3776836256943
 30
0.0
 11
-3703.691596853167
 21
-371.4892126411351
 31
0.0
  0
LINE
  5
C8
  8
DEFAULT
 10
-3703.691596853167
 20
-371.4892126411351
 30
0.0
 11
-3702.718626906592
 21
-371.7201444125955
 31
0.0
  0
LINE
  5
C9
  8
DEFAULT
 10
-3702.718626906592
 20
-371.7201444125955
 30
0.0
 11
-3702.625704219962
 21
-371.4761900690577
 31
0.0
  0
LINE
  5
CA
  8
DEFAULT
 10
-3702.625704219962
 20
-371.4761900690577
 30
0.0
 11
-3702.472807766856
 21
-371.2645984292209
 31
0.0
  0
LINE
  5
CB
  8
DEFAULT
 10
-3702.472807766856
 20
-371.2645984292209
 30
0.0
 11
-3702.270357187876
 21
-371.0997891136678
 31
0.0
  0
LINE
  5
CC
  8
DEFAULT
 10
-3702.270357187876
 20
-371.0997891136678
 30
0.0
 11
-3702.032149155418
 21
-370.9929936048944
 31
0.0
  0
LINE
  5
CD
  8
DEFAULT
 10
-3702.032149155418
 20
-370.9929936048944
 30
0.0
 11
-3701.774417153236
 21
-370.951489840335
 31
0.0
  0
LINE
  5
CE
  8
DEFAULT
 10
-3701.774417153236
 20
-370.951489840335
 30
0.0
 11
-3701.514725191356
 21
-370.9781062329563
 31
0.0
  0
LINE
  5
CF
  8
DEFAULT
 10
-3701.514725191356
 20
-370.9781062329563
 30
0.0
 11
-3701.270770847816
 21
-371.0710289195868
 31
0.0
  0
LINE
  5
D0
  8
DEFAULT
 10
-3701.270770847816
 20
-371.0710289195868
 30
0.0
 11
-3701.05917920798
 21
-371.2239253726935
 31
0.0
  0
LINE
  5
D1
  8
DEFAULT
 10
-3701.05917920798
 20
-371.2239253726935
 30
0.0
 11
-3700.894369892429
 21
-371.4263759516738
 31
0.0
  0
LINE
  5
D2
  8
DEFAULT
 10
-3700.894369892429
 20
-371.4263759516738
 30
0.0
 11
-3700.787574383655
 21
-371.6645839841302
 31
0.0
  0
LINE
  5
D3
  8
DEFAULT
 10
-3700.787574383655
 20
-371.6645839841302
 30
0.0
 11
-3700.746070619095
 21
-371.9223159863131
 31
0.0
  0
LINE
  5
D4
  8
DEFAULT
 10
-3700.746070619095
 20
-371.9223159863131
 30
0.0
 11
-3700.772687011717
 21
-372.182007948194
 31
0.0
  0
LINE
  5
D5
  8
DEFAULT
 10
-3700.772687011717
 20
-372.182007948194
 30
0.0
 11
-3698.048371331333
 21
-372.8286168571083
 31
0.0
  0
LINE
  5
D6
  8
DEFAULT
 10
-3698.048371331333
 20
-372.8286168571083
 30
0.0
 11
-3701.773881104506
 21
-388.5250661596782
 31
0.0
  0
LINE
  5
D7
  8
DEFAULT
 10
-3701.773881104506
 20
-388.5250661596782
 30
0.0
 11
-3699.466676455011
 21
-391.4439759908166
 31
0.0
  0
LINE
  5
D8
  8
DEFAULT
 10
-3699.466676455011
 20
-391.4439759908166
 30
0.0
 11
-3687.630485270529
 21
-391.4439759908158
 31
0.0
  0
ENDSEC
  0
EOF
