  0
SECTION
  2
HEADER
  9
$ACADVER
  1
AC1009
  9
$DWGCODEPAGE
  3
ansi_1252
  9
$INSBASE
 10
0.0
 20
0.0
 30
0.0
  9
$EXTMIN
 10
-3850.284975960763
 20
-323.1089373389889
 30
0.0
  9
$EXTMAX
 10
-3819.284975961337
 20
-246.00893689403
 30
0.0000000000000002
  9
$LIMMIN
 10
0.0
 20
0.0
  9
$LIMMAX
 10
12.0
 20
9.0
  9
$ORTHOMODE
 70
     0
  9
$REGENMODE
 70
     1
  9
$FILLMODE
 70
     1
  9
$QTEXTMODE
 70
     0
  9
$MIRRTEXT
 70
     1
  9
$DRAGMODE
 70
     2
  9
$LTSCALE
 40
1.0
  9
$OSMODE
 70
    37
  9
$ATTMODE
 70
     1
  9
$TEXTSIZE
 40
0.2
  9
$TRACEWID
 40
0.05
  9
$TEXTSTYLE
  7
STANDARD
  9
$CLAYER
  8
DEFAULT
  9
$CELTYPE
  6
BYLAYER
  9
$CECOLOR
 62
   256
  9
$DIMSCALE
 40
1.0
  9
$DIMASZ
 40
0.18
  9
$DIMEXO
 40
0.0625
  9
$DIMDLI
 40
0.38
  9
$DIMRND
 40
0.0
  9
$DIMDLE
 40
0.0
  9
$DIMEXE
 40
0.18
  9
$DIMTP
 40
0.0
  9
$DIMTM
 40
0.0
  9
$DIMTXT
 40
0.18
  9
$DIMCEN
 40
0.09
  9
$DIMTSZ
 40
0.0
  9
$DIMTOL
 70
     0
  9
$DIMLIM
 70
     0
  9
$DIMTIH
 70
     1
  9
$DIMTOH
 70
     1
  9
$DIMSE1
 70
     0
  9
$DIMSE2
 70
     0
  9
$DIMTAD
 70
     0
  9
$DIMZIN
 70
     0
  9
$DIMBLK
  1

  9
$DIMASO
 70
     1
  9
$DIMSHO
 70
     1
  9
$DIMPOST
  1

  9
$DIMAPOST
  1

  9
$DIMALT
 70
     0
  9
$DIMALTD
 70
     2
  9
$DIMALTF
 40
25.4
  9
$DIMLFAC
 40
1.0
  9
$DIMTOFL
 70
     0
  9
$DIMTVP
 40
0.0
  9
$DIMTIX
 70
     0
  9
$DIMSOXD
 70
     0
  9
$DIMSAH
 70
     0
  9
$DIMBLK1
  1

  9
$DIMBLK2
  1

  9
$DIMSTYLE
  2
STANDARD
  9
$DIMCLRD
 70
     0
  9
$DIMCLRE
 70
     0
  9
$DIMCLRT
 70
     0
  9
$DIMTFAC
 40
1.0
  9
$DIMGAP
 40
0.09
  9
$LUNITS
 70
     2
  9
$LUPREC
 70
     2
  9
$SKETCHINC
 40
0.1
  9
$FILLETRAD
 40
0.5
  9
$AUNITS
 70
     0
  9
$AUPREC
 70
     0
  9
$MENU
  1
.
  9
$ELEVATION
 40
0.0
  9
$PELEVATION
 40
0.0
  9
$THICKNESS
 40
0.0
  9
$LIMCHECK
 70
     0
  9
$CHAMFERA
 40
0.0
  9
$CHAMFERB
 40
0.0
  9
$SKPOLY
 70
     0
  9
$TDCREATE
 40
2458062.54266419
  9
$TDUPDATE
 40
2458062.542680822
  9
$TDINDWG
 40
0.0000000116
  9
$TDUSRTIMER
 40
0.0000000116
  9
$USRTIMER
 70
     1
  9
$ANGBASE
 50
0.0
  9
$ANGDIR
 70
     0
  9
$PDMODE
 70
     0
  9
$PDSIZE
 40
0.0
  9
$PLINEWID
 40
0.0
  9
$COORDS
 70
     1
  9
$SPLFRAME
 70
     0
  9
$SPLINETYPE
 70
     6
  9
$SPLINESEGS
 70
     8
  9
$ATTDIA
 70
     0
  9
$ATTREQ
 70
     1
  9
$HANDLING
 70
     1
  9
$HANDSEED
  5
BC
  9
$SURFTAB1
 70
     6
  9
$SURFTAB2
 70
     6
  9
$SURFTYPE
 70
     6
  9
$SURFU
 70
     6
  9
$SURFV
 70
     6
  9
$UCSNAME
  2

  9
$UCSORG
 10
0.0
 20
0.0
 30
0.0
  9
$UCSXDIR
 10
1.0
 20
0.0
 30
0.0
  9
$UCSYDIR
 10
0.0
 20
1.0
 30
0.0
  9
$PUCSNAME
  2

  9
$PUCSORG
 10
0.0
 20
0.0
 30
0.0
  9
$PUCSXDIR
 10
1.0
 20
0.0
 30
0.0
  9
$PUCSYDIR
 10
0.0
 20
1.0
 30
0.0
  9
$USERI1
 70
     0
  9
$USERI2
 70
     0
  9
$USERI3
 70
     0
  9
$USERI4
 70
     0
  9
$USERI5
 70
     0
  9
$USERR1
 40
0.0
  9
$USERR2
 40
0.0
  9
$USERR3
 40
0.0
  9
$USERR4
 40
0.0
  9
$USERR5
 40
0.0
  9
$WORLDVIEW
 70
     1
  9
$SHADEDGE
 70
     3
  9
$SHADEDIF
 70
    70
  9
$TILEMODE
 70
     1
  9
$MAXACTVP
 70
    64
  9
$PLIMCHECK
 70
     0
  9
$PEXTMIN
 10
1.000000000000000E+20
 20
1.000000000000000E+20
 30
1.000000000000000E+20
  9
$PEXTMAX
 10
-1.000000000000000E+20
 20
-1.000000000000000E+20
 30
-1.000000000000000E+20
  9
$PLIMMIN
 10
0.0
 20
0.0
  9
$PLIMMAX
 10
12.0
 20
9.0
  9
$UNITMODE
 70
     0
  9
$VISRETAIN
 70
     1
  9
$PLINEGEN
 70
     0
  9
$PSLTSCALE
 70
     1
  0
ENDSEC
  0
SECTION
  2
TABLES
  0
TABLE
  2
VPORT
 70
     1
  0
VPORT
  2
*ACTIVE
 70
     0
 10
0.0
 20
0.0
 11
1.0
 21
1.0
 12
-3834.78497596105
 22
-284.5589371165095
 13
0.0
 23
0.0
 14
0.5
 24
0.5
 15
0.5
 25
0.5
 16
0.0
 26
0.0
 36
1.0
 17
0.0
 27
0.0
 37
0.0
 40
78.642000453858
 41
0.4020752246500544
 42
50.0
 43
0.0
 44
0.0
 50
0.0
 51
0.0
 71
     0
 72
   100
 73
     1
 74
     3
 75
     0
 76
     0
 77
     0
 78
     0
  0
ENDTAB
  0
TABLE
  2
LTYPE
 70
     1
  0
LTYPE
  2
CONTINUOUS
 70
     0
  3
Solid line
 72
    65
 73
     0
 40
0.0
  0
ENDTAB
  0
TABLE
  2
LAYER
 70
     3
  0
LAYER
  2
0
 70
     0
 62
     7
  6
CONTINUOUS
  0
LAYER
  2
DEFAULT
 70
     0
 62
     7
  6
CONTINUOUS
  0
LAYER
  2
CUT
 70
     0
 62
    15
  6
CONTINUOUS
  0
ENDTAB
  0
TABLE
  2
STYLE
 70
     1
  0
STYLE
  2
STANDARD
 70
     0
 40
0.0
 41
1.0
 50
0.0
 71
     0
 42
0.2
  3
txt
  4

  0
ENDTAB
  0
TABLE
  2
VIEW
 70
     0
  0
ENDTAB
  0
TABLE
  2
UCS
 70
     0
  0
ENDTAB
  0
TABLE
  2
APPID
 70
     1
  0
APPID
  2
ACAD
 70
     0
  0
ENDTAB
  0
TABLE
  2
DIMSTYLE
 70
     1
  0
DIMSTYLE
  2
STANDARD
 70
     0
  3

  4

  5

  6

  7

 40
1.0
 41
0.18
 42
0.0625
 43
0.38
 44
0.18
 45
0.0
 46
0.0
 47
0.0
 48
0.0
140
0.18
141
0.09
142
0.0
143
25.4
144
1.0
145
0.0
146
1.0
147
0.09
 71
     0
 72
     0
 73
     1
 74
     1
 75
     0
 76
     0
 77
     0
 78
     0
170
     0
171
     2
172
     0
173
     0
174
     0
175
     0
176
     0
177
     0
178
     0
  0
ENDTAB
  0
ENDSEC
  0
SECTION
  2
BLOCKS
  0
BLOCK
  8
0
  2
$MODEL_SPACE
 70
     0
 10
0.0
 20
0.0
 30
0.0
  3
$MODEL_SPACE
  1

  0
ENDBLK
  5
21
  8
0
  0
BLOCK
 67
     1
  8
0
  2
$PAPER_SPACE
 70
     0
 10
0.0
 20
0.0
 30
0.0
  3
$PAPER_SPACE
  1

  0
ENDBLK
  5
1D
 67
     1
  8
0
  0
ENDSEC
  0
SECTION
  2
ENTITIES
  0
LINE
  5
6F
  8
DEFAULT
 10
-3826.144162597869
 20
-287.4339373706737
 30
0.0
 11
-3823.284975961349
 21
-287.4339373706755
 31
0.0
  0
LINE
  5
70
  8
DEFAULT
 10
-3823.284975961349
 20
-287.4339373706755
 30
0.0
 11
-3823.284975961348
 21
-293.4089365630864
 31
0.0
  0
LINE
  5
71
  8
DEFAULT
 10
-3823.284975961348
 20
-293.4089365630864
 30
0.0
 11
-3825.845583941169
 21
-293.3976881273711
 31
0.0
  0
LINE
  5
72
  8
DEFAULT
 10
-3825.845583941169
 20
-293.3976881273711
 30
0.0
 11
-3825.55857596136
 21
-304.6089373389889
 31
0.0
  0
LINE
  5
73
  8
DEFAULT
 10
-3825.55857596136
 20
-304.6089373389889
 30
0.0
 11
-3823.284975961337
 21
-304.6089373389889
 31
0.0
  0
LINE
  5
74
  8
DEFAULT
 10
-3823.284975961337
 20
-304.6089373389889
 30
0.0
 11
-3822.880989516942
 21
-305.4119117106441
 31
0.0
  0
LINE
  5
75
  8
DEFAULT
 10
-3822.880989516942
 20
-305.4119117106441
 30
0.0
 11
-3822.284975961337
 21
-305.6089373389889
 31
0.0
  0
LINE
  5
76
  8
DEFAULT
 10
-3822.284975961337
 20
-305.6089373389889
 30
0.0
 11
-3821.562088795422
 21
-305.2999034346524
 31
0.0
  0
LINE
  5
77
  8
DEFAULT
 10
-3821.562088795422
 20
-305.2999034346524
 30
0.0
 11
-3821.284975961337
 21
-304.6089373389889
 31
0.0
  0
LINE
  5
78
  8
DEFAULT
 10
-3821.284975961337
 20
-304.6089373389889
 30
0.0
 11
-3820.284975961337
 21
-304.6089373389862
 31
0.0
  0
LINE
  5
79
  8
DEFAULT
 10
-3820.284975961337
 20
-304.6089373389862
 30
0.0
 11
-3819.284975961337
 21
-305.6089373389862
 31
0.0
  0
LINE
  5
7A
  8
DEFAULT
 10
-3819.284975961337
 20
-305.6089373389862
 30
0.0
 11
-3819.284975961337
 21
-317.6089373389916
 31
0.0
  0
LINE
  5
7B
  8
DEFAULT
 10
-3819.284975961337
 20
-317.6089373389916
 30
0.0
 11
-3820.284975961337
 21
-318.6089373389916
 31
0.0
  0
LINE
  5
7C
  8
DEFAULT
 10
-3820.284975961337
 20
-318.6089373389916
 30
0.0
 11
-3821.284975961337
 21
-318.6089373389889
 31
0.0
  0
LINE
  5
7D
  8
DEFAULT
 10
-3821.284975961337
 20
-318.6089373389889
 30
0.0
 11
-3821.634874972574
 21
-317.8490895223779
 31
0.0
  0
LINE
  5
7E
  8
DEFAULT
 10
-3821.634874972574
 20
-317.8490895223779
 30
0.0
 11
-3822.284975961337
 21
-317.6089373389889
 31
0.0
  0
LINE
  5
7F
  8
DEFAULT
 10
-3822.284975961337
 20
-317.6089373389889
 30
0.0
 11
-3822.817219910775
 21
-317.7623463053208
 31
0.0
  0
LINE
  5
80
  8
DEFAULT
 10
-3822.817219910775
 20
-317.7623463053208
 30
0.0
 11
-3823.284975961337
 21
-318.6089373389889
 31
0.0
  0
LINE
  5
81
  8
DEFAULT
 10
-3823.284975961337
 20
-318.6089373389889
 30
0.0
 11
-3825.200175961373
 21
-318.6089373389889
 31
0.0
  0
LINE
  5
82
  8
DEFAULT
 10
-3825.200175961373
 20
-318.6089373389889
 30
0.0
 11
-3825.084975961377
 21
-323.1089373389889
 31
0.0
  0
LINE
  5
83
  8
DEFAULT
 10
-3825.084975961377
 20
-323.1089373389889
 30
0.0
 11
-3830.284975961376
 21
-323.1089373389889
 31
0.0
  0
LINE
  5
84
  8
DEFAULT
 10
-3830.284975961376
 20
-323.1089373389889
 30
0.0
 11
-3844.266144917231
 21
-315.2933953945087
 31
0.0
  0
LINE
  5
85
  8
DEFAULT
 10
-3844.266144917231
 20
-315.2933953945087
 30
0.0
 11
-3848.784975961376
 21
-289.9206342928139
 31
0.0
  0
LINE
  5
86
  8
DEFAULT
 10
-3848.784975961376
 20
-289.9206342928139
 30
0.0
 11
-3848.784975961376
 21
-287.2314363376975
 31
0.0
  0
LINE
  5
87
  8
DEFAULT
 10
-3848.784975961376
 20
-287.2314363376975
 30
0.0
 11
-3850.284975960763
 21
-286.030475184167
 31
0.0
  0
LINE
  5
88
  8
DEFAULT
 10
-3850.284975960763
 20
-286.030475184167
 30
0.0
 11
-3850.284975960763
 21
-282.1873994938126
 31
0.0
  0
LINE
  5
89
  8
DEFAULT
 10
-3850.284975960763
 20
-282.1873994938126
 30
0.0
 11
-3848.784975961376
 21
-280.9864383402803
 31
0.0
  0
LINE
  5
8A
  8
DEFAULT
 10
-3848.784975961376
 20
-280.9864383402803
 30
0.0
 11
-3848.784975961376
 21
-252.6089368940304
 31
0.0
  0
LINE
  5
8B
  8
DEFAULT
 10
-3848.784975961376
 20
-252.6089368940304
 30
0.0
 11
-3843.784975961376
 21
-252.6089368940304
 31
0.0
  0
LINE
  5
8C
  8
DEFAULT
 10
-3843.784975961376
 20
-252.6089368940304
 30
0.0
 11
-3843.784975961376
 21
-250.00893689403
 31
0.0
  0
LINE
  5
8D
  8
DEFAULT
 10
-3843.784975961376
 20
-250.00893689403
 30
0.0
 11
-3843.081031991575
 21
-249.7191924025485
 31
0.0
  0
LINE
  5
8E
  8
DEFAULT
 10
-3843.081031991575
 20
-249.7191924025485
 30
0.0
 11
-3842.784975961376
 21
-249.00893689403
 31
0.0
  0
LINE
  5
8F
  8
DEFAULT
 10
-3842.784975961376
 20
-249.00893689403
 30
0.0
 11
-3843.085786431732
 21
-248.2940005320827
 31
0.0
  0
LINE
  5
90
  8
DEFAULT
 10
-3843.085786431732
 20
-248.2940005320827
 30
0.0
 11
-3843.784975961376
 21
-248.00893689403
 31
0.0
  0
LINE
  5
91
  8
DEFAULT
 10
-3843.784975961376
 20
-248.00893689403
 30
0.0
 11
-3843.784975961379
 21
-247.00893689403
 31
0.0
  0
LINE
  5
92
  8
DEFAULT
 10
-3843.784975961379
 20
-247.00893689403
 30
0.0
 11
-3842.784975961379
 21
-246.00893689403
 31
0.0
  0
LINE
  5
93
  8
DEFAULT
 10
-3842.784975961379
 20
-246.00893689403
 30
0.0
 11
-3829.784975961375
 21
-246.00893689403
 31
0.0
  0
LINE
  5
94
  8
DEFAULT
 10
-3829.784975961375
 20
-246.00893689403
 30
0.0
 11
-3828.784975961373
 21
-247.00893689403
 31
0.0
  0
LINE
  5
95
  8
DEFAULT
 10
-3828.784975961373
 20
-247.00893689403
 30
0.0
 11
-3828.784975961377
 21
-248.00893689403
 31
0.0
  0
LINE
  5
96
  8
DEFAULT
 10
-3828.784975961377
 20
-248.00893689403
 30
0.0
 11
-3829.396501071528
 21
-248.2177118693646
 31
0.0
  0
LINE
  5
97
  8
DEFAULT
 10
-3829.396501071528
 20
-248.2177118693646
 30
0.0
 11
-3829.784975961377
 21
-249.00893689403
 31
0.0
  0
LINE
  5
98
  8
DEFAULT
 10
-3829.784975961377
 20
-249.00893689403
 30
0.0
 11
-3829.521960069653
 21
-249.6848469650815
 31
0.0
  0
LINE
  5
99
  8
DEFAULT
 10
-3829.521960069653
 20
-249.6848469650815
 30
0.0
 11
-3828.784975961377
 21
-250.00893689403
 31
0.0
  0
LINE
  5
9A
  8
DEFAULT
 10
-3828.784975961377
 20
-250.00893689403
 30
0.0
 11
-3828.784975961376
 21
-252.6089368940304
 31
0.0
  0
LINE
  5
9B
  8
DEFAULT
 10
-3828.784975961376
 20
-252.6089368940304
 30
0.0
 11
-3826.284975961376
 21
-252.6089368940304
 31
0.0
  0
LINE
  5
9C
  8
DEFAULT
 10
-3826.284975961376
 20
-252.6089368940304
 30
0.0
 11
-3826.284975961356
 21
-262.2339373389889
 31
0.0
  0
LINE
  5
9D
  8
DEFAULT
 10
-3826.284975961356
 20
-262.2339373389889
 30
0.0
 11
-3823.284975961337
 21
-262.2339373389889
 31
0.0
  0
LINE
  5
9E
  8
DEFAULT
 10
-3823.284975961337
 20
-262.2339373389889
 30
0.0
 11
-3822.94015668669
 21
-262.9894095205584
 31
0.0
  0
LINE
  5
9F
  8
DEFAULT
 10
-3822.94015668669
 20
-262.9894095205584
 30
0.0
 11
-3822.284975961337
 21
-263.2339373389889
 31
0.0
  0
LINE
  5
A0
  8
DEFAULT
 10
-3822.284975961337
 20
-263.2339373389889
 30
0.0
 11
-3821.574235905037
 21
-262.9373920798027
 31
0.0
  0
LINE
  5
A1
  8
DEFAULT
 10
-3821.574235905037
 20
-262.9373920798027
 30
0.0
 11
-3821.284975961337
 21
-262.2339373389889
 31
0.0
  0
LINE
  5
A2
  8
DEFAULT
 10
-3821.284975961337
 20
-262.2339373389889
 30
0.0
 11
-3820.284975961337
 21
-262.2339373389862
 31
0.0
  0
LINE
  5
A3
  8
DEFAULT
 10
-3820.284975961337
 20
-262.2339373389862
 30
0.0
 11
-3819.284975961337
 21
-263.2339373389862
 31
0.0
  0
LINE
  5
A4
  8
DEFAULT
 10
-3819.284975961337
 20
-263.2339373389862
 30
0.0
 11
-3819.284975961337
 21
-275.2339373389916
 31
0.0
  0
LINE
  5
A5
  8
DEFAULT
 10
-3819.284975961337
 20
-275.2339373389916
 30
0.0
 11
-3820.284975961337
 21
-276.2339373389916
 31
0.0
  0
LINE
  5
A6
  8
DEFAULT
 10
-3820.284975961337
 20
-276.2339373389916
 30
0.0
 11
-3821.284975961337
 21
-276.2339373389889
 31
0.0
  0
LINE
  5
A7
  8
DEFAULT
 10
-3821.284975961337
 20
-276.2339373389889
 30
0.0
 11
-3821.639415772421
 21
-275.4702279423675
 31
0.0
  0
LINE
  5
A8
  8
DEFAULT
 10
-3821.639415772421
 20
-275.4702279423675
 30
0.0
 11
-3822.284975961337
 21
-275.2339373389898
 31
0.0
  0
LINE
  5
A9
  8
DEFAULT
 10
-3822.284975961337
 20
-275.2339373389898
 30
0.0
 11
-3822.878853513589
 21
-275.4293819009183
 31
0.0
  0
LINE
  5
AA
  8
DEFAULT
 10
-3822.878853513589
 20
-275.4293819009183
 30
0.0
 11
-3823.284975961337
 21
-276.2339373389889
 31
0.0
  0
LINE
  5
AB
  8
DEFAULT
 10
-3823.284975961337
 20
-276.2339373389889
 30
0.0
 11
-3826.284975961337
 21
-276.2339373389889
 31
0.0
  0
LINE
  5
AC
  8
DEFAULT
 10
-3826.284975961337
 20
-276.2339373389889
 30
0.0
 11
-3826.144162597869
 21
-287.4339373706737
 31
0.0
  0
CIRCLE
  5
AE
  8
CUT
 10
-3846.284975960762
 20
-284.1089373389889
 30
0.0000000000000002
 40
1.75
  0
CIRCLE
  5
AF
  8
CUT
 10
-3837.534975960762
 20
-263.1089373389898
 30
0.0000000000000001
 40
3.5
  0
CIRCLE
  5
B0
  8
CUT
 10
-3837.534975960762
 20
-274.8589373389889
 30
0.0000000000000001
 40
2.0
  0
LINE
  5
B1
  8
CUT
 10
-3841.284975961376
 20
-293.1089373389889
 30
0.0000000000000001
 11
-3841.284975961376
 21
-297.1089373389889
 31
0.0000000000000001
  0
LINE
  5
B2
  8
CUT
 10
-3841.284975961376
 20
-297.1089373389889
 30
0.0000000000000001
 11
-3834.284975961376
 21
-297.1089373389889
 31
0.0000000000000001
  0
LINE
  5
B3
  8
CUT
 10
-3834.284975961376
 20
-297.1089373389889
 30
0.0000000000000001
 11
-3834.284975961376
 21
-293.1089373389889
 31
0.0000000000000001
  0
LINE
  5
B4
  8
CUT
 10
-3834.284975961376
 20
-293.1089373389889
 30
0.0000000000000001
 11
-3841.284975961376
 21
-293.1089373389889
 31
0.0000000000000001
  0
ENDSEC
  0
EOF
