  0
SECTION
  2
HEADER
  9
$ACADVER
  1
AC1009
  9
$DWGCODEPAGE
  3
ansi_1252
  9
$INSBASE
 10
0.0
 20
0.0
 30
0.0
  9
$EXTMIN
 10
-787.1678235376006
 20
-113.9019930584149
 30
-0.0000000000000003
  9
$EXTMAX
 10
-739.4129501456417
 20
-47.29496751177468
 30
0.0
  9
$LIMMIN
 10
0.0
 20
0.0
  9
$LIMMAX
 10
12.0
 20
9.0
  9
$ORTHOMODE
 70
     0
  9
$REGENMODE
 70
     1
  9
$FILLMODE
 70
     1
  9
$QTEXTMODE
 70
     0
  9
$MIRRTEXT
 70
     1
  9
$DRAGMODE
 70
     2
  9
$LTSCALE
 40
1.0
  9
$OSMODE
 70
    37
  9
$ATTMODE
 70
     1
  9
$TEXTSIZE
 40
0.2
  9
$TRACEWID
 40
0.05
  9
$TEXTSTYLE
  7
STANDARD
  9
$CLAYER
  8
DEFAULT
  9
$CELTYPE
  6
BYLAYER
  9
$CECOLOR
 62
   256
  9
$DIMSCALE
 40
1.0
  9
$DIMASZ
 40
0.18
  9
$DIMEXO
 40
0.0625
  9
$DIMDLI
 40
0.38
  9
$DIMRND
 40
0.0
  9
$DIMDLE
 40
0.0
  9
$DIMEXE
 40
0.18
  9
$DIMTP
 40
0.0
  9
$DIMTM
 40
0.0
  9
$DIMTXT
 40
0.18
  9
$DIMCEN
 40
0.09
  9
$DIMTSZ
 40
0.0
  9
$DIMTOL
 70
     0
  9
$DIMLIM
 70
     0
  9
$DIMTIH
 70
     1
  9
$DIMTOH
 70
     1
  9
$DIMSE1
 70
     0
  9
$DIMSE2
 70
     0
  9
$DIMTAD
 70
     0
  9
$DIMZIN
 70
     0
  9
$DIMBLK
  1

  9
$DIMASO
 70
     1
  9
$DIMSHO
 70
     1
  9
$DIMPOST
  1

  9
$DIMAPOST
  1

  9
$DIMALT
 70
     0
  9
$DIMALTD
 70
     2
  9
$DIMALTF
 40
25.4
  9
$DIMLFAC
 40
1.0
  9
$DIMTOFL
 70
     0
  9
$DIMTVP
 40
0.0
  9
$DIMTIX
 70
     0
  9
$DIMSOXD
 70
     0
  9
$DIMSAH
 70
     0
  9
$DIMBLK1
  1

  9
$DIMBLK2
  1

  9
$DIMSTYLE
  2
STANDARD
  9
$DIMCLRD
 70
     0
  9
$DIMCLRE
 70
     0
  9
$DIMCLRT
 70
     0
  9
$DIMTFAC
 40
1.0
  9
$DIMGAP
 40
0.09
  9
$LUNITS
 70
     2
  9
$LUPREC
 70
     2
  9
$SKETCHINC
 40
0.1
  9
$FILLETRAD
 40
0.5
  9
$AUNITS
 70
     0
  9
$AUPREC
 70
     0
  9
$MENU
  1
.
  9
$ELEVATION
 40
0.0
  9
$PELEVATION
 40
0.0
  9
$THICKNESS
 40
0.0
  9
$LIMCHECK
 70
     0
  9
$CHAMFERA
 40
0.0
  9
$CHAMFERB
 40
0.0
  9
$SKPOLY
 70
     0
  9
$TDCREATE
 40
2458062.544770845
  9
$TDUPDATE
 40
2458062.544783727
  9
$TDINDWG
 40
0.0000000116
  9
$TDUSRTIMER
 40
0.0000000116
  9
$USRTIMER
 70
     1
  9
$ANGBASE
 50
0.0
  9
$ANGDIR
 70
     0
  9
$PDMODE
 70
     0
  9
$PDSIZE
 40
0.0
  9
$PLINEWID
 40
0.0
  9
$COORDS
 70
     1
  9
$SPLFRAME
 70
     0
  9
$SPLINETYPE
 70
     6
  9
$SPLINESEGS
 70
     8
  9
$ATTDIA
 70
     0
  9
$ATTREQ
 70
     1
  9
$HANDLING
 70
     1
  9
$HANDSEED
  5
3D6
  9
$SURFTAB1
 70
     6
  9
$SURFTAB2
 70
     6
  9
$SURFTYPE
 70
     6
  9
$SURFU
 70
     6
  9
$SURFV
 70
     6
  9
$UCSNAME
  2

  9
$UCSORG
 10
0.0
 20
0.0
 30
0.0
  9
$UCSXDIR
 10
1.0
 20
0.0
 30
0.0
  9
$UCSYDIR
 10
0.0
 20
1.0
 30
0.0
  9
$PUCSNAME
  2

  9
$PUCSORG
 10
0.0
 20
0.0
 30
0.0
  9
$PUCSXDIR
 10
1.0
 20
0.0
 30
0.0
  9
$PUCSYDIR
 10
0.0
 20
1.0
 30
0.0
  9
$USERI1
 70
     0
  9
$USERI2
 70
     0
  9
$USERI3
 70
     0
  9
$USERI4
 70
     0
  9
$USERI5
 70
     0
  9
$USERR1
 40
0.0
  9
$USERR2
 40
0.0
  9
$USERR3
 40
0.0
  9
$USERR4
 40
0.0
  9
$USERR5
 40
0.0
  9
$WORLDVIEW
 70
     1
  9
$SHADEDGE
 70
     3
  9
$SHADEDIF
 70
    70
  9
$TILEMODE
 70
     1
  9
$MAXACTVP
 70
    64
  9
$PLIMCHECK
 70
     0
  9
$PEXTMIN
 10
1.000000000000000E+20
 20
1.000000000000000E+20
 30
1.000000000000000E+20
  9
$PEXTMAX
 10
-1.000000000000000E+20
 20
-1.000000000000000E+20
 30
-1.000000000000000E+20
  9
$PLIMMIN
 10
0.0
 20
0.0
  9
$PLIMMAX
 10
12.0
 20
9.0
  9
$UNITMODE
 70
     0
  9
$VISRETAIN
 70
     1
  9
$PLINEGEN
 70
     0
  9
$PSLTSCALE
 70
     1
  0
ENDSEC
  0
SECTION
  2
TABLES
  0
TABLE
  2
VPORT
 70
     1
  0
VPORT
  2
*ACTIVE
 70
     0
 10
0.0
 20
0.0
 11
1.0
 21
1.0
 12
-763.2903868416212
 22
-80.5984802850948
 13
0.0
 23
0.0
 14
0.5
 24
0.5
 15
0.5
 25
0.5
 16
0.0
 26
0.0
 36
1.0
 17
0.0
 27
0.0
 37
0.0
 40
67.93916605757302
 41
0.7169645093747582
 42
50.0
 43
0.0
 44
0.0
 50
0.0
 51
0.0
 71
     0
 72
   100
 73
     1
 74
     3
 75
     0
 76
     0
 77
     0
 78
     0
  0
ENDTAB
  0
TABLE
  2
LTYPE
 70
     1
  0
LTYPE
  2
CONTINUOUS
 70
     0
  3
Solid line
 72
    65
 73
     0
 40
0.0
  0
ENDTAB
  0
TABLE
  2
LAYER
 70
     3
  0
LAYER
  2
0
 70
     0
 62
     7
  6
CONTINUOUS
  0
LAYER
  2
CUT
 70
     0
 62
     7
  6
CONTINUOUS
  0
LAYER
  2
DEFAULT
 70
     0
 62
     7
  6
CONTINUOUS
  0
ENDTAB
  0
TABLE
  2
STYLE
 70
     1
  0
STYLE
  2
STANDARD
 70
     0
 40
0.0
 41
1.0
 50
0.0
 71
     0
 42
0.2
  3
txt
  4

  0
ENDTAB
  0
TABLE
  2
VIEW
 70
     0
  0
ENDTAB
  0
TABLE
  2
UCS
 70
     0
  0
ENDTAB
  0
TABLE
  2
APPID
 70
     1
  0
APPID
  2
ACAD
 70
     0
  0
ENDTAB
  0
TABLE
  2
DIMSTYLE
 70
     1
  0
DIMSTYLE
  2
STANDARD
 70
     0
  3

  4

  5

  6

  7

 40
1.0
 41
0.18
 42
0.0625
 43
0.38
 44
0.18
 45
0.0
 46
0.0
 47
0.0
 48
0.0
140
0.18
141
0.09
142
0.0
143
25.4
144
1.0
145
0.0
146
1.0
147
0.09
 71
     0
 72
     0
 73
     1
 74
     1
 75
     0
 76
     0
 77
     0
 78
     0
170
     0
171
     2
172
     0
173
     0
174
     0
175
     0
176
     0
177
     0
178
     0
  0
ENDTAB
  0
ENDSEC
  0
SECTION
  2
BLOCKS
  0
BLOCK
  8
0
  2
$MODEL_SPACE
 70
     0
 10
0.0
 20
0.0
 30
0.0
  3
$MODEL_SPACE
  1

  0
ENDBLK
  5
21
  8
0
  0
BLOCK
 67
     1
  8
0
  2
$PAPER_SPACE
 70
     0
 10
0.0
 20
0.0
 30
0.0
  3
$PAPER_SPACE
  1

  0
ENDBLK
  5
1D
 67
     1
  8
0
  0
ENDSEC
  0
SECTION
  2
ENTITIES
  0
LINE
  5
6F
  8
CUT
 10
-747.7976356604681
 20
-76.57935998543462
 30
0.0
 11
-747.7982315199171
 21
-76.54484384646493
 31
0.0
  0
LINE
  5
70
  8
CUT
 10
-747.7958487922183
 20
-76.61383499086922
 30
0.0
 11
-747.7976356604681
 21
-76.57935998543462
 31
0.0
  0
LINE
  5
71
  8
CUT
 10
-747.7928730446123
 20
-76.64822777825323
 30
0.0
 11
-747.7958487922183
 21
-76.61383499086922
 31
0.0
  0
LINE
  5
72
  8
CUT
 10
-747.7887119639046
 20
-76.68249736105203
 30
0.0
 11
-747.7928730446123
 21
-76.64822777825323
 31
0.0
  0
LINE
  5
73
  8
CUT
 10
-747.7833705089339
 20
-76.71660289955622
 30
0.0
 11
-747.7887119639046
 21
-76.68249736105203
 31
0.0
  0
LINE
  5
74
  8
CUT
 10
-747.776855045213
 20
-76.75050374955083
 30
0.0
 11
-747.7833705089339
 21
-76.71660289955622
 31
0.0
  0
LINE
  5
75
  8
CUT
 10
-747.7691733373431
 20
-76.78415951075243
 30
0.0
 11
-747.776855045213
 21
-76.75050374955083
 31
0.0
  0
LINE
  5
76
  8
CUT
 10
-747.7603345397607
 20
-76.81753007495443
 30
0.0
 11
-747.7691733373431
 21
-76.78415951075243
 31
0.0
  0
LINE
  5
77
  8
CUT
 10
-747.7503491858278
 20
-76.85057567382462
 30
0.0
 11
-747.7603345397607
 21
-76.81753007495443
 31
0.0
  0
LINE
  5
78
  8
CUT
 10
-747.7392291752794
 20
-76.88325692629853
 30
0.0
 11
-747.7503491858278
 21
-76.85057567382462
 31
0.0
  0
LINE
  5
79
  8
CUT
 10
-747.7269877600423
 20
-76.91553488550993
 30
0.0
 11
-747.7392291752794
 21
-76.88325692629853
 31
0.0
  0
LINE
  5
7A
  8
CUT
 10
-747.7136395284424
 20
-76.94737108520482
 30
0.0
 11
-747.7269877600423
 21
-76.91553488550993
 31
0.0
  0
LINE
  5
7B
  8
CUT
 10
-747.6992003878195
 20
-76.97872758558243
 30
0.0
 11
-747.7136395284424
 21
-76.94737108520482
 31
0.0
  0
LINE
  5
7C
  8
CUT
 10
-747.6836875455703
 20
-77.00956701850863
 30
0.0
 11
-747.6992003878195
 21
-76.97872758558243
 31
0.0
  0
LINE
  5
7D
  8
CUT
 10
-747.6671194886421
 20
-77.03985263204852
 30
0.0
 11
-747.6836875455703
 21
-77.00956701850863
 31
0.0
  0
LINE
  5
7E
  8
CUT
 10
-747.6495159615014
 20
-77.06954833426393
 30
0.0
 11
-747.6671194886421
 21
-77.03985263204852
 31
0.0
  0
LINE
  5
7F
  8
CUT
 10
-747.6308979426043
 20
-77.09861873622543
 30
0.0
 11
-747.6495159615014
 21
-77.06954833426393
 31
0.0
  0
LINE
  5
80
  8
CUT
 10
-747.6112876193956
 20
-77.12702919418562
 30
0.0
 11
-747.6308979426043
 21
-77.09861873622543
 31
0.0
  0
LINE
  5
81
  8
CUT
 10
-747.5907083618681
 20
-77.15474585086493
 30
0.0
 11
-747.6112876193956
 21
-77.12702919418562
 31
0.0
  0
LINE
  5
82
  8
CUT
 10
-747.569184694712
 20
-77.18173567579983
 30
0.0
 11
-747.5907083618681
 21
-77.15474585086493
 31
0.0
  0
LINE
  5
83
  8
CUT
 10
-747.5467422680882
 20
-77.20796650470572
 30
0.0
 11
-747.569184694712
 21
-77.18173567579983
 31
0.0
  0
LINE
  5
84
  8
CUT
 10
-747.5234078270604
 20
-77.23340707780812
 30
0.0
 11
-747.5467422680882
 21
-77.20796650470572
 31
0.0
  0
LINE
  5
85
  8
CUT
 10
-747.4992091797233
 20
-77.25802707709553
 30
0.0
 11
-747.5234078270604
 21
-77.23340707780812
 31
0.0
  0
LINE
  5
86
  8
CUT
 10
-747.4741751640619
 20
-77.28179716244922
 30
0.0
 11
-747.4992091797233
 21
-77.25802707709553
 31
0.0
  0
LINE
  5
87
  8
CUT
 10
-747.4483356135859
 20
-77.30468900660952
 30
0.0
 11
-747.4741751640619
 21
-77.28179716244922
 31
0.0
  0
LINE
  5
88
  8
CUT
 10
-747.4217213217757
 20
-77.32667532893292
 30
0.0
 11
-747.4483356135859
 21
-77.30468900660952
 31
0.0
  0
LINE
  5
89
  8
CUT
 10
-747.3943640053863
 20
-77.34772992790373
 30
0.0
 11
-747.4217213217757
 21
-77.32667532893292
 31
0.0
  0
LINE
  5
8A
  8
CUT
 10
-747.3662962666482
 20
-77.36782771235853
 30
0.0
 11
-747.3943640053863
 21
-77.34772992790373
 31
0.0
  0
LINE
  5
8B
  8
CUT
 10
-747.3375515544162
 20
-77.38694473138773
 30
0.0
 11
-747.3662962666482
 21
-77.36782771235853
 31
0.0
  0
LINE
  5
8C
  8
CUT
 10
-747.3081641243072
 20
-77.40505820287842
 30
0.0
 11
-747.3375515544162
 21
-77.38694473138773
 31
0.0
  0
LINE
  5
8D
  8
CUT
 10
-747.2781689978768
 20
-77.42214654066433
 30
0.0
 11
-747.3081641243072
 21
-77.40505820287842
 31
0.0
  0
LINE
  5
8E
  8
CUT
 10
-747.2476019208842
 20
-77.43818938025042
 30
0.0
 11
-747.2781689978768
 21
-77.42214654066433
 31
0.0
  0
LINE
  5
8F
  8
CUT
 10
-747.2164993206926
 20
-77.45316760308162
 30
0.0
 11
-747.2476019208842
 21
-77.43818938025042
 31
0.0
  0
LINE
  5
90
  8
CUT
 10
-747.1848982628585
 20
-77.46706335932673
 30
0.0
 11
-747.2164993206926
 21
-77.45316760308162
 31
0.0
  0
LINE
  5
91
  8
CUT
 10
-747.1528364069596
 20
-77.47986008915032
 30
0.0
 11
-747.1848982628585
 21
-77.46706335932673
 31
0.0
  0
LINE
  5
92
  8
CUT
 10
-747.1203519617155
 20
-77.49154254244773
 30
0.0
 11
-747.1528364069596
 21
-77.47986008915032
 31
0.0
  0
LINE
  5
93
  8
CUT
 10
-747.0874836394537
 20
-77.50209679701852
 30
0.0
 11
-747.1203519617155
 21
-77.49154254244773
 31
0.0
  0
LINE
  5
94
  8
CUT
 10
-747.0542706099747
 20
-77.51151027515813
 30
0.0
 11
-747.0874836394537
 21
-77.50209679701852
 31
0.0
  0
LINE
  5
95
  8
CUT
 10
-747.0207524538733
 20
-77.51977175864673
 30
0.0
 11
-747.0542706099747
 21
-77.51151027515813
 31
0.0
  0
LINE
  5
96
  8
CUT
 10
-746.98696911537
 20
-77.52687140211833
 30
0.0
 11
-747.0207524538733
 21
-77.51977175864673
 31
0.0
  0
LINE
  5
97
  8
CUT
 10
-746.9529608547074
 20
-77.53280074479363
 30
0.0
 11
-746.98696911537
 21
-77.52687140211833
 31
0.0
  0
LINE
  5
98
  8
CUT
 10
-746.9187682001724
 20
-77.53755272056293
 30
0.0
 11
-746.9529608547074
 21
-77.53280074479363
 31
0.0
  0
LINE
  5
99
  8
CUT
 10
-746.8844318997977
 20
-77.54112166640692
 30
0.0
 11
-746.9187682001724
 21
-77.53755272056293
 31
0.0
  0
LINE
  5
9A
  8
CUT
 10
-746.8499928728013
 20
-77.54350332914532
 30
0.0
 11
-746.8844318997977
 21
-77.54112166640692
 31
0.0
  0
LINE
  5
9B
  8
CUT
 10
-746.8154921608225
 20
-77.54469487050572
 30
0.0
 11
-746.8499928728013
 21
-77.54350332914532
 31
0.0
  0
LINE
  5
9C
  8
CUT
 10
-746.7809708790116
 20
-77.54469487050572
 30
0.0
 11
-746.8154921608225
 21
-77.54469487050572
 31
0.0
  0
LINE
  5
9D
  8
CUT
 10
-746.7464701670328
 20
-77.54350332914532
 30
0.0
 11
-746.7809708790116
 21
-77.54469487050572
 31
0.0
  0
LINE
  5
9E
  8
CUT
 10
-746.7120311400364
 20
-77.54112166640692
 30
0.0
 11
-746.7464701670328
 21
-77.54350332914532
 31
0.0
  0
LINE
  5
9F
  8
CUT
 10
-746.6776948396617
 20
-77.53755272056293
 30
0.0
 11
-746.7120311400364
 21
-77.54112166640692
 31
0.0
  0
LINE
  5
A0
  8
CUT
 10
-746.6435021851267
 20
-77.53280074479363
 30
0.0
 11
-746.6776948396617
 21
-77.53755272056293
 31
0.0
  0
LINE
  5
A1
  8
CUT
 10
-746.6094939244641
 20
-77.52687140211833
 30
0.0
 11
-746.6435021851267
 21
-77.53280074479363
 31
0.0
  0
LINE
  5
A2
  8
CUT
 10
-746.5757105859608
 20
-77.51977175864673
 30
0.0
 11
-746.6094939244641
 21
-77.52687140211833
 31
0.0
  0
LINE
  5
A3
  8
CUT
 10
-746.5421924298595
 20
-77.51151027515813
 30
0.0
 11
-746.5757105859608
 21
-77.51977175864673
 31
0.0
  0
LINE
  5
A4
  8
CUT
 10
-746.5089794003806
 20
-77.50209679701852
 30
0.0
 11
-746.5421924298595
 21
-77.51151027515813
 31
0.0
  0
LINE
  5
A5
  8
CUT
 10
-746.4761110781186
 20
-77.49154254244773
 30
0.0
 11
-746.5089794003806
 21
-77.50209679701852
 31
0.0
  0
LINE
  5
A6
  8
CUT
 10
-746.4436266328745
 20
-77.47986008915032
 30
0.0
 11
-746.4761110781186
 21
-77.49154254244773
 31
0.0
  0
LINE
  5
A7
  8
CUT
 10
-746.4115647769756
 20
-77.46706335932673
 30
0.0
 11
-746.4436266328745
 21
-77.47986008915032
 31
0.0
  0
LINE
  5
A8
  8
CUT
 10
-746.3799637191415
 20
-77.45316760308162
 30
0.0
 11
-746.4115647769756
 21
-77.46706335932673
 31
0.0
  0
LINE
  5
A9
  8
CUT
 10
-746.3488611189499
 20
-77.43818938025042
 30
0.0
 11
-746.3799637191415
 21
-77.45316760308162
 31
0.0
  0
LINE
  5
AA
  8
CUT
 10
-746.3182940419573
 20
-77.42214654066433
 30
0.0
 11
-746.3488611189499
 21
-77.43818938025042
 31
0.0
  0
LINE
  5
AB
  8
CUT
 10
-746.288298915527
 20
-77.40505820287842
 30
0.0
 11
-746.3182940419573
 21
-77.42214654066433
 31
0.0
  0
LINE
  5
AC
  8
CUT
 10
-746.2589114854179
 20
-77.38694473138773
 30
0.0
 11
-746.288298915527
 21
-77.40505820287842
 31
0.0
  0
LINE
  5
AD
  8
CUT
 10
-746.2301667731859
 20
-77.36782771235853
 30
0.0
 11
-746.2589114854179
 21
-77.38694473138773
 31
0.0
  0
LINE
  5
AE
  8
CUT
 10
-746.2020990344479
 20
-77.34772992790373
 30
0.0
 11
-746.2301667731859
 21
-77.36782771235853
 31
0.0
  0
LINE
  5
AF
  8
CUT
 10
-746.1747417180584
 20
-77.32667532893292
 30
0.0
 11
-746.2020990344479
 21
-77.34772992790373
 31
0.0
  0
LINE
  5
B0
  8
CUT
 10
-746.1481274262484
 20
-77.30468900660942
 30
0.0
 11
-746.1747417180584
 21
-77.32667532893292
 31
0.0
  0
LINE
  5
B1
  8
CUT
 10
-746.1222878757724
 20
-77.28179716244922
 30
0.0
 11
-746.1481274262484
 21
-77.30468900660942
 31
0.0
  0
LINE
  5
B2
  8
CUT
 10
-746.097253860111
 20
-77.25802707709553
 30
0.0
 11
-746.1222878757724
 21
-77.28179716244922
 31
0.0
  0
LINE
  5
B3
  8
CUT
 10
-746.0730552127737
 20
-77.23340707780812
 30
0.0
 11
-746.097253860111
 21
-77.25802707709553
 31
0.0
  0
LINE
  5
B4
  8
CUT
 10
-746.049720771746
 20
-77.20796650470572
 30
0.0
 11
-746.0730552127737
 21
-77.23340707780812
 31
0.0
  0
LINE
  5
B5
  8
CUT
 10
-746.0272783451221
 20
-77.18173567579983
 30
0.0
 11
-746.049720771746
 21
-77.20796650470572
 31
0.0
  0
LINE
  5
B6
  8
CUT
 10
-746.005754677966
 20
-77.15474585086493
 30
0.0
 11
-746.0272783451221
 21
-77.18173567579983
 31
0.0
  0
LINE
  5
B7
  8
CUT
 10
-745.9851754204385
 20
-77.12702919418562
 30
0.0
 11
-746.005754677966
 21
-77.15474585086493
 31
0.0
  0
LINE
  5
B8
  8
CUT
 10
-745.9655650972298
 20
-77.09861873622543
 30
0.0
 11
-745.9851754204385
 21
-77.12702919418562
 31
0.0
  0
LINE
  5
B9
  8
CUT
 10
-745.9469470783328
 20
-77.06954833426393
 30
0.0
 11
-745.9655650972298
 21
-77.09861873622543
 31
0.0
  0
LINE
  5
BA
  8
CUT
 10
-745.9293435511921
 20
-77.03985263204842
 30
0.0
 11
-745.9469470783328
 21
-77.06954833426393
 31
0.0
  0
LINE
  5
BB
  8
CUT
 10
-745.9127754942639
 20
-77.00956701850863
 30
0.0
 11
-745.9293435511921
 21
-77.03985263204842
 31
0.0
  0
LINE
  5
BC
  8
CUT
 10
-745.8972626520147
 20
-76.97872758558243
 30
0.0
 11
-745.9127754942639
 21
-77.00956701850863
 31
0.0
  0
LINE
  5
BD
  8
CUT
 10
-745.8828235113917
 20
-76.94737108520482
 30
0.0
 11
-745.8972626520147
 21
-76.97872758558243
 31
0.0
  0
LINE
  5
BE
  8
CUT
 10
-745.8694752797918
 20
-76.91553488550993
 30
0.0
 11
-745.8828235113917
 21
-76.94737108520482
 31
0.0
  0
LINE
  5
BF
  8
CUT
 10
-745.8572338645547
 20
-76.88325692629853
 30
0.0
 11
-745.8694752797918
 21
-76.91553488550993
 31
0.0
  0
LINE
  5
C0
  8
CUT
 10
-745.8461138540064
 20
-76.85057567382462
 30
0.0
 11
-745.8572338645547
 21
-76.88325692629853
 31
0.0
  0
LINE
  5
C1
  8
CUT
 10
-745.8361285000735
 20
-76.81753007495443
 30
0.0
 11
-745.8461138540064
 21
-76.85057567382462
 31
0.0
  0
LINE
  5
C2
  8
CUT
 10
-745.827289702491
 20
-76.78415951075243
 30
0.0
 11
-745.8361285000735
 21
-76.81753007495443
 31
0.0
  0
LINE
  5
C3
  8
CUT
 10
-745.8196079946212
 20
-76.75050374955083
 30
0.0
 11
-745.827289702491
 21
-76.78415951075243
 31
0.0
  0
LINE
  5
C4
  8
CUT
 10
-745.8130925309002
 20
-76.71660289955622
 30
0.0
 11
-745.8196079946212
 21
-76.75050374955083
 31
0.0
  0
LINE
  5
C5
  8
CUT
 10
-745.8077510759296
 20
-76.68249736105203
 30
0.0
 11
-745.8130925309002
 21
-76.71660289955622
 31
0.0
  0
LINE
  5
C6
  8
CUT
 10
-745.8035899952218
 20
-76.64822777825323
 30
0.0
 11
-745.8077510759296
 21
-76.68249736105203
 31
0.0
  0
LINE
  5
C7
  8
CUT
 10
-745.8006142476158
 20
-76.61383499086922
 30
0.0
 11
-745.8035899952218
 21
-76.64822777825323
 31
0.0
  0
LINE
  5
C8
  8
CUT
 10
-745.798827379366
 20
-76.57935998543462
 30
0.0
 11
-745.8006142476158
 21
-76.61383499086922
 31
0.0
  0
LINE
  5
C9
  8
CUT
 10
-745.7982315199171
 20
-76.54484384646493
 30
0.0
 11
-745.798827379366
 21
-76.57935998543462
 31
0.0
  0
LINE
  5
CA
  8
CUT
 10
-743.5982315199122
 20
-76.54484384646493
 30
0.0
 11
-745.7982315199171
 21
-76.54484384646493
 31
0.0
  0
LINE
  5
CB
  8
CUT
 10
-743.5982315199122
 20
-74.62484384646493
 30
0.0
 11
-743.5982315199122
 21
-76.54484384646493
 31
0.0
  0
LINE
  5
CC
  8
CUT
 10
-741.8982315199122
 20
-74.62484384646493
 30
0.0
 11
-743.5982315199122
 21
-74.62484384646493
 31
0.0
  0
LINE
  5
CD
  8
CUT
 10
-741.6968827245968
 20
-74.83318837338642
 30
0.0
 11
-741.8982315199122
 21
-74.62484384646493
 31
0.0
  0
LINE
  5
CE
  8
CUT
 10
-741.5027644245758
 20
-75.04828571151512
 30
0.0
 11
-741.6968827245968
 21
-74.83318837338642
 31
0.0
  0
LINE
  5
CF
  8
CUT
 10
-741.316102953104
 20
-75.26988506697683
 30
0.0
 11
-741.5027644245758
 21
-75.04828571151512
 31
0.0
  0
LINE
  5
D0
  8
CUT
 10
-741.1371159491069
 20
-75.49772806483563
 30
0.0
 11
-741.316102953104
 21
-75.26988506697683
 31
0.0
  0
LINE
  5
D1
  8
CUT
 10
-740.9660121034251
 20
-75.73154905034792
 30
0.0
 11
-741.1371159491069
 21
-75.49772806483563
 31
0.0
  0
LINE
  5
D2
  8
CUT
 10
-740.8029909154884
 20
-75.97107539870403
 30
0.0
 11
-740.9660121034251
 21
-75.73154905034792
 31
0.0
  0
LINE
  5
D3
  8
CUT
 10
-740.6482424607099
 20
-76.21602783289633
 30
0.0
 11
-740.8029909154884
 21
-75.97107539870403
 31
0.0
  0
LINE
  5
D4
  8
CUT
 10
-740.5019471688653
 20
-76.46612074934383
 30
0.0
 11
-740.6482424607099
 21
-76.21602783289633
 31
0.0
  0
LINE
  5
D5
  8
CUT
 10
-740.3642756137211
 20
-76.72106255089332
 30
0.0
 11
-740.5019471688653
 21
-76.46612074934383
 31
0.0
  0
LINE
  5
D6
  8
CUT
 10
-740.235388314152
 20
-76.98055598680813
 30
0.0
 11
-740.3642756137211
 21
-76.72106255089332
 31
0.0
  0
LINE
  5
D7
  8
CUT
 10
-740.115435546984
 20
-77.24429849934982
 30
0.0
 11
-740.235388314152
 21
-76.98055598680813
 31
0.0
  0
LINE
  5
D8
  8
CUT
 10
-740.0045571717777
 20
-77.51198257654663
 30
0.0
 11
-740.115435546984
 21
-77.24429849934982
 31
0.0
  0
LINE
  5
D9
  8
CUT
 10
-739.9028824677589
 20
-77.78329611073873
 30
0.0
 11
-740.0045571717777
 21
-77.51198257654663
 31
0.0
  0
LINE
  5
DA
  8
CUT
 10
-739.8105299830843
 20
-78.05792276248152
 30
0.0
 11
-739.9028824677589
 21
-77.78329611073873
 31
0.0
  0
LINE
  5
DB
  8
CUT
 10
-739.7276073966198
 20
-78.33554232938403
 30
0.0
 11
-739.8105299830843
 21
-78.05792276248152
 31
0.0
  0
LINE
  5
DC
  8
CUT
 10
-739.654211392392
 20
-78.61583111944972
 30
0.0
 11
-739.7276073966198
 21
-78.33554232938403
 31
0.0
  0
LINE
  5
DD
  8
CUT
 10
-739.5904275468585
 20
-78.89846232848733
 30
0.0
 11
-739.654211392392
 21
-78.61583111944972
 31
0.0
  0
LINE
  5
DE
  8
CUT
 10
-739.5363302291302
 20
-79.18310642114983
 30
0.0
 11
-739.5904275468585
 21
-78.89846232848733
 31
0.0
  0
LINE
  5
DF
  8
CUT
 10
-739.4919825142595
 20
-79.46943151515812
 30
0.0
 11
-739.5363302291302
 21
-79.18310642114983
 31
0.0
  0
LINE
  5
E0
  8
CUT
 10
-739.457436109698
 20
-79.75710376826042
 30
0.0
 11
-739.4919825142595
 21
-79.46943151515812
 31
0.0
  0
LINE
  5
E1
  8
CUT
 10
-739.4327312950086
 20
-80.04578776747803
 30
0.0
 11
-739.457436109698
 21
-79.75710376826042
 31
0.0
  0
LINE
  5
E2
  8
CUT
 10
-739.4178968748997
 20
-80.33514692018123
 30
0.0
 11
-739.4327312950086
 21
-80.04578776747803
 31
0.0
  0
LINE
  5
E3
  8
CUT
 10
-739.4129501456417
 20
-80.62484384654182
 30
0.0
 11
-739.4178968748997
 21
-80.33514692018123
 31
0.0
  0
LINE
  5
E4
  8
CUT
 10
-739.4178968748997
 20
-80.91454077290233
 30
0.0
 11
-739.4129501456417
 21
-80.62484384654182
 31
0.0
  0
LINE
  5
E5
  8
CUT
 10
-739.4327312950086
 20
-81.20389992560553
 30
0.0
 11
-739.4178968748997
 21
-80.91454077290233
 31
0.0
  0
LINE
  5
E6
  8
CUT
 10
-739.457436109698
 20
-81.49258392482312
 30
0.0
 11
-739.4327312950086
 21
-81.20389992560553
 31
0.0
  0
LINE
  5
E7
  8
CUT
 10
-739.4919825142595
 20
-81.78025617792542
 30
0.0
 11
-739.457436109698
 21
-81.49258392482312
 31
0.0
  0
LINE
  5
E8
  8
CUT
 10
-739.5363302291302
 20
-82.06658127193373
 30
0.0
 11
-739.4919825142595
 21
-81.78025617792542
 31
0.0
  0
LINE
  5
E9
  8
CUT
 10
-739.5904275468585
 20
-82.35122536459623
 30
0.0
 11
-739.5363302291302
 21
-82.06658127193373
 31
0.0
  0
LINE
  5
EA
  8
CUT
 10
-739.6542113923919
 20
-82.63385657363382
 30
0.0
 11
-739.5904275468585
 21
-82.35122536459623
 31
0.0
  0
LINE
  5
EB
  8
CUT
 10
-739.7276073966198
 20
-82.91414536369953
 30
0.0
 11
-739.6542113923919
 21
-82.63385657363382
 31
0.0
  0
LINE
  5
EC
  8
CUT
 10
-739.8105299830843
 20
-83.19176493060203
 30
0.0
 11
-739.7276073966198
 21
-82.91414536369953
 31
0.0
  0
LINE
  5
ED
  8
CUT
 10
-739.9028824677589
 20
-83.46639158234483
 30
0.0
 11
-739.8105299830843
 21
-83.19176493060203
 31
0.0
  0
LINE
  5
EE
  8
CUT
 10
-740.0045571717777
 20
-83.73770511653693
 30
0.0
 11
-739.9028824677589
 21
-83.46639158234483
 31
0.0
  0
LINE
  5
EF
  8
CUT
 10
-740.115435546984
 20
-84.00538919373372
 30
0.0
 11
-740.0045571717777
 21
-83.73770511653693
 31
0.0
  0
LINE
  5
F0
  8
CUT
 10
-740.235388314152
 20
-84.26913170627543
 30
0.0
 11
-740.115435546984
 21
-84.00538919373372
 31
0.0
  0
LINE
  5
F1
  8
CUT
 10
-740.3642756137211
 20
-84.52862514219032
 30
0.0
 11
-740.235388314152
 21
-84.26913170627543
 31
0.0
  0
LINE
  5
F2
  8
CUT
 10
-740.5019471688654
 20
-84.78356694373963
 30
0.0
 11
-740.3642756137211
 21
-84.52862514219032
 31
0.0
  0
LINE
  5
F3
  8
CUT
 10
-740.6482424607099
 20
-85.03365986018723
 30
0.0
 11
-740.5019471688654
 21
-84.78356694373963
 31
0.0
  0
LINE
  5
F4
  8
CUT
 10
-740.8029909154884
 20
-85.27861229437953
 30
0.0
 11
-740.6482424607099
 21
-85.03365986018723
 31
0.0
  0
LINE
  5
F5
  8
CUT
 10
-740.9660121034251
 20
-85.51813864273562
 30
0.0
 11
-740.8029909154884
 21
-85.27861229437953
 31
0.0
  0
LINE
  5
F6
  8
CUT
 10
-741.1371159491069
 20
-85.75195962824793
 30
0.0
 11
-740.9660121034251
 21
-85.51813864273562
 31
0.0
  0
LINE
  5
F7
  8
CUT
 10
-741.316102953104
 20
-85.97980262610673
 30
0.0
 11
-741.1371159491069
 21
-85.75195962824793
 31
0.0
  0
LINE
  5
F8
  8
CUT
 10
-741.5027644245758
 20
-86.20140198156842
 30
0.0
 11
-741.316102953104
 21
-85.97980262610673
 31
0.0
  0
LINE
  5
F9
  8
CUT
 10
-741.6968827245968
 20
-86.41649931969712
 30
0.0
 11
-741.5027644245758
 21
-86.20140198156842
 31
0.0
  0
LINE
  5
FA
  8
CUT
 10
-741.8982315199122
 20
-86.62484384661863
 30
0.0
 11
-741.6968827245968
 21
-86.41649931969712
 31
0.0
  0
LINE
  5
FB
  8
CUT
 10
-743.5982315199122
 20
-86.62484384661863
 30
0.0
 11
-741.8982315199122
 21
-86.62484384661863
 31
0.0
  0
LINE
  5
FC
  8
CUT
 10
-743.5982315199122
 20
-84.70484384661853
 30
0.0
 11
-743.5982315199122
 21
-86.62484384661863
 31
0.0
  0
LINE
  5
FD
  8
CUT
 10
-745.7982315199171
 20
-84.70484384645923
 30
0.0
 11
-743.5982315199122
 21
-84.70484384661853
 31
0.0
  0
LINE
  5
FE
  8
CUT
 10
-745.798827379366
 20
-84.67032770748952
 30
0.0
 11
-745.7982315199171
 21
-84.70484384645923
 31
0.0
  0
LINE
  5
FF
  8
CUT
 10
-745.8006142476158
 20
-84.63585270205483
 30
0.0
 11
-745.798827379366
 21
-84.67032770748952
 31
0.0
  0
LINE
  5
100
  8
CUT
 10
-745.8035899952218
 20
-84.60145991467083
 30
0.0
 11
-745.8006142476158
 21
-84.63585270205483
 31
0.0
  0
LINE
  5
101
  8
CUT
 10
-745.8077510759296
 20
-84.56719033187203
 30
0.0
 11
-745.8035899952218
 21
-84.60145991467083
 31
0.0
  0
LINE
  5
102
  8
CUT
 10
-745.8130925309002
 20
-84.53308479336793
 30
0.0
 11
-745.8077510759296
 21
-84.56719033187203
 31
0.0
  0
LINE
  5
103
  8
CUT
 10
-745.8196079946212
 20
-84.49918394337323
 30
0.0
 11
-745.8130925309002
 21
-84.53308479336793
 31
0.0
  0
LINE
  5
104
  8
CUT
 10
-745.827289702491
 20
-84.46552818217162
 30
0.0
 11
-745.8196079946212
 21
-84.49918394337323
 31
0.0
  0
LINE
  5
105
  8
CUT
 10
-745.8361285000735
 20
-84.43215761796962
 30
0.0
 11
-745.827289702491
 21
-84.46552818217162
 31
0.0
  0
LINE
  5
106
  8
CUT
 10
-745.8461138540064
 20
-84.39911201909943
 30
0.0
 11
-745.8361285000735
 21
-84.43215761796962
 31
0.0
  0
LINE
  5
107
  8
CUT
 10
-745.8572338645547
 20
-84.36643076662543
 30
0.0
 11
-745.8461138540064
 21
-84.39911201909943
 31
0.0
  0
LINE
  5
108
  8
CUT
 10
-745.8694752797918
 20
-84.33415280741403
 30
0.0
 11
-745.8572338645547
 21
-84.36643076662543
 31
0.0
  0
LINE
  5
109
  8
CUT
 10
-745.8828235113917
 20
-84.30231660771922
 30
0.0
 11
-745.8694752797918
 21
-84.33415280741403
 31
0.0
  0
LINE
  5
10A
  8
CUT
 10
-745.8972626520147
 20
-84.27096010734162
 30
0.0
 11
-745.8828235113917
 21
-84.30231660771922
 31
0.0
  0
LINE
  5
10B
  8
CUT
 10
-745.9127754942638
 20
-84.24012067441532
 30
0.0
 11
-745.8972626520147
 21
-84.27096010734162
 31
0.0
  0
LINE
  5
10C
  8
CUT
 10
-745.929343551192
 20
-84.20983506087552
 30
0.0
 11
-745.9127754942638
 21
-84.24012067441532
 31
0.0
  0
LINE
  5
10D
  8
CUT
 10
-745.9469470783326
 20
-84.18013935866013
 30
0.0
 11
-745.929343551192
 21
-84.20983506087552
 31
0.0
  0
LINE
  5
10E
  8
CUT
 10
-745.9655650972297
 20
-84.15106895669862
 30
0.0
 11
-745.9469470783326
 21
-84.18013935866013
 31
0.0
  0
LINE
  5
10F
  8
CUT
 10
-745.9851754204384
 20
-84.12265849873833
 30
0.0
 11
-745.9655650972297
 21
-84.15106895669862
 31
0.0
  0
LINE
  5
110
  8
CUT
 10
-746.0057546779659
 20
-84.09494184205903
 30
0.0
 11
-745.9851754204384
 21
-84.12265849873833
 31
0.0
  0
LINE
  5
111
  8
CUT
 10
-746.027278345122
 20
-84.06795201712423
 30
0.0
 11
-746.0057546779659
 21
-84.09494184205903
 31
0.0
  0
LINE
  5
112
  8
CUT
 10
-746.0497207717459
 20
-84.04172118821833
 30
0.0
 11
-746.027278345122
 21
-84.06795201712423
 31
0.0
  0
LINE
  5
113
  8
CUT
 10
-746.0730552127736
 20
-84.01628061511583
 30
0.0
 11
-746.0497207717459
 21
-84.04172118821833
 31
0.0
  0
LINE
  5
114
  8
CUT
 10
-746.0972538601109
 20
-83.99166061582852
 30
0.0
 11
-746.0730552127736
 21
-84.01628061511583
 31
0.0
  0
LINE
  5
115
  8
CUT
 10
-746.1222878757723
 20
-83.96789053047473
 30
0.0
 11
-746.0972538601109
 21
-83.99166061582852
 31
0.0
  0
LINE
  5
116
  8
CUT
 10
-746.1481274262483
 20
-83.94499868631452
 30
0.0
 11
-746.1222878757723
 21
-83.96789053047473
 31
0.0
  0
LINE
  5
117
  8
CUT
 10
-746.1747417180583
 20
-83.92301236399102
 30
0.0
 11
-746.1481274262483
 21
-83.94499868631452
 31
0.0
  0
LINE
  5
118
  8
CUT
 10
-746.2020990344478
 20
-83.90195776502023
 30
0.0
 11
-746.1747417180583
 21
-83.92301236399102
 31
0.0
  0
LINE
  5
119
  8
CUT
 10
-746.2301667731858
 20
-83.88185998056542
 30
0.0
 11
-746.2020990344478
 21
-83.90195776502023
 31
0.0
  0
LINE
  5
11A
  8
CUT
 10
-746.2589114854178
 20
-83.86274296153623
 30
0.0
 11
-746.2301667731858
 21
-83.88185998056542
 31
0.0
  0
LINE
  5
11B
  8
CUT
 10
-746.2882989155269
 20
-83.84462949004563
 30
0.0
 11
-746.2589114854178
 21
-83.86274296153623
 31
0.0
  0
LINE
  5
11C
  8
CUT
 10
-746.3182940419572
 20
-83.82754115225963
 30
0.0
 11
-746.2882989155269
 21
-83.84462949004563
 31
0.0
  0
LINE
  5
11D
  8
CUT
 10
-746.3488611189499
 20
-83.81149831267352
 30
0.0
 11
-746.3182940419572
 21
-83.82754115225963
 31
0.0
  0
LINE
  5
11E
  8
CUT
 10
-746.3799637191414
 20
-83.79652008984233
 30
0.0
 11
-746.3488611189499
 21
-83.81149831267352
 31
0.0
  0
LINE
  5
11F
  8
CUT
 10
-746.4115647769756
 20
-83.78262433359723
 30
0.0
 11
-746.3799637191414
 21
-83.79652008984233
 31
0.0
  0
LINE
  5
120
  8
CUT
 10
-746.4436266328745
 20
-83.76982760377362
 30
0.0
 11
-746.4115647769756
 21
-83.78262433359723
 31
0.0
  0
LINE
  5
121
  8
CUT
 10
-746.4761110781186
 20
-83.75814515047622
 30
0.0
 11
-746.4436266328745
 21
-83.76982760377362
 31
0.0
  0
LINE
  5
122
  8
CUT
 10
-746.5089794003804
 20
-83.74759089590543
 30
0.0
 11
-746.4761110781186
 21
-83.75814515047622
 31
0.0
  0
LINE
  5
123
  8
CUT
 10
-746.5421924298595
 20
-83.73817741776583
 30
0.0
 11
-746.5089794003804
 21
-83.74759089590543
 31
0.0
  0
LINE
  5
124
  8
CUT
 10
-746.5757105859608
 20
-83.72991593427723
 30
0.0
 11
-746.5421924298595
 21
-83.73817741776583
 31
0.0
  0
LINE
  5
125
  8
CUT
 10
-746.6094939244641
 20
-83.72281629080562
 30
0.0
 11
-746.5757105859608
 21
-83.72991593427723
 31
0.0
  0
LINE
  5
126
  8
CUT
 10
-746.6435021851267
 20
-83.71688694813032
 30
0.0
 11
-746.6094939244641
 21
-83.72281629080562
 31
0.0
  0
LINE
  5
127
  8
CUT
 10
-746.6776948396617
 20
-83.71213497236103
 30
0.0
 11
-746.6435021851267
 21
-83.71688694813032
 31
0.0
  0
LINE
  5
128
  8
CUT
 10
-746.7120311400364
 20
-83.70856602651703
 30
0.0
 11
-746.6776948396617
 21
-83.71213497236103
 31
0.0
  0
LINE
  5
129
  8
CUT
 10
-746.7464701670328
 20
-83.70618436377863
 30
0.0
 11
-746.7120311400364
 21
-83.70856602651703
 31
0.0
  0
LINE
  5
12A
  8
CUT
 10
-746.7809708790116
 20
-83.70499282241823
 30
0.0
 11
-746.7464701670328
 21
-83.70618436377863
 31
0.0
  0
LINE
  5
12B
  8
CUT
 10
-746.8154921608225
 20
-83.70499282241823
 30
0.0
 11
-746.7809708790116
 21
-83.70499282241823
 31
0.0
  0
LINE
  5
12C
  8
CUT
 10
-746.8499928728013
 20
-83.70618436377863
 30
0.0
 11
-746.8154921608225
 21
-83.70499282241823
 31
0.0
  0
LINE
  5
12D
  8
CUT
 10
-746.8844318997977
 20
-83.70856602651703
 30
0.0
 11
-746.8499928728013
 21
-83.70618436377863
 31
0.0
  0
LINE
  5
12E
  8
CUT
 10
-746.9187682001724
 20
-83.71213497236103
 30
0.0
 11
-746.8844318997977
 21
-83.70856602651703
 31
0.0
  0
LINE
  5
12F
  8
CUT
 10
-746.9529608547074
 20
-83.71688694813032
 30
0.0
 11
-746.9187682001724
 21
-83.71213497236103
 31
0.0
  0
LINE
  5
130
  8
CUT
 10
-746.98696911537
 20
-83.72281629080562
 30
0.0
 11
-746.9529608547074
 21
-83.71688694813032
 31
0.0
  0
LINE
  5
131
  8
CUT
 10
-747.0207524538735
 20
-83.72991593427723
 30
0.0
 11
-746.98696911537
 21
-83.72281629080562
 31
0.0
  0
LINE
  5
132
  8
CUT
 10
-747.0542706099747
 20
-83.73817741776583
 30
0.0
 11
-747.0207524538735
 21
-83.72991593427723
 31
0.0
  0
LINE
  5
133
  8
CUT
 10
-747.0874836394537
 20
-83.74759089590543
 30
0.0
 11
-747.0542706099747
 21
-83.73817741776583
 31
0.0
  0
LINE
  5
134
  8
CUT
 10
-747.1203519617156
 20
-83.75814515047622
 30
0.0
 11
-747.0874836394537
 21
-83.74759089590543
 31
0.0
  0
LINE
  5
135
  8
CUT
 10
-747.1528364069596
 20
-83.76982760377362
 30
0.0
 11
-747.1203519617156
 21
-83.75814515047622
 31
0.0
  0
LINE
  5
136
  8
CUT
 10
-747.1848982628585
 20
-83.78262433359723
 30
0.0
 11
-747.1528364069596
 21
-83.76982760377362
 31
0.0
  0
LINE
  5
137
  8
CUT
 10
-747.2164993206927
 20
-83.79652008984233
 30
0.0
 11
-747.1848982628585
 21
-83.78262433359723
 31
0.0
  0
LINE
  5
138
  8
CUT
 10
-747.2476019208842
 20
-83.81149831267352
 30
0.0
 11
-747.2164993206927
 21
-83.79652008984233
 31
0.0
  0
LINE
  5
139
  8
CUT
 10
-747.2781689978768
 20
-83.82754115225963
 30
0.0
 11
-747.2476019208842
 21
-83.81149831267352
 31
0.0
  0
LINE
  5
13A
  8
CUT
 10
-747.3081641243073
 20
-83.84462949004563
 30
0.0
 11
-747.2781689978768
 21
-83.82754115225963
 31
0.0
  0
LINE
  5
13B
  8
CUT
 10
-747.3375515544163
 20
-83.86274296153623
 30
0.0
 11
-747.3081641243073
 21
-83.84462949004563
 31
0.0
  0
LINE
  5
13C
  8
CUT
 10
-747.3662962666483
 20
-83.88185998056542
 30
0.0
 11
-747.3375515544163
 21
-83.86274296153623
 31
0.0
  0
LINE
  5
13D
  8
CUT
 10
-747.3943640053864
 20
-83.90195776502023
 30
0.0
 11
-747.3662962666483
 21
-83.88185998056542
 31
0.0
  0
LINE
  5
13E
  8
CUT
 10
-747.4217213217759
 20
-83.92301236399102
 30
0.0
 11
-747.3943640053864
 21
-83.90195776502023
 31
0.0
  0
LINE
  5
13F
  8
CUT
 10
-747.4483356135859
 20
-83.94499868631452
 30
0.0
 11
-747.4217213217759
 21
-83.92301236399102
 31
0.0
  0
LINE
  5
140
  8
CUT
 10
-747.4741751640619
 20
-83.96789053047473
 30
0.0
 11
-747.4483356135859
 21
-83.94499868631452
 31
0.0
  0
LINE
  5
141
  8
CUT
 10
-747.4992091797233
 20
-83.99166061582852
 30
0.0
 11
-747.4741751640619
 21
-83.96789053047473
 31
0.0
  0
LINE
  5
142
  8
CUT
 10
-747.5234078270605
 20
-84.01628061511583
 30
0.0
 11
-747.4992091797233
 21
-83.99166061582852
 31
0.0
  0
LINE
  5
143
  8
CUT
 10
-747.5467422680882
 20
-84.04172118821833
 30
0.0
 11
-747.5234078270605
 21
-84.01628061511583
 31
0.0
  0
LINE
  5
144
  8
CUT
 10
-747.569184694712
 20
-84.06795201712423
 30
0.0
 11
-747.5467422680882
 21
-84.04172118821833
 31
0.0
  0
LINE
  5
145
  8
CUT
 10
-747.5907083618682
 20
-84.09494184205903
 30
0.0
 11
-747.569184694712
 21
-84.06795201712423
 31
0.0
  0
LINE
  5
146
  8
CUT
 10
-747.6112876193956
 20
-84.12265849873833
 30
0.0
 11
-747.5907083618682
 21
-84.09494184205903
 31
0.0
  0
LINE
  5
147
  8
CUT
 10
-747.6308979426043
 20
-84.15106895669862
 30
0.0
 11
-747.6112876193956
 21
-84.12265849873833
 31
0.0
  0
LINE
  5
148
  8
CUT
 10
-747.6495159615014
 20
-84.18013935866013
 30
0.0
 11
-747.6308979426043
 21
-84.15106895669862
 31
0.0
  0
LINE
  5
149
  8
CUT
 10
-747.667119488642
 20
-84.20983506087552
 30
0.0
 11
-747.6495159615014
 21
-84.18013935866013
 31
0.0
  0
LINE
  5
14A
  8
CUT
 10
-747.6836875455703
 20
-84.24012067441532
 30
0.0
 11
-747.667119488642
 21
-84.20983506087552
 31
0.0
  0
LINE
  5
14B
  8
CUT
 10
-747.6992003878196
 20
-84.27096010734162
 30
0.0
 11
-747.6836875455703
 21
-84.24012067441532
 31
0.0
  0
LINE
  5
14C
  8
CUT
 10
-747.7136395284425
 20
-84.30231660771922
 30
0.0
 11
-747.6992003878196
 21
-84.27096010734162
 31
0.0
  0
LINE
  5
14D
  8
CUT
 10
-747.7269877600424
 20
-84.33415280741413
 30
0.0
 11
-747.7136395284425
 21
-84.30231660771922
 31
0.0
  0
LINE
  5
14E
  8
CUT
 10
-747.7392291752795
 20
-84.36643076662553
 30
0.0
 11
-747.7269877600424
 21
-84.33415280741413
 31
0.0
  0
LINE
  5
14F
  8
CUT
 10
-747.7503491858279
 20
-84.39911201909943
 30
0.0
 11
-747.7392291752795
 21
-84.36643076662553
 31
0.0
  0
LINE
  5
150
  8
CUT
 10
-747.7603345397607
 20
-84.43215761796962
 30
0.0
 11
-747.7503491858279
 21
-84.39911201909943
 31
0.0
  0
LINE
  5
151
  8
CUT
 10
-747.7691733373432
 20
-84.46552818217162
 30
0.0
 11
-747.7603345397607
 21
-84.43215761796962
 31
0.0
  0
LINE
  5
152
  8
CUT
 10
-747.7768550452131
 20
-84.49918394337323
 30
0.0
 11
-747.7691733373432
 21
-84.46552818217162
 31
0.0
  0
LINE
  5
153
  8
CUT
 10
-747.783370508934
 20
-84.53308479336793
 30
0.0
 11
-747.7768550452131
 21
-84.49918394337323
 31
0.0
  0
LINE
  5
154
  8
CUT
 10
-747.7887119639047
 20
-84.56719033187203
 30
0.0
 11
-747.783370508934
 21
-84.53308479336793
 31
0.0
  0
LINE
  5
155
  8
CUT
 10
-747.7928730446123
 20
-84.60145991467083
 30
0.0
 11
-747.7887119639047
 21
-84.56719033187203
 31
0.0
  0
LINE
  5
156
  8
CUT
 10
-747.7958487922183
 20
-84.63585270205483
 30
0.0
 11
-747.7928730446123
 21
-84.60145991467083
 31
0.0
  0
LINE
  5
157
  8
CUT
 10
-747.7976356604681
 20
-84.67032770748952
 30
0.0
 11
-747.7958487922183
 21
-84.63585270205483
 31
0.0
  0
LINE
  5
158
  8
CUT
 10
-747.7982315199171
 20
-84.70484384645923
 30
0.0
 11
-747.7976356604681
 21
-84.67032770748952
 31
0.0
  0
LINE
  5
159
  8
CUT
 10
-749.4266586446682
 20
-84.70484384646213
 30
0.0
 11
-747.7982315199171
 21
-84.70484384645923
 31
0.0
  0
LINE
  5
15A
  8
CUT
 10
-749.5251228282408
 20
-84.59716605773343
 30
0.0
 11
-749.4266586446682
 21
-84.70484384646213
 31
0.0
  0
LINE
  5
15B
  8
CUT
 10
-749.6198613391151
 20
-84.48619616907243
 30
0.0
 11
-749.5251228282408
 21
-84.59716605773343
 31
0.0
  0
LINE
  5
15C
  8
CUT
 10
-749.7107641804714
 20
-84.37206302285503
 30
0.0
 11
-749.6198613391151
 21
-84.48619616907243
 31
0.0
  0
LINE
  5
15D
  8
CUT
 10
-749.7977258089213
 20
-84.25489913418002
 30
0.0
 11
-749.7107641804714
 21
-84.37206302285503
 31
0.0
  0
LINE
  5
15E
  8
CUT
 10
-749.8806452570495
 20
-84.13484053701083
 30
0.0
 11
-749.7977258089213
 21
-84.25489913418002
 31
0.0
  0
LINE
  5
15F
  8
CUT
 10
-749.959426250643
 20
-84.01202662623302
 30
0.0
 11
-749.8806452570495
 21
-84.13484053701083
 31
0.0
  0
LINE
  5
160
  8
CUT
 10
-750.0339773204705
 20
-83.88659999580833
 30
0.0
 11
-749.959426250643
 21
-84.01202662623302
 31
0.0
  0
LINE
  5
161
  8
CUT
 10
-750.104211908484
 20
-83.75870627321522
 30
0.0
 11
-750.0339773204705
 21
-83.88659999580833
 31
0.0
  0
LINE
  5
162
  8
CUT
 10
-750.170048468317
 20
-83.62849395036723
 30
0.0
 11
-750.104211908484
 21
-83.75870627321522
 31
0.0
  0
LINE
  5
163
  8
CUT
 10
-750.2314105599648
 20
-83.49611421120483
 30
0.0
 11
-750.170048468317
 21
-83.62849395036723
 31
0.0
  0
LINE
  5
164
  8
CUT
 10
-750.2882269385362
 20
-83.36172075616273
 30
0.0
 11
-750.2314105599648
 21
-83.49611421120483
 31
0.0
  0
LINE
  5
165
  8
CUT
 10
-750.3404316369719
 20
-83.22546962371473
 30
0.0
 11
-750.2882269385362
 21
-83.36172075616273
 31
0.0
  0
LINE
  5
166
  8
CUT
 10
-750.3879640426366
 20
-83.08751900920413
 30
0.0
 11
-750.3404316369719
 21
-83.22546962371473
 31
0.0
  0
LINE
  5
167
  8
CUT
 10
-750.4307689676937
 20
-82.94802908116992
 30
0.0
 11
-750.3879640426366
 21
-83.08751900920413
 31
0.0
  0
LINE
  5
168
  8
CUT
 10
-750.4687967131814
 20
-82.80716179538213
 30
0.0
 11
-750.4307689676937
 21
-82.94802908116992
 31
0.0
  0
LINE
  5
169
  8
CUT
 10
-750.5020031267167
 20
-82.66508070680143
 30
0.0
 11
-750.4687967131814
 21
-82.80716179538213
 31
0.0
  0
LINE
  5
16A
  8
CUT
 10
-750.530349653757
 20
-82.52195077968322
 30
0.0
 11
-750.5020031267167
 21
-82.66508070680143
 31
0.0
  0
LINE
  5
16B
  8
CUT
 10
-750.5538033823666
 20
-82.37793819604403
 30
0.0
 11
-750.530349653757
 21
-82.52195077968322
 31
0.0
  0
LINE
  5
16C
  8
CUT
 10
-750.5723370814275
 20
-82.23321016271522
 30
0.0
 11
-750.5538033823666
 21
-82.37793819604403
 31
0.0
  0
LINE
  5
16D
  8
CUT
 10
-750.585929232257
 20
-82.08793471720583
 30
0.0
 11
-750.5723370814275
 21
-82.23321016271522
 31
0.0
  0
LINE
  5
16E
  8
CUT
 10
-750.5945640535921
 20
-81.94228053260193
 30
0.0
 11
-750.585929232257
 21
-82.08793471720583
 31
0.0
  0
LINE
  5
16F
  8
CUT
 10
-750.598231519912
 20
-81.79641672172713
 30
0.0
 11
-750.5945640535921
 21
-81.94228053260193
 31
0.0
  0
LINE
  5
170
  8
CUT
 10
-750.5982315199119
 20
-79.45327097121343
 30
0.0
 11
-750.598231519912
 21
-81.79641672172713
 31
0.0
  0
LINE
  5
171
  8
CUT
 10
-750.5945640535922
 20
-79.30740716033793
 30
0.0
 11
-750.5982315199119
 21
-79.45327097121343
 31
0.0
  0
LINE
  5
172
  8
CUT
 10
-750.5859292322575
 20
-79.16175297573332
 30
0.0
 11
-750.5945640535922
 21
-79.30740716033793
 31
0.0
  0
LINE
  5
173
  8
CUT
 10
-750.5723370814281
 20
-79.01647753022323
 30
0.0
 11
-750.5859292322575
 21
-79.16175297573332
 31
0.0
  0
LINE
  5
174
  8
CUT
 10
-750.5538033823675
 20
-78.87174949689363
 30
0.0
 11
-750.5723370814281
 21
-79.01647753022323
 31
0.0
  0
LINE
  5
175
  8
CUT
 10
-750.530349653758
 20
-78.72773691325372
 30
0.0
 11
-750.5538033823675
 21
-78.87174949689363
 31
0.0
  0
LINE
  5
176
  8
CUT
 10
-750.5020031267178
 20
-78.58460698613473
 30
0.0
 11
-750.530349653758
 21
-78.72773691325372
 31
0.0
  0
LINE
  5
177
  8
CUT
 10
-750.4687967131828
 20
-78.44252589755332
 30
0.0
 11
-750.5020031267178
 21
-78.58460698613473
 31
0.0
  0
LINE
  5
178
  8
CUT
 10
-750.4307689676949
 20
-78.30165861176472
 30
0.0
 11
-750.4687967131828
 21
-78.44252589755332
 31
0.0
  0
LINE
  5
179
  8
CUT
 10
-750.3879640426379
 20
-78.16216868372983
 30
0.0
 11
-750.4307689676949
 21
-78.30165861176472
 31
0.0
  0
LINE
  5
17A
  8
CUT
 10
-750.3404316369733
 20
-78.02421806921852
 30
0.0
 11
-750.3879640426379
 21
-78.16216868372983
 31
0.0
  0
LINE
  5
17B
  8
CUT
 10
-750.2882269385377
 20
-77.88796693676973
 30
0.0
 11
-750.3404316369733
 21
-78.02421806921852
 31
0.0
  0
LINE
  5
17C
  8
CUT
 10
-750.2314105599663
 20
-77.75357348172683
 30
0.0
 11
-750.2882269385377
 21
-77.88796693676973
 31
0.0
  0
LINE
  5
17D
  8
CUT
 10
-750.1700484683183
 20
-77.62119374256363
 30
0.0
 11
-750.2314105599663
 21
-77.75357348172683
 31
0.0
  0
LINE
  5
17E
  8
CUT
 10
-750.1042119084854
 20
-77.49098141971483
 30
0.0
 11
-750.1700484683183
 21
-77.62119374256363
 31
0.0
  0
LINE
  5
17F
  8
CUT
 10
-750.0339773204718
 20
-77.36308769712113
 30
0.0
 11
-750.1042119084854
 21
-77.49098141971483
 31
0.0
  0
LINE
  5
180
  8
CUT
 10
-749.9594262506441
 20
-77.23766106669562
 30
0.0
 11
-750.0339773204718
 21
-77.36308769712113
 31
0.0
  0
LINE
  5
181
  8
CUT
 10
-749.8806452570507
 20
-77.11484715591703
 30
0.0
 11
-749.9594262506441
 21
-77.23766106669562
 31
0.0
  0
LINE
  5
182
  8
CUT
 10
-749.7977258089222
 20
-76.99478855874713
 30
0.0
 11
-749.8806452570507
 21
-77.11484715591703
 31
0.0
  0
LINE
  5
183
  8
CUT
 10
-749.7107641804721
 20
-76.87762467007133
 30
0.0
 11
-749.7977258089222
 21
-76.99478855874713
 31
0.0
  0
LINE
  5
184
  8
CUT
 10
-749.6198613391156
 20
-76.76349152385323
 30
0.0
 11
-749.7107641804721
 21
-76.87762467007133
 31
0.0
  0
LINE
  5
185
  8
CUT
 10
-749.525122828241
 20
-76.65252163519153
 30
0.0
 11
-749.6198613391156
 21
-76.76349152385323
 31
0.0
  0
LINE
  5
186
  8
CUT
 10
-749.4266586446682
 20
-76.54484384646203
 30
0.0
 11
-749.525122828241
 21
-76.65252163519153
 31
0.0
  0
LINE
  5
187
  8
CUT
 10
-747.7982315199171
 20
-76.54484384646493
 30
0.0
 11
-749.4266586446682
 21
-76.54484384646203
 31
0.0
  0
LINE
  5
189
  8
DEFAULT
 10
-787.1170361682954
 20
-64.38074561895209
 30
0.0
 11
-786.7034236922746
 21
-65.67220059809324
 31
0.0
  0
LINE
  5
18A
  8
DEFAULT
 10
-786.7034236922746
 20
-65.67220059809324
 30
0.0
 11
-786.2165157844072
 21
-66.937843491142
 31
0.0
  0
LINE
  5
18B
  8
DEFAULT
 10
-786.2165157844072
 20
-66.937843491142
 30
0.0
 11
-785.657911300376
 21
-68.17351831644548
 31
0.0
  0
LINE
  5
18C
  8
DEFAULT
 10
-785.657911300376
 20
-68.17351831644548
 30
0.0
 11
-785.0294445253489
 21
-69.37516749826007
 31
0.0
  0
LINE
  5
18D
  8
DEFAULT
 10
-785.0294445253489
 20
-69.37516749826007
 30
0.0
 11
-784.3331791507518
 21
-70.53884519058114
 31
0.0
  0
LINE
  5
18E
  8
DEFAULT
 10
-784.3331791507518
 20
-70.53884519058114
 30
0.0
 11
-783.5714014977408
 21
-71.6607302340867
 31
0.0
  0
LINE
  5
18F
  8
DEFAULT
 10
-783.5714014977408
 20
-71.6607302340867
 30
0.0
 11
-782.746613009627
 21
-72.73713870364817
 31
0.0
  0
LINE
  5
190
  8
DEFAULT
 10
-782.746613009627
 20
-72.73713870364817
 30
0.0
 11
-781.8615220379078
 21
-73.76453600520668
 31
0.0
  0
LINE
  5
191
  8
DEFAULT
 10
-781.8615220379078
 20
-73.76453600520668
 30
0.0
 11
-780.919034948873
 21
-74.73954848229165
 31
0.0
  0
LINE
  5
192
  8
DEFAULT
 10
-780.919034948873
 20
-74.73954848229165
 30
0.0
 11
-779.9222465799936
 21
-75.65897449407035
 31
0.0
  0
LINE
  5
193
  8
DEFAULT
 10
-779.9222465799936
 20
-75.65897449407035
 30
0.0
 11
-778.8744300774276
 21
-76.51979492855068
 31
0.0
  0
LINE
  5
194
  8
DEFAULT
 10
-778.8744300774276
 20
-76.51979492855068
 30
0.0
 11
-777.7790261480159
 21
-77.31918311641557
 31
0.0
  0
LINE
  5
195
  8
DEFAULT
 10
-777.7790261480159
 20
-77.31918311641557
 30
0.0
 11
-776.6396317610602
 21
-78.05451411293495
 31
0.0
  0
LINE
  5
196
  8
DEFAULT
 10
-776.6396317610602
 20
-78.05451411293495
 30
0.0
 11
-775.4599883369826
 21
-78.7233733174761
 31
0.0
  0
LINE
  5
197
  8
DEFAULT
 10
-775.4599883369826
 20
-78.7233733174761
 30
0.0
 11
-774.2439694616539
 21
-79.32356440230892
 31
0.0
  0
LINE
  5
198
  8
DEFAULT
 10
-774.2439694616539
 20
-79.32356440230892
 30
0.0
 11
-772.9955681667285
 21
-79.85311652467003
 31
0.0
  0
LINE
  5
199
  8
DEFAULT
 10
-772.9955681667285
 20
-79.85311652467003
 30
0.0
 11
-771.7188838177585
 21
-80.31029079840373
 31
0.0
  0
LINE
  5
19A
  8
DEFAULT
 10
-771.7188838177585
 20
-80.31029079840373
 30
0.0
 11
-770.4181086531395
 21
-80.69358600392884
 31
0.0
  0
LINE
  5
19B
  8
DEFAULT
 10
-770.4181086531395
 20
-80.69358600392884
 30
0.0
 11
-769.0975140180888
 21
-81.00174351778175
 31
0.0
  0
LINE
  5
19C
  8
DEFAULT
 10
-769.0975140180888
 20
-81.00174351778175
 30
0.0
 11
-767.7614363388642
 21
-81.23375144554831
 31
0.0
  0
LINE
  5
19D
  8
DEFAULT
 10
-767.7614363388642
 20
-81.23375144554831
 30
0.0
 11
-766.4142628832742
 21
-81.38884794461362
 31
0.0
  0
LINE
  5
19E
  8
DEFAULT
 10
-766.4142628832742
 20
-81.38884794461362
 30
0.0
 11
-765.0604173542412
 21
-81.46652372581876
 31
0.0
  0
LINE
  5
19F
  8
DEFAULT
 10
-765.0604173542412
 20
-81.46652372581876
 30
0.0
 11
-763.7043453637228
 21
-81.46652372580951
 31
0.0
  0
LINE
  5
1A0
  8
DEFAULT
 10
-763.7043453637228
 20
-81.46652372580951
 30
0.0
 11
-762.3504998346908
 21
-81.38884794458588
 31
0.0
  0
LINE
  5
1A1
  8
DEFAULT
 10
-762.3504998346908
 20
-81.38884794458588
 30
0.0
 11
-761.003326379103
 21
-81.23375144550215
 31
0.0
  0
LINE
  5
1A2
  8
DEFAULT
 10
-761.003326379103
 20
-81.23375144550215
 30
0.0
 11
-759.6672486998816
 21
-81.00174351771734
 31
0.0
  0
LINE
  5
1A3
  8
DEFAULT
 10
-759.6672486998816
 20
-81.00174351771734
 30
0.0
 11
-758.3466540648351
 21
-80.69358600384642
 31
0.0
  0
LINE
  5
1A4
  8
DEFAULT
 10
-758.3466540648351
 20
-80.69358600384642
 30
0.0
 11
-757.0458789002212
 21
-80.31029079830353
 31
0.0
  0
LINE
  5
1A5
  8
DEFAULT
 10
-757.0458789002212
 20
-80.31029079830353
 30
0.0
 11
-755.7691945512577
 21
-79.85311652455239
 31
0.0
  0
LINE
  5
1A6
  8
DEFAULT
 10
-755.7691945512577
 20
-79.85311652455239
 30
0.0
 11
-754.5207932563394
 21
-79.32356440217424
 31
0.0
  0
LINE
  5
1A7
  8
DEFAULT
 10
-754.5207932563394
 20
-79.32356440217424
 30
0.0
 11
-753.3047743810188
 21
-78.72337331732481
 31
0.0
  0
LINE
  5
1A8
  8
DEFAULT
 10
-753.3047743810188
 20
-78.72337331732481
 30
0.0
 11
-752.1251309569506
 21
-78.05451411276754
 31
0.0
  0
LINE
  5
1A9
  8
DEFAULT
 10
-752.1251309569506
 20
-78.05451411276754
 30
0.0
 11
-750.9857365700047
 21
-77.31918311623261
 31
0.0
  0
LINE
  5
1AA
  8
DEFAULT
 10
-750.9857365700047
 20
-77.31918311623261
 30
0.0
 11
-749.8903326406039
 21
-76.51979492835275
 31
0.0
  0
LINE
  5
1AB
  8
DEFAULT
 10
-749.8903326406039
 20
-76.51979492835275
 30
0.0
 11
-748.8425161380497
 21
-75.65897449385812
 31
0.0
  0
LINE
  5
1AC
  8
DEFAULT
 10
-748.8425161380497
 20
-75.65897449385812
 30
0.0
 11
-747.8457277691829
 21
-74.73954848206579
 31
0.0
  0
LINE
  5
1AD
  8
DEFAULT
 10
-747.8457277691829
 20
-74.73954848206579
 30
0.0
 11
-746.9032406801614
 21
-73.76453600496794
 31
0.0
  0
LINE
  5
1AE
  8
DEFAULT
 10
-746.9032406801614
 20
-73.76453600496794
 30
0.0
 11
-746.0181497084562
 21
-72.73713870339735
 31
0.0
  0
LINE
  5
1AF
  8
DEFAULT
 10
-746.0181497084562
 20
-72.73713870339735
 30
0.0
 11
-745.1933612203572
 21
-71.66073023382461
 31
0.0
  0
LINE
  5
1B0
  8
DEFAULT
 10
-745.1933612203572
 20
-71.66073023382461
 30
0.0
 11
-744.4315835673614
 21
-70.53884519030868
 31
0.0
  0
LINE
  5
1B1
  8
DEFAULT
 10
-744.4315835673614
 20
-70.53884519030868
 30
0.0
 11
-743.7353181927803
 21
-69.37516749797807
 31
0.0
  0
LINE
  5
1B2
  8
DEFAULT
 10
-743.7353181927803
 20
-69.37516749797807
 30
0.0
 11
-743.1068514177696
 21
-68.17351831615491
 31
0.0
  0
LINE
  5
1B3
  8
DEFAULT
 10
-743.1068514177696
 20
-68.17351831615491
 30
0.0
 11
-742.5482469337552
 21
-66.93784349084382
 31
0.0
  0
LINE
  5
1B4
  8
DEFAULT
 10
-742.5482469337552
 20
-66.93784349084382
 30
0.0
 11
-742.0613390259051
 21
-65.6722005977884
 31
0.0
  0
LINE
  5
1B5
  8
DEFAULT
 10
-742.0613390259051
 20
-65.6722005977884
 30
0.0
 11
-741.647726549902
 21
-64.38074561864153
 31
0.0
  0
LINE
  5
1B6
  8
DEFAULT
 10
-741.647726549902
 20
-64.38074561864153
 30
0.0
 11
-742.0613390259228
 21
-63.0892906395003
 31
0.0
  0
LINE
  5
1B7
  8
DEFAULT
 10
-742.0613390259228
 20
-63.0892906395003
 30
0.0
 11
-742.5482469337901
 21
-61.82364774645153
 31
0.0
  0
LINE
  5
1B8
  8
DEFAULT
 10
-742.5482469337901
 20
-61.82364774645153
 30
0.0
 11
-743.1068514178213
 21
-60.58797292114806
 31
0.0
  0
LINE
  5
1B9
  8
DEFAULT
 10
-743.1068514178213
 20
-60.58797292114806
 30
0.0
 11
-743.7353181928484
 21
-59.38632373933346
 31
0.0
  0
LINE
  5
1BA
  8
DEFAULT
 10
-743.7353181928484
 20
-59.38632373933346
 30
0.0
 11
-744.4315835674455
 21
-58.22264604701237
 31
0.0
  0
LINE
  5
1BB
  8
DEFAULT
 10
-744.4315835674455
 20
-58.22264604701237
 30
0.0
 11
-745.1933612204566
 21
-57.10076100350681
 31
0.0
  0
LINE
  5
1BC
  8
DEFAULT
 10
-745.1933612204566
 20
-57.10076100350681
 30
0.0
 11
-746.0181497085704
 21
-56.02435253394533
 31
0.0
  0
LINE
  5
1BD
  8
DEFAULT
 10
-746.0181497085704
 20
-56.02435253394533
 30
0.0
 11
-746.9032406802895
 21
-54.99695523238685
 31
0.0
  0
LINE
  5
1BE
  8
DEFAULT
 10
-746.9032406802895
 20
-54.99695523238685
 30
0.0
 11
-747.8457277693243
 21
-54.02194275530184
 31
0.0
  0
LINE
  5
1BF
  8
DEFAULT
 10
-747.8457277693243
 20
-54.02194275530184
 30
0.0
 11
-748.8425161382038
 21
-53.10251674352313
 31
0.0
  0
LINE
  5
1C0
  8
DEFAULT
 10
-748.8425161382038
 20
-53.10251674352313
 30
0.0
 11
-749.8903326407698
 21
-52.2416963090428
 31
0.0
  0
LINE
  5
1C1
  8
DEFAULT
 10
-749.8903326407698
 20
-52.2416963090428
 30
0.0
 11
-750.9857365701815
 21
-51.44230812117789
 31
0.0
  0
LINE
  5
1C2
  8
DEFAULT
 10
-750.9857365701815
 20
-51.44230812117789
 30
0.0
 11
-752.1251309571372
 21
-50.70697712465851
 31
0.0
  0
LINE
  5
1C3
  8
DEFAULT
 10
-752.1251309571372
 20
-50.70697712465851
 30
0.0
 11
-753.3047743812147
 21
-50.03811792011737
 31
0.0
  0
LINE
  5
1C4
  8
DEFAULT
 10
-753.3047743812147
 20
-50.03811792011737
 30
0.0
 11
-754.5207932565436
 21
-49.43792683528454
 31
0.0
  0
LINE
  5
1C5
  8
DEFAULT
 10
-754.5207932565436
 20
-49.43792683528454
 30
0.0
 11
-755.7691945514688
 21
-48.90837471292344
 31
0.0
  0
LINE
  5
1C6
  8
DEFAULT
 10
-755.7691945514688
 20
-48.90837471292344
 30
0.0
 11
-757.0458789004388
 21
-48.45120043918973
 31
0.0
  0
LINE
  5
1C7
  8
DEFAULT
 10
-757.0458789004388
 20
-48.45120043918973
 30
0.0
 11
-758.346654065058
 21
-48.0679052336646
 31
0.0
  0
LINE
  5
1C8
  8
DEFAULT
 10
-758.346654065058
 20
-48.0679052336646
 30
0.0
 11
-759.6672487001085
 21
-47.75974771981169
 31
0.0
  0
LINE
  5
1C9
  8
DEFAULT
 10
-759.6672487001085
 20
-47.75974771981169
 30
0.0
 11
-761.0033263793332
 21
-47.52773979204515
 31
0.0
  0
LINE
  5
1CA
  8
DEFAULT
 10
-761.0033263793332
 20
-47.52773979204515
 30
0.0
 11
-762.3504998349231
 21
-47.37264329297982
 31
0.0
  0
LINE
  5
1CB
  8
DEFAULT
 10
-762.3504998349231
 20
-47.37264329297982
 30
0.0
 11
-763.7043453639562
 21
-47.29496751177468
 31
0.0
  0
LINE
  5
1CC
  8
DEFAULT
 10
-763.7043453639562
 20
-47.29496751177468
 30
0.0
 11
-765.0604173544747
 21
-47.29496751178394
 31
0.0
  0
LINE
  5
1CD
  8
DEFAULT
 10
-765.0604173544747
 20
-47.29496751178394
 30
0.0
 11
-766.4142628835066
 21
-47.37264329300758
 31
0.0
  0
LINE
  5
1CE
  8
DEFAULT
 10
-766.4142628835066
 20
-47.37264329300758
 30
0.0
 11
-767.7614363390945
 21
-47.5277397920913
 31
0.0
  0
LINE
  5
1CF
  8
DEFAULT
 10
-767.7614363390945
 20
-47.5277397920913
 30
0.0
 11
-769.0975140183158
 21
-47.7597477198761
 31
0.0
  0
LINE
  5
1D0
  8
DEFAULT
 10
-769.0975140183158
 20
-47.7597477198761
 30
0.0
 11
-770.4181086533623
 21
-48.06790523374704
 31
0.0
  0
LINE
  5
1D1
  8
DEFAULT
 10
-770.4181086533623
 20
-48.06790523374704
 30
0.0
 11
-771.7188838179762
 21
-48.45120043928994
 31
0.0
  0
LINE
  5
1D2
  8
DEFAULT
 10
-771.7188838179762
 20
-48.45120043928994
 30
0.0
 11
-772.9955681669398
 21
-48.90837471304108
 31
0.0
  0
LINE
  5
1D3
  8
DEFAULT
 10
-772.9955681669398
 20
-48.90837471304108
 30
0.0
 11
-774.243969461858
 21
-49.43792683541923
 31
0.0
  0
LINE
  5
1D4
  8
DEFAULT
 10
-774.243969461858
 20
-49.43792683541923
 30
0.0
 11
-775.4599883371785
 21
-50.03811792026866
 31
0.0
  0
LINE
  5
1D5
  8
DEFAULT
 10
-775.4599883371785
 20
-50.03811792026866
 30
0.0
 11
-776.639631761247
 21
-50.70697712482593
 31
0.0
  0
LINE
  5
1D6
  8
DEFAULT
 10
-776.639631761247
 20
-50.70697712482593
 30
0.0
 11
-777.7790261481927
 21
-51.44230812136087
 31
0.0
  0
LINE
  5
1D7
  8
DEFAULT
 10
-777.7790261481927
 20
-51.44230812136087
 30
0.0
 11
-778.8744300775935
 21
-52.24169630924074
 31
0.0
  0
LINE
  5
1D8
  8
DEFAULT
 10
-778.8744300775935
 20
-52.24169630924074
 30
0.0
 11
-779.9222465801477
 21
-53.10251674373539
 31
0.0
  0
LINE
  5
1D9
  8
DEFAULT
 10
-779.9222465801477
 20
-53.10251674373539
 30
0.0
 11
-780.9190349490145
 21
-54.0219427555277
 31
0.0
  0
LINE
  5
1DA
  8
DEFAULT
 10
-780.9190349490145
 20
-54.0219427555277
 30
0.0
 11
-781.861522038036
 21
-54.99695523262558
 31
0.0
  0
LINE
  5
1DB
  8
DEFAULT
 10
-781.861522038036
 20
-54.99695523262558
 30
0.0
 11
-782.7466130097412
 21
-56.02435253419615
 31
0.0
  0
LINE
  5
1DC
  8
DEFAULT
 10
-782.7466130097412
 20
-56.02435253419615
 30
0.0
 11
-783.5714014978402
 21
-57.10076100376892
 31
0.0
  0
LINE
  5
1DD
  8
DEFAULT
 10
-783.5714014978402
 20
-57.10076100376892
 30
0.0
 11
-784.3331791508359
 21
-58.22264604728486
 31
0.0
  0
LINE
  5
1DE
  8
DEFAULT
 10
-784.3331791508359
 20
-58.22264604728486
 30
0.0
 11
-785.0294445254171
 21
-59.38632373961546
 31
0.0
  0
LINE
  5
1DF
  8
DEFAULT
 10
-785.0294445254171
 20
-59.38632373961546
 30
0.0
 11
-785.6579113004278
 21
-60.58797292143865
 31
0.0
  0
LINE
  5
1E0
  8
DEFAULT
 10
-785.6579113004278
 20
-60.58797292143865
 30
0.0
 11
-786.2165157844422
 21
-61.82364774674975
 31
0.0
  0
LINE
  5
1E1
  8
DEFAULT
 10
-786.2165157844422
 20
-61.82364774674975
 30
0.0
 11
-786.7034236922923
 21
-63.08929063980516
 31
0.0
  0
LINE
  5
1E2
  8
DEFAULT
 10
-786.7034236922923
 20
-63.08929063980516
 30
0.0
 11
-787.1170361682955
 21
-64.38074561895199
 31
0.0
  0
LINE
  5
1E3
  8
DEFAULT
 10
-748.2221780147053
 20
-98.67961729343634
 30
0.0
 11
-748.267727329984
 21
-98.62699747810308
 31
0.0
  0
LINE
  5
1E4
  8
DEFAULT
 10
-748.1784771014668
 20
-98.73378199845907
 30
0.0
 11
-748.2221780147053
 21
-98.67961729343634
 31
0.0
  0
LINE
  5
1E5
  8
DEFAULT
 10
-748.1366769499116
 20
-98.78942669648166
 30
0.0
 11
-748.1784771014668
 21
-98.73378199845907
 31
0.0
  0
LINE
  5
1E6
  8
DEFAULT
 10
-748.0968276423108
 20
-98.84648471758136
 30
0.0
 11
-748.1366769499116
 21
-98.78942669648166
 31
0.0
  0
LINE
  5
1E7
  8
DEFAULT
 10
-748.0589769235596
 20
-98.90488769848206
 30
0.0
 11
-748.0968276423108
 21
-98.84648471758136
 31
0.0
  0
LINE
  5
1E8
  8
DEFAULT
 10
-748.0231701439712
 20
-98.96456566446265
 30
0.0
 11
-748.0589769235596
 21
-98.90488769848206
 31
0.0
  0
LINE
  5
1E9
  8
DEFAULT
 10
-747.9894502049418
 20
-99.0254471131964
 30
0.0
 11
-748.0231701439712
 21
-98.96456566446265
 31
0.0
  0
LINE
  5
1EA
  8
DEFAULT
 10
-747.9578575075483
 20
-99.08745910042045
 30
0.0
 11
-747.9894502049418
 21
-99.0254471131964
 31
0.0
  0
LINE
  5
1EB
  8
DEFAULT
 10
-747.9284299041426
 20
-99.15052732733282
 30
0.0
 11
-747.9578575075483
 21
-99.08745910042045
 31
0.0
  0
LINE
  5
1EC
  8
DEFAULT
 10
-747.9012026529995
 20
-99.2145762296127
 30
0.0
 11
-747.9284299041426
 21
-99.15052732733282
 31
0.0
  0
LINE
  5
1ED
  8
DEFAULT
 10
-747.876208376072
 20
-99.2795290679567
 30
0.0
 11
-747.9012026529995
 21
-99.2145762296127
 31
0.0
  0
LINE
  5
1EE
  8
DEFAULT
 10
-747.8534770199061
 20
-99.34530802002291
 30
0.0
 11
-747.876208376072
 21
-99.2795290679567
 31
0.0
  0
LINE
  5
1EF
  8
DEFAULT
 10
-747.8330358197608
 20
-99.4118342736728
 30
0.0
 11
-747.8534770199061
 21
-99.34530802002291
 31
0.0
  0
LINE
  5
1F0
  8
DEFAULT
 10
-747.8149092669762
 20
-99.47902812139878
 30
0.0
 11
-747.8330358197608
 21
-99.4118342736728
 31
0.0
  0
LINE
  5
1F1
  8
DEFAULT
 10
-747.8149092669762
 20
-109.4790281214045
 30
0.0
 11
-747.8149092669762
 21
-99.47902812139878
 31
0.0
  0
LINE
  5
1F2
  8
DEFAULT
 10
-747.8330358197607
 20
-109.5462219691305
 30
0.0
 11
-747.8149092669762
 21
-109.4790281214045
 31
0.0
  0
LINE
  5
1F3
  8
DEFAULT
 10
-747.853477019906
 20
-109.6127482227804
 30
0.0
 11
-747.8330358197607
 21
-109.5462219691305
 31
0.0
  0
LINE
  5
1F4
  8
DEFAULT
 10
-747.876208376072
 20
-109.6785271748466
 30
0.0
 11
-747.853477019906
 21
-109.6127482227804
 31
0.0
  0
LINE
  5
1F5
  8
DEFAULT
 10
-747.9012026529995
 20
-109.7434800131906
 30
0.0
 11
-747.876208376072
 21
-109.6785271748466
 31
0.0
  0
LINE
  5
1F6
  8
DEFAULT
 10
-747.9284299041426
 20
-109.8075289154705
 30
0.0
 11
-747.9012026529995
 21
-109.7434800131906
 31
0.0
  0
LINE
  5
1F7
  8
DEFAULT
 10
-747.9578575075483
 20
-109.8705971423829
 30
0.0
 11
-747.9284299041426
 21
-109.8075289154705
 31
0.0
  0
LINE
  5
1F8
  8
DEFAULT
 10
-747.9894502049417
 20
-109.9326091296069
 30
0.0
 11
-747.9578575075483
 21
-109.8705971423829
 31
0.0
  0
LINE
  5
1F9
  8
DEFAULT
 10
-748.0231701439711
 20
-109.9934905783407
 30
0.0
 11
-747.9894502049417
 21
-109.9326091296069
 31
0.0
  0
LINE
  5
1FA
  8
DEFAULT
 10
-748.0589769235596
 20
-110.0531685443213
 30
0.0
 11
-748.0231701439711
 21
-109.9934905783407
 31
0.0
  0
LINE
  5
1FB
  8
DEFAULT
 10
-748.0968276423108
 20
-110.1115715252219
 30
0.0
 11
-748.0589769235596
 21
-110.0531685443213
 31
0.0
  0
LINE
  5
1FC
  8
DEFAULT
 10
-748.1366769499115
 20
-110.1686295463217
 30
0.0
 11
-748.0968276423108
 21
-110.1115715252219
 31
0.0
  0
LINE
  5
1FD
  8
DEFAULT
 10
-748.1784771014668
 20
-110.2242742443442
 30
0.0
 11
-748.1366769499115
 21
-110.1686295463217
 31
0.0
  0
LINE
  5
1FE
  8
DEFAULT
 10
-748.2221780147053
 20
-110.278438949367
 30
0.0
 11
-748.1784771014668
 21
-110.2242742443442
 31
0.0
  0
LINE
  5
1FF
  8
DEFAULT
 10
-748.267727329984
 20
-110.3310587647002
 30
0.0
 11
-748.2221780147053
 21
-110.278438949367
 31
0.0
  0
LINE
  5
200
  8
DEFAULT
 10
-748.3150704730233
 20
-110.3820706446425
 30
0.0
 11
-748.267727329984
 21
-110.3310587647002
 31
0.0
  0
LINE
  5
201
  8
DEFAULT
 10
-748.364150720293
 20
-110.4314134700177
 30
0.0
 11
-748.3150704730233
 21
-110.3820706446425
 31
0.0
  0
LINE
  5
202
  8
DEFAULT
 10
-748.4149092669761
 20
-110.4790281214045
 30
0.0
 11
-748.364150720293
 21
-110.4314134700177
 31
0.0
  0
LINE
  5
203
  8
DEFAULT
 10
-749.2149092669761
 20
-110.4790281214016
 30
0.0
 11
-748.4149092669761
 21
-110.4790281214045
 31
0.0
  0
LINE
  5
204
  8
DEFAULT
 10
-749.215505126425
 20
-110.4445119824318
 30
0.0
 11
-749.2149092669761
 21
-110.4790281214016
 31
0.0
  0
LINE
  5
205
  8
DEFAULT
 10
-749.2172919946748
 20
-110.4100369769972
 30
0.0
 11
-749.215505126425
 21
-110.4445119824318
 31
0.0
  0
LINE
  5
206
  8
DEFAULT
 10
-749.2202677422808
 20
-110.3756441896132
 30
0.0
 11
-749.2172919946748
 21
-110.4100369769972
 31
0.0
  0
LINE
  5
207
  8
DEFAULT
 10
-749.2244288229886
 20
-110.3413746068144
 30
0.0
 11
-749.2202677422808
 21
-110.3756441896132
 31
0.0
  0
LINE
  5
208
  8
DEFAULT
 10
-749.2297702779592
 20
-110.3072690683103
 30
0.0
 11
-749.2244288229886
 21
-110.3413746068144
 31
0.0
  0
LINE
  5
209
  8
DEFAULT
 10
-749.2362857416801
 20
-110.2733682183156
 30
0.0
 11
-749.2297702779592
 21
-110.3072690683103
 31
0.0
  0
LINE
  5
20A
  8
DEFAULT
 10
-749.24396744955
 20
-110.239712457114
 30
0.0
 11
-749.2362857416801
 21
-110.2733682183156
 31
0.0
  0
LINE
  5
20B
  8
DEFAULT
 10
-749.2528062471325
 20
-110.2063418929121
 30
0.0
 11
-749.24396744955
 21
-110.239712457114
 31
0.0
  0
LINE
  5
20C
  8
DEFAULT
 10
-749.2627916010654
 20
-110.1732962940418
 30
0.0
 11
-749.2528062471325
 21
-110.2063418929121
 31
0.0
  0
LINE
  5
20D
  8
DEFAULT
 10
-749.2739116116137
 20
-110.1406150415679
 30
0.0
 11
-749.2627916010654
 21
-110.1732962940418
 31
0.0
  0
LINE
  5
20E
  8
DEFAULT
 10
-749.2861530268508
 20
-110.1083370823565
 30
0.0
 11
-749.2739116116137
 21
-110.1406150415679
 31
0.0
  0
LINE
  5
20F
  8
DEFAULT
 10
-749.2995012584507
 20
-110.0765008826616
 30
0.0
 11
-749.2861530268508
 21
-110.1083370823565
 31
0.0
  0
LINE
  5
210
  8
DEFAULT
 10
-749.3139403990737
 20
-110.045144382284
 30
0.0
 11
-749.2995012584507
 21
-110.0765008826616
 31
0.0
  0
LINE
  5
211
  8
DEFAULT
 10
-749.3294532413229
 20
-110.0143049493578
 30
0.0
 11
-749.3139403990737
 21
-110.045144382284
 31
0.0
  0
LINE
  5
212
  8
DEFAULT
 10
-749.3460212982511
 20
-109.984019335818
 30
0.0
 11
-749.3294532413229
 21
-110.0143049493578
 31
0.0
  0
LINE
  5
213
  8
DEFAULT
 10
-749.3636248253918
 20
-109.9543236336026
 30
0.0
 11
-749.3460212982511
 21
-109.984019335818
 31
0.0
  0
LINE
  5
214
  8
DEFAULT
 10
-749.3822428442888
 20
-109.9252532316411
 30
0.0
 11
-749.3636248253918
 21
-109.9543236336026
 31
0.0
  0
LINE
  5
215
  8
DEFAULT
 10
-749.4018531674975
 20
-109.8968427736808
 30
0.0
 11
-749.3822428442888
 21
-109.9252532316411
 31
0.0
  0
LINE
  5
216
  8
DEFAULT
 10
-749.422432425025
 20
-109.8691261170015
 30
0.0
 11
-749.4018531674975
 21
-109.8968427736808
 31
0.0
  0
LINE
  5
217
  8
DEFAULT
 10
-749.4439560921811
 20
-109.8421362920667
 30
0.0
 11
-749.422432425025
 21
-109.8691261170015
 31
0.0
  0
LINE
  5
218
  8
DEFAULT
 10
-749.466398518805
 20
-109.8159054631608
 30
0.0
 11
-749.4439560921811
 21
-109.8421362920667
 31
0.0
  0
LINE
  5
219
  8
DEFAULT
 10
-749.4897329598327
 20
-109.7904648900583
 30
0.0
 11
-749.466398518805
 21
-109.8159054631608
 31
0.0
  0
LINE
  5
21A
  8
DEFAULT
 10
-749.51393160717
 20
-109.765844890771
 30
0.0
 11
-749.4897329598327
 21
-109.7904648900583
 31
0.0
  0
LINE
  5
21B
  8
DEFAULT
 10
-749.5389656228314
 20
-109.7420748054172
 30
0.0
 11
-749.51393160717
 21
-109.765844890771
 31
0.0
  0
LINE
  5
21C
  8
DEFAULT
 10
-749.5648051733074
 20
-109.719182961257
 30
0.0
 11
-749.5389656228314
 21
-109.7420748054172
 31
0.0
  0
LINE
  5
21D
  8
DEFAULT
 10
-749.5914194651174
 20
-109.6971966389336
 30
0.0
 11
-749.5648051733074
 21
-109.719182961257
 31
0.0
  0
LINE
  5
21E
  8
DEFAULT
 10
-749.6187767815069
 20
-109.6761420399627
 30
0.0
 11
-749.5914194651174
 21
-109.6971966389336
 31
0.0
  0
LINE
  5
21F
  8
DEFAULT
 10
-749.6468445202449
 20
-109.6560442555079
 30
0.0
 11
-749.6187767815069
 21
-109.6761420399627
 31
0.0
  0
LINE
  5
220
  8
DEFAULT
 10
-749.6755892324769
 20
-109.6369272364788
 30
0.0
 11
-749.6468445202449
 21
-109.6560442555079
 31
0.0
  0
LINE
  5
221
  8
DEFAULT
 10
-749.704976662586
 20
-109.6188137649881
 30
0.0
 11
-749.6755892324769
 21
-109.6369272364788
 31
0.0
  0
LINE
  5
222
  8
DEFAULT
 10
-749.7349717890163
 20
-109.6017254272022
 30
0.0
 11
-749.704976662586
 21
-109.6188137649881
 31
0.0
  0
LINE
  5
223
  8
DEFAULT
 10
-749.7655388660089
 20
-109.585682587616
 30
0.0
 11
-749.7349717890163
 21
-109.6017254272022
 31
0.0
  0
LINE
  5
224
  8
DEFAULT
 10
-749.7966414662005
 20
-109.5707043647848
 30
0.0
 11
-749.7655388660089
 21
-109.585682587616
 31
0.0
  0
LINE
  5
225
  8
DEFAULT
 10
-749.8282425240346
 20
-109.5568086085398
 30
0.0
 11
-749.7966414662005
 21
-109.5707043647848
 31
0.0
  0
LINE
  5
226
  8
DEFAULT
 10
-749.8603043799336
 20
-109.5440118787162
 30
0.0
 11
-749.8282425240346
 21
-109.5568086085398
 31
0.0
  0
LINE
  5
227
  8
DEFAULT
 10
-749.8927888251776
 20
-109.5323294254188
 30
0.0
 11
-749.8603043799336
 21
-109.5440118787162
 31
0.0
  0
LINE
  5
228
  8
DEFAULT
 10
-749.9256571474396
 20
-109.521775170848
 30
0.0
 11
-749.8927888251776
 21
-109.5323294254188
 31
0.0
  0
LINE
  5
229
  8
DEFAULT
 10
-749.9588701769186
 20
-109.5123616927084
 30
0.0
 11
-749.9256571474396
 21
-109.521775170848
 31
0.0
  0
LINE
  5
22A
  8
DEFAULT
 10
-749.9923883330198
 20
-109.5041002092198
 30
0.0
 11
-749.9588701769186
 21
-109.5123616927084
 31
0.0
  0
LINE
  5
22B
  8
DEFAULT
 10
-750.0261716715232
 20
-109.4970005657482
 30
0.0
 11
-749.9923883330198
 21
-109.5041002092198
 31
0.0
  0
LINE
  5
22C
  8
DEFAULT
 10
-750.0601799321859
 20
-109.4910712230729
 30
0.0
 11
-750.0261716715232
 21
-109.4970005657482
 31
0.0
  0
LINE
  5
22D
  8
DEFAULT
 10
-750.0943725867207
 20
-109.4863192473035
 30
0.0
 11
-750.0601799321859
 21
-109.4910712230729
 31
0.0
  0
LINE
  5
22E
  8
DEFAULT
 10
-750.1287088870955
 20
-109.4827503014596
 30
0.0
 11
-750.0943725867207
 21
-109.4863192473035
 31
0.0
  0
LINE
  5
22F
  8
DEFAULT
 10
-750.1631479140918
 20
-109.4803686387211
 30
0.0
 11
-750.1287088870955
 21
-109.4827503014596
 31
0.0
  0
LINE
  5
230
  8
DEFAULT
 10
-750.1976486260706
 20
-109.4791770973607
 30
0.0
 11
-750.1631479140918
 21
-109.4803686387211
 31
0.0
  0
LINE
  5
231
  8
DEFAULT
 10
-750.2321699078815
 20
-109.4791770973607
 30
0.0
 11
-750.1976486260706
 21
-109.4791770973607
 31
0.0
  0
LINE
  5
232
  8
DEFAULT
 10
-750.2666706198603
 20
-109.4803686387211
 30
0.0
 11
-750.2321699078815
 21
-109.4791770973607
 31
0.0
  0
LINE
  5
233
  8
DEFAULT
 10
-750.3011096468567
 20
-109.4827503014596
 30
0.0
 11
-750.2666706198603
 21
-109.4803686387211
 31
0.0
  0
LINE
  5
234
  8
DEFAULT
 10
-750.3354459472314
 20
-109.4863192473035
 30
0.0
 11
-750.3011096468567
 21
-109.4827503014596
 31
0.0
  0
LINE
  5
235
  8
DEFAULT
 10
-750.3696386017664
 20
-109.4910712230729
 30
0.0
 11
-750.3354459472314
 21
-109.4863192473035
 31
0.0
  0
LINE
  5
236
  8
DEFAULT
 10
-750.403646862429
 20
-109.4970005657482
 30
0.0
 11
-750.3696386017664
 21
-109.4910712230729
 31
0.0
  0
LINE
  5
237
  8
DEFAULT
 10
-750.4374302009325
 20
-109.5041002092198
 30
0.0
 11
-750.403646862429
 21
-109.4970005657482
 31
0.0
  0
LINE
  5
238
  8
DEFAULT
 10
-750.4709483570336
 20
-109.5123616927084
 30
0.0
 11
-750.4374302009325
 21
-109.5041002092198
 31
0.0
  0
LINE
  5
239
  8
DEFAULT
 10
-750.5041613865127
 20
-109.521775170848
 30
0.0
 11
-750.4709483570336
 21
-109.5123616927084
 31
0.0
  0
LINE
  5
23A
  8
DEFAULT
 10
-750.5370297087745
 20
-109.5323294254188
 30
0.0
 11
-750.5041613865127
 21
-109.521775170848
 31
0.0
  0
LINE
  5
23B
  8
DEFAULT
 10
-750.5695141540186
 20
-109.5440118787162
 30
0.0
 11
-750.5370297087745
 21
-109.5323294254188
 31
0.0
  0
LINE
  5
23C
  8
DEFAULT
 10
-750.6015760099175
 20
-109.5568086085398
 30
0.0
 11
-750.5695141540186
 21
-109.5440118787162
 31
0.0
  0
LINE
  5
23D
  8
DEFAULT
 10
-750.6331770677516
 20
-109.5707043647848
 30
0.0
 11
-750.6015760099175
 21
-109.5568086085398
 31
0.0
  0
LINE
  5
23E
  8
DEFAULT
 10
-750.6642796679432
 20
-109.585682587616
 30
0.0
 11
-750.6331770677516
 21
-109.5707043647848
 31
0.0
  0
LINE
  5
23F
  8
DEFAULT
 10
-750.6948467449358
 20
-109.6017254272022
 30
0.0
 11
-750.6642796679432
 21
-109.585682587616
 31
0.0
  0
LINE
  5
240
  8
DEFAULT
 10
-750.7248418713663
 20
-109.6188137649881
 30
0.0
 11
-750.6948467449358
 21
-109.6017254272022
 31
0.0
  0
LINE
  5
241
  8
DEFAULT
 10
-750.7542293014753
 20
-109.6369272364788
 30
0.0
 11
-750.7248418713663
 21
-109.6188137649881
 31
0.0
  0
LINE
  5
242
  8
DEFAULT
 10
-750.7829740137072
 20
-109.6560442555079
 30
0.0
 11
-750.7542293014753
 21
-109.6369272364788
 31
0.0
  0
LINE
  5
243
  8
DEFAULT
 10
-750.8110417524452
 20
-109.6761420399627
 30
0.0
 11
-750.7829740137072
 21
-109.6560442555079
 31
0.0
  0
LINE
  5
244
  8
DEFAULT
 10
-750.8383990688347
 20
-109.6971966389336
 30
0.0
 11
-750.8110417524452
 21
-109.6761420399627
 31
0.0
  0
LINE
  5
245
  8
DEFAULT
 10
-750.8650133606449
 20
-109.719182961257
 30
0.0
 11
-750.8383990688347
 21
-109.6971966389336
 31
0.0
  0
LINE
  5
246
  8
DEFAULT
 10
-750.8908529111209
 20
-109.7420748054173
 30
0.0
 11
-750.8650133606449
 21
-109.719182961257
 31
0.0
  0
LINE
  5
247
  8
DEFAULT
 10
-750.9158869267823
 20
-109.765844890771
 30
0.0
 11
-750.8908529111209
 21
-109.7420748054173
 31
0.0
  0
LINE
  5
248
  8
DEFAULT
 10
-750.9400855741194
 20
-109.7904648900583
 30
0.0
 11
-750.9158869267823
 21
-109.765844890771
 31
0.0
  0
LINE
  5
249
  8
DEFAULT
 10
-750.9634200151472
 20
-109.8159054631608
 30
0.0
 11
-750.9400855741194
 21
-109.7904648900583
 31
0.0
  0
LINE
  5
24A
  8
DEFAULT
 10
-750.985862441771
 20
-109.8421362920667
 30
0.0
 11
-750.9634200151472
 21
-109.8159054631608
 31
0.0
  0
LINE
  5
24B
  8
DEFAULT
 10
-751.0073861089272
 20
-109.8691261170015
 30
0.0
 11
-750.985862441771
 21
-109.8421362920667
 31
0.0
  0
LINE
  5
24C
  8
DEFAULT
 10
-751.0279653664546
 20
-109.8968427736808
 30
0.0
 11
-751.0073861089272
 21
-109.8691261170015
 31
0.0
  0
LINE
  5
24D
  8
DEFAULT
 10
-751.0475756896633
 20
-109.925253231641
 30
0.0
 11
-751.0279653664546
 21
-109.8968427736808
 31
0.0
  0
LINE
  5
24E
  8
DEFAULT
 10
-751.0661937085604
 20
-109.9543236336026
 30
0.0
 11
-751.0475756896633
 21
-109.925253231641
 31
0.0
  0
LINE
  5
24F
  8
DEFAULT
 10
-751.0837972357011
 20
-109.984019335818
 30
0.0
 11
-751.0661937085604
 21
-109.9543236336026
 31
0.0
  0
LINE
  5
250
  8
DEFAULT
 10
-751.1003652926292
 20
-110.0143049493578
 30
0.0
 11
-751.0837972357011
 21
-109.984019335818
 31
0.0
  0
LINE
  5
251
  8
DEFAULT
 10
-751.1158781348785
 20
-110.045144382284
 30
0.0
 11
-751.1003652926292
 21
-110.0143049493578
 31
0.0
  0
LINE
  5
252
  8
DEFAULT
 10
-751.1303172755014
 20
-110.0765008826616
 30
0.0
 11
-751.1158781348785
 21
-110.045144382284
 31
0.0
  0
LINE
  5
253
  8
DEFAULT
 10
-751.1436655071013
 20
-110.1083370823565
 30
0.0
 11
-751.1303172755014
 21
-110.0765008826616
 31
0.0
  0
LINE
  5
254
  8
DEFAULT
 10
-751.1559069223384
 20
-110.1406150415679
 30
0.0
 11
-751.1436655071013
 21
-110.1083370823565
 31
0.0
  0
LINE
  5
255
  8
DEFAULT
 10
-751.1670269328868
 20
-110.1732962940418
 30
0.0
 11
-751.1559069223384
 21
-110.1406150415679
 31
0.0
  0
LINE
  5
256
  8
DEFAULT
 10
-751.1770122868197
 20
-110.2063418929121
 30
0.0
 11
-751.1670269328868
 21
-110.1732962940418
 31
0.0
  0
LINE
  5
257
  8
DEFAULT
 10
-751.1858510844021
 20
-110.239712457114
 30
0.0
 11
-751.1770122868197
 21
-110.2063418929121
 31
0.0
  0
LINE
  5
258
  8
DEFAULT
 10
-751.193532792272
 20
-110.2733682183156
 30
0.0
 11
-751.1858510844021
 21
-110.239712457114
 31
0.0
  0
LINE
  5
259
  8
DEFAULT
 10
-751.2000482559929
 20
-110.3072690683103
 30
0.0
 11
-751.193532792272
 21
-110.2733682183156
 31
0.0
  0
LINE
  5
25A
  8
DEFAULT
 10
-751.2053897109636
 20
-110.3413746068144
 30
0.0
 11
-751.2000482559929
 21
-110.3072690683103
 31
0.0
  0
LINE
  5
25B
  8
DEFAULT
 10
-751.2095507916713
 20
-110.3756441896132
 30
0.0
 11
-751.2053897109636
 21
-110.3413746068144
 31
0.0
  0
LINE
  5
25C
  8
DEFAULT
 10
-751.2125265392773
 20
-110.4100369769972
 30
0.0
 11
-751.2095507916713
 21
-110.3756441896132
 31
0.0
  0
LINE
  5
25D
  8
DEFAULT
 10
-751.2143134075271
 20
-110.4445119824318
 30
0.0
 11
-751.2125265392773
 21
-110.4100369769972
 31
0.0
  0
LINE
  5
25E
  8
DEFAULT
 10
-751.2149092669761
 20
-110.4790281214016
 30
0.0
 11
-751.2143134075271
 21
-110.4445119824318
 31
0.0
  0
LINE
  5
25F
  8
DEFAULT
 10
-753.7149092669761
 20
-110.4790281214345
 30
0.0
 11
-751.2149092669761
 21
-110.4790281214016
 31
0.0
  0
LINE
  5
260
  8
DEFAULT
 10
-753.7149092669798
 20
-113.9019930584149
 30
0.0
 11
-753.7149092669761
 21
-110.4790281214345
 31
0.0
  0
LINE
  5
261
  8
DEFAULT
 10
-779.7149092669804
 20
-110.4790281211424
 30
0.0
 11
-753.7149092669798
 21
-113.9019930584149
 31
0.0
  0
LINE
  5
262
  8
DEFAULT
 10
-781.267823537596
 20
-110.2745830788768
 30
0.0
 11
-779.7149092669804
 21
-110.4790281211424
 31
0.0
  0
LINE
  5
263
  8
DEFAULT
 10
-782.7149092669808
 20
-109.6751805438491
 30
0.0
 11
-781.267823537596
 21
-110.2745830788768
 31
0.0
  0
LINE
  5
264
  8
DEFAULT
 10
-783.9575499541002
 20
-108.7216688082617
 30
0.0
 11
-782.7149092669808
 21
-109.6751805438491
 31
0.0
  0
LINE
  5
265
  8
DEFAULT
 10
-784.9110616896875
 20
-107.4790281211424
 30
0.0
 11
-783.9575499541002
 21
-108.7216688082617
 31
0.0
  0
LINE
  5
266
  8
DEFAULT
 10
-785.5104642247153
 20
-106.0319423917576
 30
0.0
 11
-784.9110616896875
 21
-107.4790281211424
 31
0.0
  0
LINE
  5
267
  8
DEFAULT
 10
-785.7149092669808
 20
-104.4790281211424
 30
0.0
 11
-785.5104642247153
 21
-106.0319423917576
 31
0.0
  0
LINE
  5
268
  8
DEFAULT
 10
-785.5104642247153
 20
-102.9261138505273
 30
0.0
 11
-785.7149092669808
 21
-104.4790281211424
 31
0.0
  0
LINE
  5
269
  8
DEFAULT
 10
-784.9110616896875
 20
-101.4790281211424
 30
0.0
 11
-785.5104642247153
 21
-102.9261138505273
 31
0.0
  0
LINE
  5
26A
  8
DEFAULT
 10
-783.9575499541002
 20
-100.2363874340231
 30
0.0
 11
-784.9110616896875
 21
-101.4790281211424
 31
0.0
  0
LINE
  5
26B
  8
DEFAULT
 10
-782.7149092669808
 20
-99.28287569843579
 30
0.0
 11
-783.9575499541002
 21
-100.2363874340231
 31
0.0
  0
LINE
  5
26C
  8
DEFAULT
 10
-781.267823537596
 20
-98.68347316340802
 30
0.0
 11
-782.7149092669808
 21
-99.28287569843579
 31
0.0
  0
LINE
  5
26D
  8
DEFAULT
 10
-781.2678235376007
 20
-95.26050822642765
 30
0.0
 11
-781.267823537598
 21
-98.68347316340814
 31
0.0
  0
LINE
  5
26E
  8
DEFAULT
 10
-783.7678235376007
 20
-95.26050822639468
 30
0.0
 11
-781.2678235376007
 21
-95.26050822642765
 31
0.0
  0
LINE
  5
26F
  8
DEFAULT
 10
-783.7684193970497
 20
-95.22599208742496
 30
0.0
 11
-783.7678235376007
 21
-95.26050822639468
 31
0.0
  0
LINE
  5
270
  8
DEFAULT
 10
-783.7702062652995
 20
-95.19151708199036
 30
0.0
 11
-783.7684193970497
 21
-95.22599208742496
 31
0.0
  0
LINE
  5
271
  8
DEFAULT
 10
-783.7731820129055
 20
-95.15712429460629
 30
0.0
 11
-783.7702062652995
 21
-95.19151708199036
 31
0.0
  0
LINE
  5
272
  8
DEFAULT
 10
-783.7773430936132
 20
-95.1228547118075
 30
0.0
 11
-783.7731820129055
 21
-95.15712429460629
 31
0.0
  0
LINE
  5
273
  8
DEFAULT
 10
-783.7826845485839
 20
-95.0887491733034
 30
0.0
 11
-783.7773430936132
 21
-95.1228547118075
 31
0.0
  0
LINE
  5
274
  8
DEFAULT
 10
-783.7892000123048
 20
-95.05484832330873
 30
0.0
 11
-783.7826845485839
 21
-95.0887491733034
 31
0.0
  0
LINE
  5
275
  8
DEFAULT
 10
-783.7968817201747
 20
-95.02119256210712
 30
0.0
 11
-783.7892000123048
 21
-95.05484832330873
 31
0.0
  0
LINE
  5
276
  8
DEFAULT
 10
-783.8057205177571
 20
-94.98782199790519
 30
0.0
 11
-783.7968817201747
 21
-95.02119256210712
 31
0.0
  0
LINE
  5
277
  8
DEFAULT
 10
-783.81570587169
 20
-94.95477639903493
 30
0.0
 11
-783.8057205177571
 21
-94.98782199790519
 31
0.0
  0
LINE
  5
278
  8
DEFAULT
 10
-783.8268258822384
 20
-94.922095146561
 30
0.0
 11
-783.81570587169
 21
-94.95477639903493
 31
0.0
  0
LINE
  5
279
  8
DEFAULT
 10
-783.8390672974755
 20
-94.8898171873496
 30
0.0
 11
-783.8268258822384
 21
-94.922095146561
 31
0.0
  0
LINE
  5
27A
  8
DEFAULT
 10
-783.8524155290754
 20
-94.85798098765471
 30
0.0
 11
-783.8390672974755
 21
-94.8898171873496
 31
0.0
  0
LINE
  5
27B
  8
DEFAULT
 10
-783.8668546696983
 20
-94.82662448727712
 30
0.0
 11
-783.8524155290754
 21
-94.85798098765471
 31
0.0
  0
LINE
  5
27C
  8
DEFAULT
 10
-783.8823675119476
 20
-94.7957850543509
 30
0.0
 11
-783.8668546696983
 21
-94.82662448727712
 31
0.0
  0
LINE
  5
27D
  8
DEFAULT
 10
-783.8989355688757
 20
-94.7654994408111
 30
0.0
 11
-783.8823675119476
 21
-94.7957850543509
 31
0.0
  0
LINE
  5
27E
  8
DEFAULT
 10
-783.9165390960164
 20
-94.73580373859568
 30
0.0
 11
-783.8989355688757
 21
-94.7654994408111
 31
0.0
  0
LINE
  5
27F
  8
DEFAULT
 10
-783.9351571149135
 20
-94.70673333663414
 30
0.0
 11
-783.9165390960164
 21
-94.73580373859568
 31
0.0
  0
LINE
  5
280
  8
DEFAULT
 10
-783.9547674381222
 20
-94.67832287867391
 30
0.0
 11
-783.9351571149135
 21
-94.70673333663414
 31
0.0
  0
LINE
  5
281
  8
DEFAULT
 10
-783.9753466956497
 20
-94.65060622199461
 30
0.0
 11
-783.9547674381222
 21
-94.67832287867391
 31
0.0
  0
LINE
  5
282
  8
DEFAULT
 10
-783.9968703628058
 20
-94.62361639705979
 30
0.0
 11
-783.9753466956497
 21
-94.65060622199461
 31
0.0
  0
LINE
  5
283
  8
DEFAULT
 10
-784.0193127894296
 20
-94.59738556815388
 30
0.0
 11
-783.9968703628058
 21
-94.62361639705979
 31
0.0
  0
LINE
  5
284
  8
DEFAULT
 10
-784.0426472304574
 20
-94.5719449950514
 30
0.0
 11
-784.0193127894296
 21
-94.59738556815388
 31
0.0
  0
LINE
  5
285
  8
DEFAULT
 10
-784.0668458777945
 20
-94.54732499576409
 30
0.0
 11
-784.0426472304574
 21
-94.5719449950514
 31
0.0
  0
LINE
  5
286
  8
DEFAULT
 10
-784.0918798934559
 20
-94.52355491041034
 30
0.0
 11
-784.0668458777945
 21
-94.54732499576409
 31
0.0
  0
LINE
  5
287
  8
DEFAULT
 10
-784.1177194439321
 20
-94.5006630662501
 30
0.0
 11
-784.0918798934559
 21
-94.52355491041034
 31
0.0
  0
LINE
  5
288
  8
DEFAULT
 10
-784.1443337357421
 20
-94.47867674392664
 30
0.0
 11
-784.1177194439321
 21
-94.5006630662501
 31
0.0
  0
LINE
  5
289
  8
DEFAULT
 10
-784.1716910521316
 20
-94.45762214495579
 30
0.0
 11
-784.1443337357421
 21
-94.47867674392664
 31
0.0
  0
LINE
  5
28A
  8
DEFAULT
 10
-784.1997587908696
 20
-94.43752436050102
 30
0.0
 11
-784.1716910521316
 21
-94.45762214495579
 31
0.0
  0
LINE
  5
28B
  8
DEFAULT
 10
-784.2285035031016
 20
-94.41840734147186
 30
0.0
 11
-784.1997587908696
 21
-94.43752436050102
 31
0.0
  0
LINE
  5
28C
  8
DEFAULT
 10
-784.2578909332107
 20
-94.40029386998117
 30
0.0
 11
-784.2285035031016
 21
-94.41840734147186
 31
0.0
  0
LINE
  5
28D
  8
DEFAULT
 10
-784.287886059641
 20
-94.38320553219523
 30
0.0
 11
-784.2578909332107
 21
-94.40029386998117
 31
0.0
  0
LINE
  5
28E
  8
DEFAULT
 10
-784.3184531366336
 20
-94.36716269260911
 30
0.0
 11
-784.287886059641
 21
-94.38320553219523
 31
0.0
  0
LINE
  5
28F
  8
DEFAULT
 10
-784.3495557368252
 20
-94.35218446977792
 30
0.0
 11
-784.3184531366336
 21
-94.36716269260911
 31
0.0
  0
LINE
  5
290
  8
DEFAULT
 10
-784.3811567946593
 20
-94.33828871353288
 30
0.0
 11
-784.3495557368252
 21
-94.35218446977792
 31
0.0
  0
LINE
  5
291
  8
DEFAULT
 10
-784.4132186505582
 20
-94.32549198370926
 30
0.0
 11
-784.3811567946593
 21
-94.33828871353288
 31
0.0
  0
LINE
  5
292
  8
DEFAULT
 10
-784.4457030958023
 20
-94.31380953041187
 30
0.0
 11
-784.4132186505582
 21
-94.32549198370926
 31
0.0
  0
LINE
  5
293
  8
DEFAULT
 10
-784.4785714180642
 20
-94.30325527584105
 30
0.0
 11
-784.4457030958023
 21
-94.31380953041187
 31
0.0
  0
LINE
  5
294
  8
DEFAULT
 10
-784.5117844475432
 20
-94.29384179770146
 30
0.0
 11
-784.4785714180642
 21
-94.30325527584105
 31
0.0
  0
LINE
  5
295
  8
DEFAULT
 10
-784.5453026036445
 20
-94.28558031421285
 30
0.0
 11
-784.5117844475432
 21
-94.29384179770146
 31
0.0
  0
LINE
  5
296
  8
DEFAULT
 10
-784.5790859421478
 20
-94.27848067074125
 30
0.0
 11
-784.5453026036445
 21
-94.28558031421285
 31
0.0
  0
LINE
  5
297
  8
DEFAULT
 10
-784.6130942028104
 20
-94.27255132806593
 30
0.0
 11
-784.5790859421478
 21
-94.27848067074125
 31
0.0
  0
LINE
  5
298
  8
DEFAULT
 10
-784.6472868573454
 20
-94.26779935229662
 30
0.0
 11
-784.6130942028104
 21
-94.27255132806593
 31
0.0
  0
LINE
  5
299
  8
DEFAULT
 10
-784.6816231577201
 20
-94.26423040645265
 30
0.0
 11
-784.6472868573454
 21
-94.26779935229662
 31
0.0
  0
LINE
  5
29A
  8
DEFAULT
 10
-784.7160621847165
 20
-94.26184874371422
 30
0.0
 11
-784.6816231577201
 21
-94.26423040645265
 31
0.0
  0
LINE
  5
29B
  8
DEFAULT
 10
-784.7505628966953
 20
-94.26065720235383
 30
0.0
 11
-784.7160621847165
 21
-94.26184874371422
 31
0.0
  0
LINE
  5
29C
  8
DEFAULT
 10
-784.7850841785062
 20
-94.26065720235383
 30
0.0
 11
-784.7505628966953
 21
-94.26065720235383
 31
0.0
  0
LINE
  5
29D
  8
DEFAULT
 10
-784.819584890485
 20
-94.26184874371422
 30
0.0
 11
-784.7850841785062
 21
-94.26065720235383
 31
0.0
  0
LINE
  5
29E
  8
DEFAULT
 10
-784.8540239174814
 20
-94.26423040645265
 30
0.0
 11
-784.819584890485
 21
-94.26184874371422
 31
0.0
  0
LINE
  5
29F
  8
DEFAULT
 10
-784.8883602178561
 20
-94.26779935229662
 30
0.0
 11
-784.8540239174814
 21
-94.26423040645265
 31
0.0
  0
LINE
  5
2A0
  8
DEFAULT
 10
-784.9225528723911
 20
-94.27255132806593
 30
0.0
 11
-784.8883602178561
 21
-94.26779935229662
 31
0.0
  0
LINE
  5
2A1
  8
DEFAULT
 10
-784.9565611330537
 20
-94.27848067074125
 30
0.0
 11
-784.9225528723911
 21
-94.27255132806593
 31
0.0
  0
LINE
  5
2A2
  8
DEFAULT
 10
-784.990344471557
 20
-94.28558031421285
 30
0.0
 11
-784.9565611330537
 21
-94.27848067074125
 31
0.0
  0
LINE
  5
2A3
  8
DEFAULT
 10
-785.0238626276583
 20
-94.29384179770146
 30
0.0
 11
-784.990344471557
 21
-94.28558031421285
 31
0.0
  0
LINE
  5
2A4
  8
DEFAULT
 10
-785.0570756571373
 20
-94.30325527584105
 30
0.0
 11
-785.0238626276583
 21
-94.29384179770146
 31
0.0
  0
LINE
  5
2A5
  8
DEFAULT
 10
-785.0899439793992
 20
-94.31380953041187
 30
0.0
 11
-785.0570756571373
 21
-94.30325527584105
 31
0.0
  0
LINE
  5
2A6
  8
DEFAULT
 10
-785.1224284246433
 20
-94.32549198370926
 30
0.0
 11
-785.0899439793992
 21
-94.31380953041187
 31
0.0
  0
LINE
  5
2A7
  8
DEFAULT
 10
-785.1544902805422
 20
-94.33828871353286
 30
0.0
 11
-785.1224284246433
 21
-94.32549198370926
 31
0.0
  0
LINE
  5
2A8
  8
DEFAULT
 10
-785.1860913383763
 20
-94.35218446977792
 30
0.0
 11
-785.1544902805422
 21
-94.33828871353286
 31
0.0
  0
LINE
  5
2A9
  8
DEFAULT
 10
-785.2171939385679
 20
-94.36716269260911
 30
0.0
 11
-785.1860913383763
 21
-94.35218446977792
 31
0.0
  0
LINE
  5
2AA
  8
DEFAULT
 10
-785.2477610155605
 20
-94.38320553219523
 30
0.0
 11
-785.2171939385679
 21
-94.36716269260911
 31
0.0
  0
LINE
  5
2AB
  8
DEFAULT
 10
-785.2777561419908
 20
-94.40029386998117
 30
0.0
 11
-785.2477610155605
 21
-94.38320553219523
 31
0.0
  0
LINE
  5
2AC
  8
DEFAULT
 10
-785.3071435720999
 20
-94.41840734147186
 30
0.0
 11
-785.2777561419908
 21
-94.40029386998117
 31
0.0
  0
LINE
  5
2AD
  8
DEFAULT
 10
-785.3358882843319
 20
-94.43752436050102
 30
0.0
 11
-785.3071435720999
 21
-94.41840734147186
 31
0.0
  0
LINE
  5
2AE
  8
DEFAULT
 10
-785.3639560230699
 20
-94.45762214495579
 30
0.0
 11
-785.3358882843319
 21
-94.43752436050102
 31
0.0
  0
LINE
  5
2AF
  8
DEFAULT
 10
-785.3913133394594
 20
-94.47867674392666
 30
0.0
 11
-785.3639560230699
 21
-94.45762214495579
 31
0.0
  0
LINE
  5
2B0
  8
DEFAULT
 10
-785.4179276312694
 20
-94.5006630662501
 30
0.0
 11
-785.3913133394594
 21
-94.47867674392666
 31
0.0
  0
LINE
  5
2B1
  8
DEFAULT
 10
-785.4437671817454
 20
-94.52355491041034
 30
0.0
 11
-785.4179276312694
 21
-94.5006630662501
 31
0.0
  0
LINE
  5
2B2
  8
DEFAULT
 10
-785.468801197407
 20
-94.54732499576409
 30
0.0
 11
-785.4437671817454
 21
-94.52355491041034
 31
0.0
  0
LINE
  5
2B3
  8
DEFAULT
 10
-785.4929998447441
 20
-94.5719449950514
 30
0.0
 11
-785.468801197407
 21
-94.54732499576409
 31
0.0
  0
LINE
  5
2B4
  8
DEFAULT
 10
-785.5163342857719
 20
-94.59738556815388
 30
0.0
 11
-785.4929998447441
 21
-94.5719449950514
 31
0.0
  0
LINE
  5
2B5
  8
DEFAULT
 10
-785.5387767123957
 20
-94.62361639705979
 30
0.0
 11
-785.5163342857719
 21
-94.59738556815388
 31
0.0
  0
LINE
  5
2B6
  8
DEFAULT
 10
-785.5603003795518
 20
-94.65060622199461
 30
0.0
 11
-785.5387767123957
 21
-94.62361639705979
 31
0.0
  0
LINE
  5
2B7
  8
DEFAULT
 10
-785.5808796370793
 20
-94.67832287867391
 30
0.0
 11
-785.5603003795518
 21
-94.65060622199461
 31
0.0
  0
LINE
  5
2B8
  8
DEFAULT
 10
-785.600489960288
 20
-94.70673333663414
 30
0.0
 11
-785.5808796370793
 21
-94.67832287867391
 31
0.0
  0
LINE
  5
2B9
  8
DEFAULT
 10
-785.6191079791851
 20
-94.73580373859568
 30
0.0
 11
-785.600489960288
 21
-94.70673333663414
 31
0.0
  0
LINE
  5
2BA
  8
DEFAULT
 10
-785.6367115063258
 20
-94.7654994408111
 30
0.0
 11
-785.6191079791851
 21
-94.73580373859568
 31
0.0
  0
LINE
  5
2BB
  8
DEFAULT
 10
-785.6532795632539
 20
-94.79578505435092
 30
0.0
 11
-785.6367115063258
 21
-94.7654994408111
 31
0.0
  0
LINE
  5
2BC
  8
DEFAULT
 10
-785.6687924055032
 20
-94.82662448727712
 30
0.0
 11
-785.6532795632539
 21
-94.79578505435092
 31
0.0
  0
LINE
  5
2BD
  8
DEFAULT
 10
-785.6832315461261
 20
-94.85798098765471
 30
0.0
 11
-785.6687924055032
 21
-94.82662448727712
 31
0.0
  0
LINE
  5
2BE
  8
DEFAULT
 10
-785.696579777726
 20
-94.88981718734962
 30
0.0
 11
-785.6832315461261
 21
-94.85798098765471
 31
0.0
  0
LINE
  5
2BF
  8
DEFAULT
 10
-785.7088211929631
 20
-94.922095146561
 30
0.0
 11
-785.696579777726
 21
-94.88981718734962
 31
0.0
  0
LINE
  5
2C0
  8
DEFAULT
 10
-785.7199412035114
 20
-94.95477639903491
 30
0.0
 11
-785.7088211929631
 21
-94.922095146561
 31
0.0
  0
LINE
  5
2C1
  8
DEFAULT
 10
-785.7299265574444
 20
-94.98782199790519
 30
0.0
 11
-785.7199412035114
 21
-94.95477639903491
 31
0.0
  0
LINE
  5
2C2
  8
DEFAULT
 10
-785.7387653550268
 20
-95.02119256210712
 30
0.0
 11
-785.7299265574444
 21
-94.98782199790519
 31
0.0
  0
LINE
  5
2C3
  8
DEFAULT
 10
-785.7464470628967
 20
-95.05484832330875
 30
0.0
 11
-785.7387653550268
 21
-95.02119256210712
 31
0.0
  0
LINE
  5
2C4
  8
DEFAULT
 10
-785.7529625266176
 20
-95.0887491733034
 30
0.0
 11
-785.7464470628967
 21
-95.05484832330875
 31
0.0
  0
LINE
  5
2C5
  8
DEFAULT
 10
-785.7583039815883
 20
-95.1228547118075
 30
0.0
 11
-785.7529625266176
 21
-95.0887491733034
 31
0.0
  0
LINE
  5
2C6
  8
DEFAULT
 10
-785.762465062296
 20
-95.1571242946063
 30
0.0
 11
-785.7583039815883
 21
-95.1228547118075
 31
0.0
  0
LINE
  5
2C7
  8
DEFAULT
 10
-785.765440809902
 20
-95.19151708199036
 30
0.0
 11
-785.762465062296
 21
-95.1571242946063
 31
0.0
  0
LINE
  5
2C8
  8
DEFAULT
 10
-785.7672276781518
 20
-95.22599208742496
 30
0.0
 11
-785.765440809902
 21
-95.19151708199036
 31
0.0
  0
LINE
  5
2C9
  8
DEFAULT
 10
-785.7678235376007
 20
-95.26050822639468
 30
0.0
 11
-785.7672276781518
 21
-95.22599208742496
 31
0.0
  0
LINE
  5
2CA
  8
DEFAULT
 10
-786.5678235376007
 20
-95.26050822639765
 30
0.0
 11
-785.7678235376007
 21
-95.26050822639468
 31
0.0
  0
LINE
  5
2CB
  8
DEFAULT
 10
-786.6185820842838
 20
-95.21289357501085
 30
0.0
 11
-786.5678235376007
 21
-95.26050822639765
 31
0.0
  0
LINE
  5
2CC
  8
DEFAULT
 10
-786.6676623315535
 20
-95.16355074963562
 30
0.0
 11
-786.6185820842838
 21
-95.21289357501085
 31
0.0
  0
LINE
  5
2CD
  8
DEFAULT
 10
-786.7150054745928
 20
-95.11253886969335
 30
0.0
 11
-786.6676623315535
 21
-95.16355074963562
 31
0.0
  0
LINE
  5
2CE
  8
DEFAULT
 10
-786.7605547898715
 20
-95.0599190543601
 30
0.0
 11
-786.7150054745928
 21
-95.11253886969335
 31
0.0
  0
LINE
  5
2CF
  8
DEFAULT
 10
-786.80425570311
 20
-95.00575434933737
 30
0.0
 11
-786.7605547898715
 21
-95.0599190543601
 31
0.0
  0
LINE
  5
2D0
  8
DEFAULT
 10
-786.8460558546652
 20
-94.95010965131478
 30
0.0
 11
-786.80425570311
 21
-95.00575434933737
 31
0.0
  0
LINE
  5
2D1
  8
DEFAULT
 10
-786.885905162266
 20
-94.89305163021508
 30
0.0
 11
-786.8460558546652
 21
-94.95010965131478
 31
0.0
  0
LINE
  5
2D2
  8
DEFAULT
 10
-786.9237558810172
 20
-94.83464864931437
 30
0.0
 11
-786.885905162266
 21
-94.89305163021508
 31
0.0
  0
LINE
  5
2D3
  8
DEFAULT
 10
-786.9595626606057
 20
-94.77497068333378
 30
0.0
 11
-786.9237558810172
 21
-94.83464864931437
 31
0.0
  0
LINE
  5
2D4
  8
DEFAULT
 10
-786.9932825996351
 20
-94.71408923460001
 30
0.0
 11
-786.9595626606057
 21
-94.77497068333378
 31
0.0
  0
LINE
  5
2D5
  8
DEFAULT
 10
-787.0248752970285
 20
-94.65207724737598
 30
0.0
 11
-786.9932825996351
 21
-94.71408923460001
 31
0.0
  0
LINE
  5
2D6
  8
DEFAULT
 10
-787.0543029004342
 20
-94.5890090204636
 30
0.0
 11
-787.0248752970285
 21
-94.65207724737598
 31
0.0
  0
LINE
  5
2D7
  8
DEFAULT
 10
-787.0815301515773
 20
-94.52496011818371
 30
0.0
 11
-787.0543029004342
 21
-94.5890090204636
 31
0.0
  0
LINE
  5
2D8
  8
DEFAULT
 10
-787.1065244285048
 20
-94.46000727983973
 30
0.0
 11
-787.0815301515773
 21
-94.52496011818371
 31
0.0
  0
LINE
  5
2D9
  8
DEFAULT
 10
-787.1292557846707
 20
-94.3942283277735
 30
0.0
 11
-787.1065244285048
 21
-94.46000727983973
 31
0.0
  0
LINE
  5
2DA
  8
DEFAULT
 10
-787.1496969848162
 20
-94.32770207412362
 30
0.0
 11
-787.1292557846707
 21
-94.3942283277735
 31
0.0
  0
LINE
  5
2DB
  8
DEFAULT
 10
-787.1678235376006
 20
-94.26050822639763
 30
0.0
 11
-787.1496969848162
 21
-94.32770207412362
 31
0.0
  0
LINE
  5
2DC
  8
DEFAULT
 10
-787.1678235376006
 20
-84.2605082263919
 30
0.0
 11
-787.1678235376006
 21
-94.26050822639763
 31
0.0
  0
LINE
  5
2DD
  8
DEFAULT
 10
-787.149696984816
 20
-84.19331437866592
 30
0.0
 11
-787.1678235376006
 21
-84.2605082263919
 31
0.0
  0
LINE
  5
2DE
  8
DEFAULT
 10
-787.1292557846707
 20
-84.12678812501603
 30
0.0
 11
-787.149696984816
 21
-84.19331437866592
 31
0.0
  0
LINE
  5
2DF
  8
DEFAULT
 10
-787.1065244285048
 20
-84.06100917294981
 30
0.0
 11
-787.1292557846707
 21
-84.12678812501603
 31
0.0
  0
LINE
  5
2E0
  8
DEFAULT
 10
-787.0815301515773
 20
-83.99605633460583
 30
0.0
 11
-787.1065244285048
 21
-84.06100917294981
 31
0.0
  0
LINE
  5
2E1
  8
DEFAULT
 10
-787.0543029004342
 20
-83.93200743232595
 30
0.0
 11
-787.0815301515773
 21
-83.99605633460583
 31
0.0
  0
LINE
  5
2E2
  8
DEFAULT
 10
-787.0248752970285
 20
-83.86893920541355
 30
0.0
 11
-787.0543029004342
 21
-83.93200743232595
 31
0.0
  0
LINE
  5
2E3
  8
DEFAULT
 10
-786.993282599635
 20
-83.80692721818953
 30
0.0
 11
-787.0248752970285
 21
-83.86893920541355
 31
0.0
  0
LINE
  5
2E4
  8
DEFAULT
 10
-786.9595626606056
 20
-83.74604576945578
 30
0.0
 11
-786.993282599635
 21
-83.80692721818953
 31
0.0
  0
LINE
  5
2E5
  8
DEFAULT
 10
-786.9237558810172
 20
-83.68636780347515
 30
0.0
 11
-786.9595626606056
 21
-83.74604576945578
 31
0.0
  0
LINE
  5
2E6
  8
DEFAULT
 10
-786.885905162266
 20
-83.62796482257446
 30
0.0
 11
-786.9237558810172
 21
-83.68636780347515
 31
0.0
  0
LINE
  5
2E7
  8
DEFAULT
 10
-786.8460558546652
 20
-83.57090680147476
 30
0.0
 11
-786.885905162266
 21
-83.62796482257446
 31
0.0
  0
LINE
  5
2E8
  8
DEFAULT
 10
-786.8042557031099
 20
-83.51526210345217
 30
0.0
 11
-786.8460558546652
 21
-83.57090680147476
 31
0.0
  0
LINE
  5
2E9
  8
DEFAULT
 10
-786.7605547898715
 20
-83.46109739842943
 30
0.0
 11
-786.8042557031099
 21
-83.51526210345217
 31
0.0
  0
LINE
  5
2EA
  8
DEFAULT
 10
-786.7150054745928
 20
-83.40847758309619
 30
0.0
 11
-786.7605547898715
 21
-83.46109739842943
 31
0.0
  0
LINE
  5
2EB
  8
DEFAULT
 10
-786.6676623315536
 20
-83.3574657031539
 30
0.0
 11
-786.7150054745928
 21
-83.40847758309619
 31
0.0
  0
LINE
  5
2EC
  8
DEFAULT
 10
-786.6185820842838
 20
-83.30812287777866
 30
0.0
 11
-786.6676623315536
 21
-83.3574657031539
 31
0.0
  0
LINE
  5
2ED
  8
DEFAULT
 10
-786.5678235376007
 20
-83.26050822639189
 30
0.0
 11
-786.6185820842838
 21
-83.30812287777866
 31
0.0
  0
LINE
  5
2EE
  8
DEFAULT
 10
-785.767823537601
 20
-83.26050822639485
 30
0.0
 11
-786.5678235376007
 21
-83.26050822639189
 31
0.0
  0
LINE
  5
2EF
  8
DEFAULT
 10
-785.767227678152
 20
-83.29502436536455
 30
0.0
 11
-785.767823537601
 21
-83.26050822639485
 31
0.0
  0
LINE
  5
2F0
  8
DEFAULT
 10
-785.7654408099022
 20
-83.32949937079918
 30
0.0
 11
-785.767227678152
 21
-83.29502436536455
 31
0.0
  0
LINE
  5
2F1
  8
DEFAULT
 10
-785.7624650622962
 20
-83.36389215818322
 30
0.0
 11
-785.7654408099022
 21
-83.32949937079918
 31
0.0
  0
LINE
  5
2F2
  8
DEFAULT
 10
-785.7583039815885
 20
-83.39816174098202
 30
0.0
 11
-785.7624650622962
 21
-83.36389215818322
 31
0.0
  0
LINE
  5
2F3
  8
DEFAULT
 10
-785.7529625266178
 20
-83.43226727948613
 30
0.0
 11
-785.7583039815885
 21
-83.39816174098202
 31
0.0
  0
LINE
  5
2F4
  8
DEFAULT
 10
-785.7464470628969
 20
-83.46616812948079
 30
0.0
 11
-785.7529625266178
 21
-83.43226727948613
 31
0.0
  0
LINE
  5
2F5
  8
DEFAULT
 10
-785.738765355027
 20
-83.4998238906824
 30
0.0
 11
-785.7464470628969
 21
-83.46616812948079
 31
0.0
  0
LINE
  5
2F6
  8
DEFAULT
 10
-785.7299265574446
 20
-83.53319445488435
 30
0.0
 11
-785.738765355027
 21
-83.4998238906824
 31
0.0
  0
LINE
  5
2F7
  8
DEFAULT
 10
-785.7199412035117
 20
-83.56624005375461
 30
0.0
 11
-785.7299265574446
 21
-83.53319445488435
 31
0.0
  0
LINE
  5
2F8
  8
DEFAULT
 10
-785.7088211929633
 20
-83.59892130622852
 30
0.0
 11
-785.7199412035117
 21
-83.56624005375461
 31
0.0
  0
LINE
  5
2F9
  8
DEFAULT
 10
-785.6965797777262
 20
-83.6311992654399
 30
0.0
 11
-785.7088211929633
 21
-83.59892130622852
 31
0.0
  0
LINE
  5
2FA
  8
DEFAULT
 10
-785.6832315461263
 20
-83.66303546513483
 30
0.0
 11
-785.6965797777262
 21
-83.6311992654399
 31
0.0
  0
LINE
  5
2FB
  8
DEFAULT
 10
-785.6687924055034
 20
-83.69439196551241
 30
0.0
 11
-785.6832315461263
 21
-83.66303546513483
 31
0.0
  0
LINE
  5
2FC
  8
DEFAULT
 10
-785.653279563254
 20
-83.72523139843862
 30
0.0
 11
-785.6687924055034
 21
-83.69439196551241
 31
0.0
  0
LINE
  5
2FD
  8
DEFAULT
 10
-785.6367115063259
 20
-83.75551701197844
 30
0.0
 11
-785.653279563254
 21
-83.72523139843862
 31
0.0
  0
LINE
  5
2FE
  8
DEFAULT
 10
-785.6191079791852
 20
-83.78521271419386
 30
0.0
 11
-785.6367115063259
 21
-83.75551701197844
 31
0.0
  0
LINE
  5
2FF
  8
DEFAULT
 10
-785.6004899602881
 20
-83.81428311615538
 30
0.0
 11
-785.6191079791852
 21
-83.78521271419386
 31
0.0
  0
LINE
  5
300
  8
DEFAULT
 10
-785.5808796370794
 20
-83.84269357411561
 30
0.0
 11
-785.6004899602881
 21
-83.81428311615538
 31
0.0
  0
LINE
  5
301
  8
DEFAULT
 10
-785.5603003795519
 20
-83.87041023079492
 30
0.0
 11
-785.5808796370794
 21
-83.84269357411561
 31
0.0
  0
LINE
  5
302
  8
DEFAULT
 10
-785.5387767123958
 20
-83.89740005572973
 30
0.0
 11
-785.5603003795519
 21
-83.87041023079492
 31
0.0
  0
LINE
  5
303
  8
DEFAULT
 10
-785.516334285772
 20
-83.92363088463564
 30
0.0
 11
-785.5387767123958
 21
-83.89740005572973
 31
0.0
  0
LINE
  5
304
  8
DEFAULT
 10
-785.4929998447443
 20
-83.94907145773813
 30
0.0
 11
-785.516334285772
 21
-83.92363088463564
 31
0.0
  0
LINE
  5
305
  8
DEFAULT
 10
-785.4688011974071
 20
-83.97369145702544
 30
0.0
 11
-785.4929998447443
 21
-83.94907145773813
 31
0.0
  0
LINE
  5
306
  8
DEFAULT
 10
-785.4437671817457
 20
-83.99746154237917
 30
0.0
 11
-785.4688011974071
 21
-83.97369145702544
 31
0.0
  0
LINE
  5
307
  8
DEFAULT
 10
-785.4179276312697
 20
-84.02035338653943
 30
0.0
 11
-785.4437671817457
 21
-83.99746154237917
 31
0.0
  0
LINE
  5
308
  8
DEFAULT
 10
-785.3913133394597
 20
-84.04233970886288
 30
0.0
 11
-785.4179276312697
 21
-84.02035338653943
 31
0.0
  0
LINE
  5
309
  8
DEFAULT
 10
-785.36395602307
 20
-84.06339430783372
 30
0.0
 11
-785.3913133394597
 21
-84.04233970886288
 31
0.0
  0
LINE
  5
30A
  8
DEFAULT
 10
-785.335888284332
 20
-84.0834920922885
 30
0.0
 11
-785.36395602307
 21
-84.06339430783372
 31
0.0
  0
LINE
  5
30B
  8
DEFAULT
 10
-785.3071435721001
 20
-84.10260911131765
 30
0.0
 11
-785.335888284332
 21
-84.0834920922885
 31
0.0
  0
LINE
  5
30C
  8
DEFAULT
 10
-785.2777561419911
 20
-84.12072258280834
 30
0.0
 11
-785.3071435721001
 21
-84.10260911131765
 31
0.0
  0
LINE
  5
30D
  8
DEFAULT
 10
-785.2477610155606
 20
-84.13781092059428
 30
0.0
 11
-785.2777561419911
 21
-84.12072258280834
 31
0.0
  0
LINE
  5
30E
  8
DEFAULT
 10
-785.217193938568
 20
-84.1538537601804
 30
0.0
 11
-785.2477610155606
 21
-84.13781092059428
 31
0.0
  0
LINE
  5
30F
  8
DEFAULT
 10
-785.1860913383764
 20
-84.1688319830116
 30
0.0
 11
-785.217193938568
 21
-84.1538537601804
 31
0.0
  0
LINE
  5
310
  8
DEFAULT
 10
-785.1544902805423
 20
-84.18272773925665
 30
0.0
 11
-785.1860913383764
 21
-84.1688319830116
 31
0.0
  0
LINE
  5
311
  8
DEFAULT
 10
-785.1224284246434
 20
-84.19552446908024
 30
0.0
 11
-785.1544902805423
 21
-84.18272773925665
 31
0.0
  0
LINE
  5
312
  8
DEFAULT
 10
-785.0899439793993
 20
-84.20720692237764
 30
0.0
 11
-785.1224284246434
 21
-84.19552446908024
 31
0.0
  0
LINE
  5
313
  8
DEFAULT
 10
-785.0570756571375
 20
-84.21776117694846
 30
0.0
 11
-785.0899439793993
 21
-84.20720692237764
 31
0.0
  0
LINE
  5
314
  8
DEFAULT
 10
-785.0238626276584
 20
-84.22717465508805
 30
0.0
 11
-785.0570756571375
 21
-84.21776117694846
 31
0.0
  0
LINE
  5
315
  8
DEFAULT
 10
-784.9903444715571
 20
-84.23543613857666
 30
0.0
 11
-785.0238626276584
 21
-84.22717465508805
 31
0.0
  0
LINE
  5
316
  8
DEFAULT
 10
-784.9565611330538
 20
-84.24253578204826
 30
0.0
 11
-784.9903444715571
 21
-84.23543613857666
 31
0.0
  0
LINE
  5
317
  8
DEFAULT
 10
-784.9225528723912
 20
-84.24846512472358
 30
0.0
 11
-784.9565611330538
 21
-84.24253578204826
 31
0.0
  0
LINE
  5
318
  8
DEFAULT
 10
-784.8883602178562
 20
-84.25321710049289
 30
0.0
 11
-784.9225528723912
 21
-84.24846512472358
 31
0.0
  0
LINE
  5
319
  8
DEFAULT
 10
-784.8540239174815
 20
-84.25678604633686
 30
0.0
 11
-784.8883602178562
 21
-84.25321710049289
 31
0.0
  0
LINE
  5
31A
  8
DEFAULT
 10
-784.8195848904851
 20
-84.25916770907529
 30
0.0
 11
-784.8540239174815
 21
-84.25678604633686
 31
0.0
  0
LINE
  5
31B
  8
DEFAULT
 10
-784.7850841785063
 20
-84.26035925043568
 30
0.0
 11
-784.8195848904851
 21
-84.25916770907529
 31
0.0
  0
LINE
  5
31C
  8
DEFAULT
 10
-784.7505628966954
 20
-84.26035925043568
 30
0.0
 11
-784.7850841785063
 21
-84.26035925043568
 31
0.0
  0
LINE
  5
31D
  8
DEFAULT
 10
-784.7160621847166
 20
-84.2591677090753
 30
0.0
 11
-784.7505628966954
 21
-84.26035925043568
 31
0.0
  0
LINE
  5
31E
  8
DEFAULT
 10
-784.6816231577202
 20
-84.25678604633686
 30
0.0
 11
-784.7160621847166
 21
-84.2591677090753
 31
0.0
  0
LINE
  5
31F
  8
DEFAULT
 10
-784.6472868573455
 20
-84.25321710049289
 30
0.0
 11
-784.6816231577202
 21
-84.25678604633686
 31
0.0
  0
LINE
  5
320
  8
DEFAULT
 10
-784.6130942028105
 20
-84.24846512472358
 30
0.0
 11
-784.6472868573455
 21
-84.25321710049289
 31
0.0
  0
LINE
  5
321
  8
DEFAULT
 10
-784.5790859421479
 20
-84.24253578204826
 30
0.0
 11
-784.6130942028105
 21
-84.24846512472358
 31
0.0
  0
LINE
  5
322
  8
DEFAULT
 10
-784.5453026036446
 20
-84.23543613857666
 30
0.0
 11
-784.5790859421479
 21
-84.24253578204826
 31
0.0
  0
LINE
  5
323
  8
DEFAULT
 10
-784.5117844475433
 20
-84.22717465508806
 30
0.0
 11
-784.5453026036446
 21
-84.23543613857666
 31
0.0
  0
LINE
  5
324
  8
DEFAULT
 10
-784.4785714180642
 20
-84.21776117694844
 30
0.0
 11
-784.5117844475433
 21
-84.22717465508806
 31
0.0
  0
LINE
  5
325
  8
DEFAULT
 10
-784.4457030958024
 20
-84.20720692237764
 30
0.0
 11
-784.4785714180642
 21
-84.21776117694844
 31
0.0
  0
LINE
  5
326
  8
DEFAULT
 10
-784.4132186505583
 20
-84.19552446908025
 30
0.0
 11
-784.4457030958024
 21
-84.20720692237764
 31
0.0
  0
LINE
  5
327
  8
DEFAULT
 10
-784.3811567946594
 20
-84.18272773925665
 30
0.0
 11
-784.4132186505583
 21
-84.19552446908025
 31
0.0
  0
LINE
  5
328
  8
DEFAULT
 10
-784.3495557368253
 20
-84.16883198301159
 30
0.0
 11
-784.3811567946594
 21
-84.18272773925665
 31
0.0
  0
LINE
  5
329
  8
DEFAULT
 10
-784.3184531366337
 20
-84.1538537601804
 30
0.0
 11
-784.3495557368253
 21
-84.16883198301159
 31
0.0
  0
LINE
  5
32A
  8
DEFAULT
 10
-784.2878860596411
 20
-84.13781092059429
 30
0.0
 11
-784.3184531366337
 21
-84.1538537601804
 31
0.0
  0
LINE
  5
32B
  8
DEFAULT
 10
-784.2578909332107
 20
-84.12072258280834
 30
0.0
 11
-784.2878860596411
 21
-84.13781092059429
 31
0.0
  0
LINE
  5
32C
  8
DEFAULT
 10
-784.2285035031016
 20
-84.10260911131765
 30
0.0
 11
-784.2578909332107
 21
-84.12072258280834
 31
0.0
  0
LINE
  5
32D
  8
DEFAULT
 10
-784.1997587908696
 20
-84.0834920922885
 30
0.0
 11
-784.2285035031016
 21
-84.10260911131765
 31
0.0
  0
LINE
  5
32E
  8
DEFAULT
 10
-784.1716910521316
 20
-84.06339430783373
 30
0.0
 11
-784.1997587908696
 21
-84.0834920922885
 31
0.0
  0
LINE
  5
32F
  8
DEFAULT
 10
-784.1443337357421
 20
-84.04233970886287
 30
0.0
 11
-784.1716910521316
 21
-84.06339430783373
 31
0.0
  0
LINE
  5
330
  8
DEFAULT
 10
-784.1177194439321
 20
-84.02035338653943
 30
0.0
 11
-784.1443337357421
 21
-84.04233970886287
 31
0.0
  0
LINE
  5
331
  8
DEFAULT
 10
-784.091879893456
 20
-83.99746154237918
 30
0.0
 11
-784.1177194439321
 21
-84.02035338653943
 31
0.0
  0
LINE
  5
332
  8
DEFAULT
 10
-784.0668458777947
 20
-83.97369145702544
 30
0.0
 11
-784.091879893456
 21
-83.99746154237918
 31
0.0
  0
LINE
  5
333
  8
DEFAULT
 10
-784.0426472304574
 20
-83.94907145773811
 30
0.0
 11
-784.0668458777947
 21
-83.97369145702544
 31
0.0
  0
LINE
  5
334
  8
DEFAULT
 10
-784.0193127894297
 20
-83.92363088463564
 30
0.0
 11
-784.0426472304574
 21
-83.94907145773811
 31
0.0
  0
LINE
  5
335
  8
DEFAULT
 10
-783.9968703628058
 20
-83.89740005572973
 30
0.0
 11
-784.0193127894297
 21
-83.92363088463564
 31
0.0
  0
LINE
  5
336
  8
DEFAULT
 10
-783.9753466956497
 20
-83.87041023079492
 30
0.0
 11
-783.9968703628058
 21
-83.89740005572973
 31
0.0
  0
LINE
  5
337
  8
DEFAULT
 10
-783.9547674381222
 20
-83.84269357411563
 30
0.0
 11
-783.9753466956497
 21
-83.87041023079492
 31
0.0
  0
LINE
  5
338
  8
DEFAULT
 10
-783.9351571149135
 20
-83.81428311615538
 30
0.0
 11
-783.9547674381222
 21
-83.84269357411563
 31
0.0
  0
LINE
  5
339
  8
DEFAULT
 10
-783.9165390960164
 20
-83.78521271419385
 30
0.0
 11
-783.9351571149135
 21
-83.81428311615538
 31
0.0
  0
LINE
  5
33A
  8
DEFAULT
 10
-783.8989355688758
 20
-83.75551701197843
 30
0.0
 11
-783.9165390960164
 21
-83.78521271419385
 31
0.0
  0
LINE
  5
33B
  8
DEFAULT
 10
-783.8823675119476
 20
-83.72523139843862
 30
0.0
 11
-783.8989355688758
 21
-83.75551701197843
 31
0.0
  0
LINE
  5
33C
  8
DEFAULT
 10
-783.8668546696985
 20
-83.69439196551241
 30
0.0
 11
-783.8823675119476
 21
-83.72523139843862
 31
0.0
  0
LINE
  5
33D
  8
DEFAULT
 10
-783.8524155290755
 20
-83.66303546513483
 30
0.0
 11
-783.8668546696985
 21
-83.69439196551241
 31
0.0
  0
LINE
  5
33E
  8
DEFAULT
 10
-783.8390672974756
 20
-83.63119926543993
 30
0.0
 11
-783.8524155290755
 21
-83.66303546513483
 31
0.0
  0
LINE
  5
33F
  8
DEFAULT
 10
-783.8268258822385
 20
-83.59892130622853
 30
0.0
 11
-783.8390672974756
 21
-83.63119926543993
 31
0.0
  0
LINE
  5
340
  8
DEFAULT
 10
-783.81570587169
 20
-83.5662400537546
 30
0.0
 11
-783.8268258822385
 21
-83.59892130622853
 31
0.0
  0
LINE
  5
341
  8
DEFAULT
 10
-783.8057205177572
 20
-83.53319445488435
 30
0.0
 11
-783.81570587169
 21
-83.5662400537546
 31
0.0
  0
LINE
  5
342
  8
DEFAULT
 10
-783.7968817201747
 20
-83.4998238906824
 30
0.0
 11
-783.8057205177572
 21
-83.53319445488435
 31
0.0
  0
LINE
  5
343
  8
DEFAULT
 10
-783.7892000123048
 20
-83.46616812948078
 30
0.0
 11
-783.7968817201747
 21
-83.4998238906824
 31
0.0
  0
LINE
  5
344
  8
DEFAULT
 10
-783.7826845485839
 20
-83.43226727948611
 30
0.0
 11
-783.7892000123048
 21
-83.46616812948078
 31
0.0
  0
LINE
  5
345
  8
DEFAULT
 10
-783.7773430936132
 20
-83.39816174098202
 30
0.0
 11
-783.7826845485839
 21
-83.43226727948611
 31
0.0
  0
LINE
  5
346
  8
DEFAULT
 10
-783.7731820129056
 20
-83.36389215818322
 30
0.0
 11
-783.7773430936132
 21
-83.39816174098202
 31
0.0
  0
LINE
  5
347
  8
DEFAULT
 10
-783.7702062652995
 20
-83.32949937079917
 30
0.0
 11
-783.7731820129056
 21
-83.36389215818322
 31
0.0
  0
LINE
  5
348
  8
DEFAULT
 10
-783.7684193970497
 20
-83.29502436536455
 30
0.0
 11
-783.7702062652995
 21
-83.32949937079917
 31
0.0
  0
LINE
  5
349
  8
DEFAULT
 10
-783.7678235376007
 20
-83.26050822639485
 30
0.0
 11
-783.7684193970497
 21
-83.29502436536455
 31
0.0
  0
LINE
  5
34A
  8
DEFAULT
 10
-781.267823537596
 20
-83.26050822639485
 30
0.0
 11
-783.7678235376007
 21
-83.26050822639485
 31
0.0
  0
LINE
  5
34B
  8
DEFAULT
 10
-781.267823537596
 20
-79.83754328886305
 30
0.0
 11
-781.267823537596
 21
-83.26050822639485
 31
0.0
  0
LINE
  5
34C
  8
DEFAULT
 10
-755.267823537596
 20
-83.26050822613553
 30
0.0
 11
-781.267823537596
 21
-79.83754328886305
 31
0.0
  0
LINE
  5
34D
  8
DEFAULT
 10
-753.7149092669808
 20
-83.46495326840112
 30
0.0
 11
-755.267823537596
 21
-83.26050822613553
 31
0.0
  0
LINE
  5
34E
  8
DEFAULT
 10
-752.267823537596
 20
-84.0643558034289
 30
0.0
 11
-753.7149092669808
 21
-83.46495326840112
 31
0.0
  0
LINE
  5
34F
  8
DEFAULT
 10
-751.0251828504767
 20
-85.01786753901624
 30
0.0
 11
-752.267823537596
 21
-84.0643558034289
 31
0.0
  0
LINE
  5
350
  8
DEFAULT
 10
-750.0716711148893
 20
-86.26050822613553
 30
0.0
 11
-751.0251828504767
 21
-85.01786753901624
 31
0.0
  0
LINE
  5
351
  8
DEFAULT
 10
-749.4722685798615
 20
-87.70759395552041
 30
0.0
 11
-750.0716711148893
 21
-86.26050822613553
 31
0.0
  0
LINE
  5
352
  8
DEFAULT
 10
-749.267823537596
 20
-89.26050822613553
 30
0.0
 11
-749.4722685798615
 21
-87.70759395552041
 31
0.0
  0
LINE
  5
353
  8
DEFAULT
 10
-749.4722685798615
 20
-90.81342249675066
 30
0.0
 11
-749.267823537596
 21
-89.26050822613553
 31
0.0
  0
LINE
  5
354
  8
DEFAULT
 10
-750.0716711148893
 20
-92.26050822613553
 30
0.0
 11
-749.4722685798615
 21
-90.81342249675066
 31
0.0
  0
LINE
  5
355
  8
DEFAULT
 10
-751.0251828504767
 20
-93.50314891325482
 30
0.0
 11
-750.0716711148893
 21
-92.26050822613553
 31
0.0
  0
LINE
  5
356
  8
DEFAULT
 10
-752.267823537596
 20
-94.45666064884216
 30
0.0
 11
-751.0251828504767
 21
-93.50314891325482
 31
0.0
  0
LINE
  5
357
  8
DEFAULT
 10
-753.7149092669808
 20
-95.05606318386994
 30
0.0
 11
-752.267823537596
 21
-94.45666064884216
 31
0.0
  0
LINE
  5
358
  8
DEFAULT
 10
-755.2678235375964
 20
-95.26050822613547
 30
0.0
 11
-753.7149092669808
 21
-95.05606318386994
 31
0.0
  0
LINE
  5
359
  8
DEFAULT
 10
-781.267823537596
 20
-98.68347316340802
 30
0.0
 11
-755.2678235375964
 21
-95.26050822613547
 31
0.0
  0
LINE
  5
35A
  8
DEFAULT
 10
-779.7149092669808
 20
-98.47902812114242
 30
0.0
 11
-781.267823537596
 21
-98.68347316340802
 31
0.0
  0
LINE
  5
35B
  8
DEFAULT
 10
-753.7149092669808
 20
-95.05606318386995
 30
0.0
 11
-779.7149092669808
 21
-98.47902812114242
 31
0.0
  0
LINE
  5
35C
  8
DEFAULT
 10
-753.7149092669808
 20
-98.47902812140174
 30
0.0
 11
-753.7149092669808
 21
-95.05606318386995
 31
0.0
  0
LINE
  5
35D
  8
DEFAULT
 10
-751.2149092669761
 20
-98.47902812140174
 30
0.0
 11
-753.7149092669808
 21
-98.47902812140174
 31
0.0
  0
LINE
  5
35E
  8
DEFAULT
 10
-751.2143134075271
 20
-98.51354426037145
 30
0.0
 11
-751.2149092669761
 21
-98.47902812140174
 31
0.0
  0
LINE
  5
35F
  8
DEFAULT
 10
-751.2125265392773
 20
-98.54801926580606
 30
0.0
 11
-751.2143134075271
 21
-98.51354426037145
 31
0.0
  0
LINE
  5
360
  8
DEFAULT
 10
-751.2095507916713
 20
-98.58241205319011
 30
0.0
 11
-751.2125265392773
 21
-98.54801926580606
 31
0.0
  0
LINE
  5
361
  8
DEFAULT
 10
-751.2053897109636
 20
-98.61668163598891
 30
0.0
 11
-751.2095507916713
 21
-98.58241205319011
 31
0.0
  0
LINE
  5
362
  8
DEFAULT
 10
-751.2000482559929
 20
-98.65078717449302
 30
0.0
 11
-751.2053897109636
 21
-98.61668163598891
 31
0.0
  0
LINE
  5
363
  8
DEFAULT
 10
-751.193532792272
 20
-98.68468802448768
 30
0.0
 11
-751.2000482559929
 21
-98.65078717449302
 31
0.0
  0
LINE
  5
364
  8
DEFAULT
 10
-751.1858510844021
 20
-98.71834378568931
 30
0.0
 11
-751.193532792272
 21
-98.68468802448768
 31
0.0
  0
LINE
  5
365
  8
DEFAULT
 10
-751.1770122868196
 20
-98.75171434989124
 30
0.0
 11
-751.1858510844021
 21
-98.71834378568931
 31
0.0
  0
LINE
  5
366
  8
DEFAULT
 10
-751.1670269328868
 20
-98.7847599487615
 30
0.0
 11
-751.1770122868196
 21
-98.75171434989124
 31
0.0
  0
LINE
  5
367
  8
DEFAULT
 10
-751.1559069223384
 20
-98.81744120123543
 30
0.0
 11
-751.1670269328868
 21
-98.7847599487615
 31
0.0
  0
LINE
  5
368
  8
DEFAULT
 10
-751.1436655071013
 20
-98.84971916044682
 30
0.0
 11
-751.1559069223384
 21
-98.81744120123543
 31
0.0
  0
LINE
  5
369
  8
DEFAULT
 10
-751.1303172755014
 20
-98.88155536014173
 30
0.0
 11
-751.1436655071013
 21
-98.84971916044682
 31
0.0
  0
LINE
  5
36A
  8
DEFAULT
 10
-751.1158781348784
 20
-98.91291186051932
 30
0.0
 11
-751.1303172755014
 21
-98.88155536014173
 31
0.0
  0
LINE
  5
36B
  8
DEFAULT
 10
-751.1003652926292
 20
-98.94375129344553
 30
0.0
 11
-751.1158781348784
 21
-98.91291186051932
 31
0.0
  0
LINE
  5
36C
  8
DEFAULT
 10
-751.083797235701
 20
-98.97403690698533
 30
0.0
 11
-751.1003652926292
 21
-98.94375129344553
 31
0.0
  0
LINE
  5
36D
  8
DEFAULT
 10
-751.0661937085604
 20
-99.00373260920077
 30
0.0
 11
-751.083797235701
 21
-98.97403690698533
 31
0.0
  0
LINE
  5
36E
  8
DEFAULT
 10
-751.0475756896632
 20
-99.03280301116229
 30
0.0
 11
-751.0661937085604
 21
-99.00373260920077
 31
0.0
  0
LINE
  5
36F
  8
DEFAULT
 10
-751.0279653664545
 20
-99.06121346912254
 30
0.0
 11
-751.0475756896632
 21
-99.03280301116229
 31
0.0
  0
LINE
  5
370
  8
DEFAULT
 10
-751.0073861089271
 20
-99.08893012580182
 30
0.0
 11
-751.0279653664545
 21
-99.06121346912254
 31
0.0
  0
LINE
  5
371
  8
DEFAULT
 10
-750.9858624417709
 20
-99.11591995073665
 30
0.0
 11
-751.0073861089271
 21
-99.08893012580182
 31
0.0
  0
LINE
  5
372
  8
DEFAULT
 10
-750.963420015147
 20
-99.14215077964256
 30
0.0
 11
-750.9858624417709
 21
-99.11591995073665
 31
0.0
  0
LINE
  5
373
  8
DEFAULT
 10
-750.9400855741194
 20
-99.16759135274505
 30
0.0
 11
-750.963420015147
 21
-99.14215077964256
 31
0.0
  0
LINE
  5
374
  8
DEFAULT
 10
-750.9158869267822
 20
-99.19221135203236
 30
0.0
 11
-750.9400855741194
 21
-99.16759135274505
 31
0.0
  0
LINE
  5
375
  8
DEFAULT
 10
-750.8908529111208
 20
-99.2159814373861
 30
0.0
 11
-750.9158869267822
 21
-99.19221135203236
 31
0.0
  0
LINE
  5
376
  8
DEFAULT
 10
-750.8650133606448
 20
-99.23887328154635
 30
0.0
 11
-750.8908529111208
 21
-99.2159814373861
 31
0.0
  0
LINE
  5
377
  8
DEFAULT
 10
-750.8383990688347
 20
-99.26085960386979
 30
0.0
 11
-750.8650133606448
 21
-99.23887328154635
 31
0.0
  0
LINE
  5
378
  8
DEFAULT
 10
-750.8110417524452
 20
-99.28191420284064
 30
0.0
 11
-750.8383990688347
 21
-99.26085960386979
 31
0.0
  0
LINE
  5
379
  8
DEFAULT
 10
-750.7829740137072
 20
-99.30201198729543
 30
0.0
 11
-750.8110417524452
 21
-99.28191420284064
 31
0.0
  0
LINE
  5
37A
  8
DEFAULT
 10
-750.7542293014752
 20
-99.32112900632458
 30
0.0
 11
-750.7829740137072
 21
-99.30201198729543
 31
0.0
  0
LINE
  5
37B
  8
DEFAULT
 10
-750.7248418713662
 20
-99.33924247781528
 30
0.0
 11
-750.7542293014752
 21
-99.32112900632458
 31
0.0
  0
LINE
  5
37C
  8
DEFAULT
 10
-750.6948467449358
 20
-99.35633081560121
 30
0.0
 11
-750.7248418713662
 21
-99.33924247781528
 31
0.0
  0
LINE
  5
37D
  8
DEFAULT
 10
-750.6642796679432
 20
-99.37237365518732
 30
0.0
 11
-750.6948467449358
 21
-99.35633081560121
 31
0.0
  0
LINE
  5
37E
  8
DEFAULT
 10
-750.6331770677516
 20
-99.38735187801852
 30
0.0
 11
-750.6642796679432
 21
-99.37237365518732
 31
0.0
  0
LINE
  5
37F
  8
DEFAULT
 10
-750.6015760099174
 20
-99.40124763426358
 30
0.0
 11
-750.6331770677516
 21
-99.38735187801852
 31
0.0
  0
LINE
  5
380
  8
DEFAULT
 10
-750.5695141540185
 20
-99.41404436408719
 30
0.0
 11
-750.6015760099174
 21
-99.40124763426358
 31
0.0
  0
LINE
  5
381
  8
DEFAULT
 10
-750.5370297087745
 20
-99.42572681738457
 30
0.0
 11
-750.5695141540185
 21
-99.41404436408719
 31
0.0
  0
LINE
  5
382
  8
DEFAULT
 10
-750.5041613865126
 20
-99.43628107195538
 30
0.0
 11
-750.5370297087745
 21
-99.42572681738457
 31
0.0
  0
LINE
  5
383
  8
DEFAULT
 10
-750.4709483570335
 20
-99.44569455009498
 30
0.0
 11
-750.5041613865126
 21
-99.43628107195538
 31
0.0
  0
LINE
  5
384
  8
DEFAULT
 10
-750.4374302009323
 20
-99.4539560335836
 30
0.0
 11
-750.4709483570335
 21
-99.44569455009498
 31
0.0
  0
LINE
  5
385
  8
DEFAULT
 10
-750.4036468624289
 20
-99.4610556770552
 30
0.0
 11
-750.4374302009323
 21
-99.4539560335836
 31
0.0
  0
LINE
  5
386
  8
DEFAULT
 10
-750.3696386017663
 20
-99.46698501973052
 30
0.0
 11
-750.4036468624289
 21
-99.4610556770552
 31
0.0
  0
LINE
  5
387
  8
DEFAULT
 10
-750.3354459472313
 20
-99.47173699549982
 30
0.0
 11
-750.3696386017663
 21
-99.46698501973052
 31
0.0
  0
LINE
  5
388
  8
DEFAULT
 10
-750.3011096468566
 20
-99.47530594134379
 30
0.0
 11
-750.3354459472313
 21
-99.47173699549982
 31
0.0
  0
LINE
  5
389
  8
DEFAULT
 10
-750.2666706198602
 20
-99.47768760408223
 30
0.0
 11
-750.3011096468566
 21
-99.47530594134379
 31
0.0
  0
LINE
  5
38A
  8
DEFAULT
 10
-750.2321699078814
 20
-99.47887914544262
 30
0.0
 11
-750.2666706198602
 21
-99.47768760408223
 31
0.0
  0
LINE
  5
38B
  8
DEFAULT
 10
-750.1976486260706
 20
-99.47887914544262
 30
0.0
 11
-750.2321699078814
 21
-99.47887914544262
 31
0.0
  0
LINE
  5
38C
  8
DEFAULT
 10
-750.1631479140917
 20
-99.47768760408222
 30
0.0
 11
-750.1976486260706
 21
-99.47887914544262
 31
0.0
  0
LINE
  5
38D
  8
DEFAULT
 10
-750.1287088870954
 20
-99.4753059413438
 30
0.0
 11
-750.1631479140917
 21
-99.47768760408222
 31
0.0
  0
LINE
  5
38E
  8
DEFAULT
 10
-750.0943725867206
 20
-99.47173699549982
 30
0.0
 11
-750.1287088870954
 21
-99.4753059413438
 31
0.0
  0
LINE
  5
38F
  8
DEFAULT
 10
-750.0601799321856
 20
-99.46698501973052
 30
0.0
 11
-750.0943725867206
 21
-99.47173699549982
 31
0.0
  0
LINE
  5
390
  8
DEFAULT
 10
-750.026171671523
 20
-99.4610556770552
 30
0.0
 11
-750.0601799321856
 21
-99.46698501973052
 31
0.0
  0
LINE
  5
391
  8
DEFAULT
 10
-749.9923883330197
 20
-99.45395603358358
 30
0.0
 11
-750.026171671523
 21
-99.4610556770552
 31
0.0
  0
LINE
  5
392
  8
DEFAULT
 10
-749.9588701769184
 20
-99.445694550095
 30
0.0
 11
-749.9923883330197
 21
-99.45395603358358
 31
0.0
  0
LINE
  5
393
  8
DEFAULT
 10
-749.9256571474394
 20
-99.43628107195539
 30
0.0
 11
-749.9588701769184
 21
-99.445694550095
 31
0.0
  0
LINE
  5
394
  8
DEFAULT
 10
-749.8927888251775
 20
-99.42572681738457
 30
0.0
 11
-749.9256571474394
 21
-99.43628107195539
 31
0.0
  0
LINE
  5
395
  8
DEFAULT
 10
-749.8603043799334
 20
-99.41404436408718
 30
0.0
 11
-749.8927888251775
 21
-99.42572681738457
 31
0.0
  0
LINE
  5
396
  8
DEFAULT
 10
-749.8282425240345
 20
-99.40124763426357
 30
0.0
 11
-749.8603043799334
 21
-99.41404436408718
 31
0.0
  0
LINE
  5
397
  8
DEFAULT
 10
-749.7966414662004
 20
-99.38735187801853
 30
0.0
 11
-749.8282425240345
 21
-99.40124763426357
 31
0.0
  0
LINE
  5
398
  8
DEFAULT
 10
-749.7655388660088
 20
-99.37237365518733
 30
0.0
 11
-749.7966414662004
 21
-99.38735187801853
 31
0.0
  0
LINE
  5
399
  8
DEFAULT
 10
-749.7349717890162
 20
-99.35633081560121
 30
0.0
 11
-749.7655388660088
 21
-99.37237365518733
 31
0.0
  0
LINE
  5
39A
  8
DEFAULT
 10
-749.7049766625859
 20
-99.33924247781526
 30
0.0
 11
-749.7349717890162
 21
-99.35633081560121
 31
0.0
  0
LINE
  5
39B
  8
DEFAULT
 10
-749.6755892324768
 20
-99.32112900632457
 30
0.0
 11
-749.7049766625859
 21
-99.33924247781526
 31
0.0
  0
LINE
  5
39C
  8
DEFAULT
 10
-749.6468445202448
 20
-99.30201198729542
 30
0.0
 11
-749.6755892324768
 21
-99.32112900632457
 31
0.0
  0
LINE
  5
39D
  8
DEFAULT
 10
-749.6187767815068
 20
-99.28191420284065
 30
0.0
 11
-749.6468445202448
 21
-99.30201198729542
 31
0.0
  0
LINE
  5
39E
  8
DEFAULT
 10
-749.5914194651173
 20
-99.2608596038698
 30
0.0
 11
-749.6187767815068
 21
-99.28191420284065
 31
0.0
  0
LINE
  5
39F
  8
DEFAULT
 10
-749.5648051733073
 20
-99.23887328154635
 30
0.0
 11
-749.5914194651173
 21
-99.2608596038698
 31
0.0
  0
LINE
  5
3A0
  8
DEFAULT
 10
-749.5389656228311
 20
-99.21598143738609
 30
0.0
 11
-749.5648051733073
 21
-99.23887328154635
 31
0.0
  0
LINE
  5
3A1
  8
DEFAULT
 10
-749.5139316071698
 20
-99.19221135203236
 30
0.0
 11
-749.5389656228311
 21
-99.21598143738609
 31
0.0
  0
LINE
  5
3A2
  8
DEFAULT
 10
-749.4897329598326
 20
-99.16759135274503
 30
0.0
 11
-749.5139316071698
 21
-99.19221135203236
 31
0.0
  0
LINE
  5
3A3
  8
DEFAULT
 10
-749.4663985188047
 20
-99.14215077964255
 30
0.0
 11
-749.4897329598326
 21
-99.16759135274503
 31
0.0
  0
LINE
  5
3A4
  8
DEFAULT
 10
-749.4439560921809
 20
-99.11591995073665
 30
0.0
 11
-749.4663985188047
 21
-99.14215077964255
 31
0.0
  0
LINE
  5
3A5
  8
DEFAULT
 10
-749.4224324250248
 20
-99.08893012580184
 30
0.0
 11
-749.4439560921809
 21
-99.11591995073665
 31
0.0
  0
LINE
  5
3A6
  8
DEFAULT
 10
-749.4018531674973
 20
-99.06121346912254
 30
0.0
 11
-749.4224324250248
 21
-99.08893012580184
 31
0.0
  0
LINE
  5
3A7
  8
DEFAULT
 10
-749.3822428442886
 20
-99.0328030111623
 30
0.0
 11
-749.4018531674973
 21
-99.06121346912254
 31
0.0
  0
LINE
  5
3A8
  8
DEFAULT
 10
-749.3636248253915
 20
-99.00373260920077
 30
0.0
 11
-749.3822428442886
 21
-99.0328030111623
 31
0.0
  0
LINE
  5
3A9
  8
DEFAULT
 10
-749.3460212982509
 20
-98.97403690698533
 30
0.0
 11
-749.3636248253915
 21
-99.00373260920077
 31
0.0
  0
LINE
  5
3AA
  8
DEFAULT
 10
-749.3294532413227
 20
-98.94375129344553
 30
0.0
 11
-749.3460212982509
 21
-98.97403690698533
 31
0.0
  0
LINE
  5
3AB
  8
DEFAULT
 10
-749.3139403990734
 20
-98.91291186051932
 30
0.0
 11
-749.3294532413227
 21
-98.94375129344553
 31
0.0
  0
LINE
  5
3AC
  8
DEFAULT
 10
-749.2995012584505
 20
-98.88155536014172
 30
0.0
 11
-749.3139403990734
 21
-98.91291186051932
 31
0.0
  0
LINE
  5
3AD
  8
DEFAULT
 10
-749.2861530268506
 20
-98.84971916044682
 30
0.0
 11
-749.2995012584505
 21
-98.88155536014172
 31
0.0
  0
LINE
  5
3AE
  8
DEFAULT
 10
-749.2739116116135
 20
-98.81744120123543
 30
0.0
 11
-749.2861530268506
 21
-98.84971916044682
 31
0.0
  0
LINE
  5
3AF
  8
DEFAULT
 10
-749.2627916010651
 20
-98.78475994876152
 30
0.0
 11
-749.2739116116135
 21
-98.81744120123543
 31
0.0
  0
LINE
  5
3B0
  8
DEFAULT
 10
-749.2528062471322
 20
-98.75171434989124
 30
0.0
 11
-749.2627916010651
 21
-98.78475994876152
 31
0.0
  0
LINE
  5
3B1
  8
DEFAULT
 10
-749.2439674495498
 20
-98.71834378568931
 30
0.0
 11
-749.2528062471322
 21
-98.75171434989124
 31
0.0
  0
LINE
  5
3B2
  8
DEFAULT
 10
-749.2362857416799
 20
-98.68468802448768
 30
0.0
 11
-749.2439674495498
 21
-98.71834378568931
 31
0.0
  0
LINE
  5
3B3
  8
DEFAULT
 10
-749.229770277959
 20
-98.65078717449303
 30
0.0
 11
-749.2362857416799
 21
-98.68468802448768
 31
0.0
  0
LINE
  5
3B4
  8
DEFAULT
 10
-749.2244288229883
 20
-98.61668163598891
 30
0.0
 11
-749.229770277959
 21
-98.65078717449303
 31
0.0
  0
LINE
  5
3B5
  8
DEFAULT
 10
-749.2202677422806
 20
-98.58241205319011
 30
0.0
 11
-749.2244288229883
 21
-98.61668163598891
 31
0.0
  0
LINE
  5
3B6
  8
DEFAULT
 10
-749.2172919946746
 20
-98.54801926580608
 30
0.0
 11
-749.2202677422806
 21
-98.58241205319011
 31
0.0
  0
LINE
  5
3B7
  8
DEFAULT
 10
-749.2155051264248
 20
-98.51354426037145
 30
0.0
 11
-749.2172919946746
 21
-98.54801926580608
 31
0.0
  0
LINE
  5
3B8
  8
DEFAULT
 10
-749.2149092669758
 20
-98.47902812140174
 30
0.0
 11
-749.2155051264248
 21
-98.51354426037145
 31
0.0
  0
LINE
  5
3B9
  8
DEFAULT
 10
-748.4149092669761
 20
-98.47902812139878
 30
0.0
 11
-749.2149092669758
 21
-98.47902812140174
 31
0.0
  0
LINE
  5
3BA
  8
DEFAULT
 10
-748.364150720293
 20
-98.52664277278556
 30
0.0
 11
-748.4149092669761
 21
-98.47902812139878
 31
0.0
  0
LINE
  5
3BB
  8
DEFAULT
 10
-748.3150704730232
 20
-98.57598559816083
 30
0.0
 11
-748.364150720293
 21
-98.52664277278556
 31
0.0
  0
LINE
  5
3BC
  8
DEFAULT
 10
-748.267727329984
 20
-98.62699747810308
 30
0.0
 11
-748.3150704730232
 21
-98.57598559816083
 31
0.0
  0
CIRCLE
  5
3BD
  8
CUT
 10
-755.267823537596
 20
-89.26050822613541
 30
0.0
 40
3.649999999999977
  0
ARC
  5
3BE
  8
CUT
 10
-764.3823813591433
 20
-57.81151062246903
 30
-0.0000000000000003
 40
2.409999999986702
 50
144.1935560980825
 51
215.5674741210254
  0
LINE
  5
3BF
  8
CUT
 10
-762.4220118047135
 20
-59.21331346528655
 30
-0.0000000000000003
 11
-766.3427502901837
 21
-59.21331433702674
 31
-0.0000000000000003
  0
ARC
  5
3C0
  8
CUT
 10
-764.382381359138
 20
-57.81151062246866
 30
-0.0000000000000003
 40
2.410000000009574
 50
324.432551357734
 51
35.56902053603551
  0
LINE
  5
3C1
  8
CUT
 10
-766.336886599977
 20
-56.40154279890336
 30
-0.0000000000000003
 11
-762.4220502635224
 21
-56.40965399798505
 31
-0.0000000000000003
  0
LINE
  5
3C2
  8
CUT
 10
-760.3823809143696
 20
-78.01150995544191
 30
-0.0000000000000003
 11
-768.3823809143696
 21
-78.01151128949533
 31
-0.0000000000000003
  0
LINE
  5
3C3
  8
CUT
 10
-768.3823809143696
 20
-78.01151128949533
 30
-0.0000000000000003
 11
-768.3823813590539
 21
-75.01151128949556
 31
-0.0000000000000003
  0
LINE
  5
3C4
  8
CUT
 10
-768.3823813590539
 20
-75.01151128949556
 30
-0.0000000000000003
 11
-760.3823813590541
 21
-75.01150995544191
 31
-0.0000000000000003
  0
LINE
  5
3C5
  8
CUT
 10
-760.3823813590541
 20
-75.01150995544191
 30
-0.0000000000000003
 11
-760.3823809143696
 21
-78.01150995544191
 31
-0.0000000000000003
  0
CIRCLE
  5
3C6
  8
CUT
 10
-779.7149092669808
 20
-104.4790281211424
 30
0.0
 40
0.9999999999999716
  0
LINE
  5
3C7
  8
CUT
 10
-747.6823790411761
 20
-59.8715159841064
 30
0.0
 11
-747.6823816757022
 21
-71.75151598410608
 31
-0.0000000000000003
  0
LINE
  5
3C8
  8
CUT
 10
-747.6823816757022
 20
-71.75151598410608
 30
-0.0000000000000003
 11
-750.4823816757023
 21
-71.75151555475554
 31
-0.0000000000000003
  0
LINE
  5
3C9
  8
CUT
 10
-750.4823816757023
 20
-71.75151555475554
 30
-0.0000000000000003
 11
-750.4823790411762
 21
-59.87151555475587
 31
0.0
  0
LINE
  5
3CA
  8
CUT
 10
-750.4823790411762
 20
-59.87151555475587
 30
0.0
 11
-747.6823790411761
 21
-59.8715159841064
 31
0.0
  0
LINE
  5
3CB
  8
CUT
 10
-781.0823836615978
 20
-59.8715159841064
 30
0.0
 11
-781.0823810577398
 21
-71.75151598410608
 31
-0.0000000000000003
  0
LINE
  5
3CC
  8
CUT
 10
-781.0823810577398
 20
-71.75151598410608
 30
-0.0000000000000003
 11
-778.2823810577399
 21
-71.75151555475554
 31
-0.0000000000000003
  0
LINE
  5
3CD
  8
CUT
 10
-778.2823810577399
 20
-71.75151555475554
 30
-0.0000000000000003
 11
-778.2823836615979
 21
-59.87151555475587
 31
0.0
  0
LINE
  5
3CE
  8
CUT
 10
-778.2823836615979
 20
-59.87151555475587
 30
0.0
 11
-781.0823836615978
 21
-59.8715159841064
 31
0.0
  0
ENDSEC
  0
EOF
